<?xml version="1.0" encoding="UTF-8"?>
<svg xmlns="http://www.w3.org/2000/svg" xmlns:xlink="http://www.w3.org/1999/xlink" version="1.1" id="Layer_1" x="0px" y="0px" viewBox="0 0 307.56 307.56" style="enable-background:new 0 0 307.56 307.56;" xml:space="preserve" width="512" height="512">
<style type="text/css">
	.st0{fill:#F4063E;}
	.st1{fill:#606060;}
	.st2{fill:#AA0732;}
	.st3{fill:#EE74AB;}
	.st4{fill:#FFFFFF;}
	.st5{fill:#222221;}
	.st6{fill:#CD2428;}
	.st7{fill:url(#SVGID_1_);}
	.st8{fill:url(#SVGID_2_);}
	.st9{fill:none;}
	.st10{fill:#C4007A;}
	.st11{fill:#DA2361;}
	.st12{fill:#CF238E;}
	.st13{fill:#8CAD73;}
	.st14{fill:#9B1A66;}
	.st15{opacity:0.8071;fill:none;stroke:url(#SVGID_3_);stroke-width:2;stroke-miterlimit:10;}
	.st16{fill:url(#SVGID_4_);stroke:url(#SVGID_5_);stroke-miterlimit:10;}
	.st17{fill:url(#SVGID_6_);stroke:url(#SVGID_7_);stroke-miterlimit:10;}
	.st18{fill:#F7C8F0;}
	.st19{fill:#FF4545;}
	.st20{fill:#FDA1A8;}
	.st21{fill:#E67FD5;}
	.st22{opacity:0.8071;fill:none;stroke:url(#SVGID_8_);stroke-width:2;stroke-miterlimit:10;}
	.st23{fill:url(#SVGID_9_);stroke:url(#SVGID_10_);stroke-miterlimit:10;}
	.st24{fill:url(#SVGID_11_);stroke:url(#SVGID_12_);stroke-miterlimit:10;}
	.st25{fill:url(#SVGID_13_);}
	.st26{fill:url(#SVGID_14_);}
	.st27{fill:url(#SVGID_15_);}
	.st28{fill:url(#SVGID_16_);}
	.st29{fill:url(#SVGID_17_);}
	.st30{fill:#CF2309;}
	.st31{fill:#CF2300;}
	.st32{fill:#F96419;}
	.st33{opacity:0.8;fill:#DA2361;}
	.st34{fill:#37B34A;}
	.st35{fill:#EE509C;}
	.st36{fill:#006838;}
	.st37{fill:#BE1E2D;}
	.st38{fill:#BC2326;}
	.st39{fill:#AF1F63;}
	.st40{fill:#009345;}
	.st41{fill:#D62027;}
	.st42{fill:#E75F93;}
	.st43{fill:#339346;}
	.st44{fill:#EE4036;}
	.st45{fill:#ED3343;}
	.st46{fill:#EC1B88;}
	.st47{fill:#931C53;}
	.st48{fill:#E8677C;}
	.st49{fill:#EC1558;}
	.st50{fill:#231F20;}
	.st51{fill:#00A538;}
</style>
<g>
	<path class="st41" d="M188.67,131.59c10.41-1.97,19.85-5,27.65-10.71c11.1-8.14,14.29-18.15,10.04-29.74   c-3.87-10.54-11.99-18.3-23.65-23.71c-9.43-4.39-19.63-6.92-30.3-8.29c-8.8-1.13-17.65-1.43-26.52-0.79   c-15.45,1.12-30.07,4.38-42.99,11.65C91.54,76.38,83.95,84.94,81,96.04c-2.54,9.58-0.74,18.73,4.52,27.45   c5.83,9.68,14.49,17.32,25.74,23.02c6.4,3.24,13.27,5.71,20.07,8.31c7.4,2.83,14.85,5.62,22.01,8.84   c8.63,3.87,16.34,8.8,22.52,15.14c4.17,4.27,7.09,8.99,7.94,14.49c0.69,4.5-0.29,8.77-2.44,12.87c-1.12,2.14-2.57,4.16-3.96,6.38   c0.3-0.06,0.6-0.05,0.81-0.16c6.13-3.19,12.04-6.62,17.12-10.9c5.19-4.38,9.15-9.33,10.72-15.39c1.46-5.61,0.7-11.11-1.57-16.44   c-6.14-14.41-17.92-24.2-36.18-28.37c-7.47-1.71-15.07-3.02-22.58-4.62c-8.73-1.86-16.93-4.69-24.19-9.15   c-4.55-2.79-8.6-5.98-11.8-9.84c-8.98-10.82-7.46-23.7,3.9-32.92c6.28-5.09,13.95-8.14,22.45-9.87c9.27-1.88,18.57-2.01,27.76,0.3   c12.74,3.19,20.98,9.86,23.81,20.67c2.04,7.78,2.73,15.64,2.25,23.56c-0.22,3.56-0.77,7.11-1.16,10.67   C188.71,130.48,188.71,130.89,188.67,131.59z"/>
	<path class="st41" d="M77.64,125.98c-0.5,5.93,0.11,11.68,1.14,17.39c1.95,10.8,5.65,21.19,11.57,31.01   c13.31,22.09,34.33,37.42,62.08,46.84c1.18,0.4,2.12,0.54,3.25-0.19c5.16-3.36,10.03-6.96,13.88-11.37   c3.07-3.52,5.33-7.33,5.85-11.7c0.61-5.09-1.29-9.63-4.79-13.78c-4.02-4.76-9.08-8.67-14.89-11.95   c-6.63-3.74-13.91-6.46-21.21-9.17c-7.98-2.97-16.04-5.82-23.8-9.14c-14.31-6.12-25.25-15.05-32.36-26.97   C78.16,126.62,77.88,126.31,77.64,125.98z"/>
	<path class="st41" d="M128.81,123.15c-0.59-4.01-0.26-7.77,0.48-11.51c0.83-4.16,2.43-8.13,4.68-11.93   c0.29-0.49,0.63-0.98,1.06-1.4c2.21-2.18,5.49-2.04,6.99,0.49c5.09,8.6,20.65,10.93,30.48,5.86c6.47-3.34,8.01-9,3.94-14.29   c-2.16-2.81-5.19-4.86-8.73-6.43c-14.78-6.55-35.54-4.3-47.65,5.18c-5.03,3.93-8.03,8.63-7.85,14.44c0.09,2.94,1.19,5.67,2.9,8.24   c3.04,4.57,7.48,8.1,12.65,11.07C127.94,122.98,128.21,123,128.81,123.15z"/>
	<path class="st41" d="M184.55,139.25c8.95,4.49,16.11,10.12,21.53,17.17c5.44,7.07,8.53,14.74,9.35,23.26   c0.39-0.54,0.8-1.06,1.16-1.61c5.68-8.75,9.48-18.04,12-27.68c2.8-10.71,4.06-21.57,4.17-32.52c0-0.46,0-0.92,0-1.78   c-0.55,0.42-0.81,0.56-0.96,0.75c-7.17,9.17-17.53,14.88-30.05,18.18c-5.05,1.33-10.18,2.45-15.28,3.68   C185.93,138.83,185.4,139,184.55,139.25z"/>
	<path class="st41" d="M139.18,107.49c-1.26,2.25-1.72,4.69-2.06,7.12c-0.53,3.77-0.35,7.54,0.43,11.29   c0.27,1.29,1.03,1.99,2.54,2.49c12.51,4.21,25.46,5.74,38.91,4.47c0.16-0.02,0.31-0.09,0.76-0.22c2.05-8.04,2.81-16.24,1.63-24.65   C167.09,116.58,153.11,115.96,139.18,107.49z"/>
</g>
<path class="st36" d="M181.08,226.21c8.65,1.82,15.42,5.8,21.08,11.39c6.51,6.43,14.44,8.93,23.19,9.31  c8.67,0.37,8.03,1.76,8.9-7.66c1.09-11.69-4.71-19.82-15.66-21.91C205.18,214.78,193.08,218.66,181.08,226.21z"/>
<path class="st36" d="M124.9,242.21c0.19-1.5,0.95-2.97,1.71-4.32c2.2-3.93,4.76-8.17,8.81-10.43c4.93-2.75,10.76-0.09,15.83,0.97  c5.29,1.1,10.81,1.1,16.11,0c3.41-0.71,7.06-1.86,10.27-0.5c3.34,1.42,5.06,5.08,6.33,8.48c0.56,1.49,1.1,3.1,0.73,4.65  c-0.3,1.26-1.17,2.29-2.02,3.26c-7.09,8.1-15.04,15.44-23.68,21.86c-0.83,0.62-1.71,1.24-2.74,1.36c-1.14,0.12-2.23-0.41-3.24-0.94  c-9.27-4.88-17.81-11.15-25.26-18.53c-1.21-1.2-2.45-2.53-2.79-4.21C124.84,243.3,124.84,242.75,124.9,242.21z"/>
<path class="st36" d="M132.42,225.48c0.01,0.01,0.02,0.02,0.03,0.03c-6.52,0.29-12.32,4.11-17.45,8.15  c-5.13,4.04-10.16,8.53-16.36,10.56c-3.54,1.16-7.29,1.46-11.01,1.55c-1.52,0.04-3.03,0.04-4.55,0.01c-0.65-0.01-1.33-0.04-1.88-0.4  c-0.56-0.36-0.86-1-1.11-1.62c-2.25-5.66-1.78-12.34,1.25-17.63c8.35-14.59,29.35-11.88,42.27-5.89  C126.72,221.67,129.68,223.43,132.42,225.48z"/>
</svg>
