<?xml version="1.0" encoding="iso-8859-1"?>
<!-- Generator: Adobe Illustrator 19.0.0, SVG Export Plug-In . SVG Version: 6.00 Build 0)  -->
<svg version="1.1" id="Capa_1" xmlns="http://www.w3.org/2000/svg" xmlns:xlink="http://www.w3.org/1999/xlink" x="0px" y="0px"
	 viewBox="0 0 373.733 373.733" style="enable-background:new 0 0 373.733 373.733;" xml:space="preserve">
<path style="fill:#FFFFED;" d="M330.579,77.79c-6.137-29.351-24.123-43.026-43.695-44.056
	c-6.331-12.472-52.637-42.749-93.648-19.978c-7.752-4.22-31.409-4.863-41.201-4.524c-27.04,0.931-51.761,8.264-71.462,21.203
	C35.964,59.726,19.961,118.848,27.65,133.882c-32.748,29.546-45.969,125.149,14.974,153.941
	c12.904,45.872,47.627,63.367,103.446,33.833c26.698,39.516,55.416,47.21,75.126,46.53c32.706-1.126,57.986-24.838,68.285-36.218
	c64.136-14.625,82.659-71.984,64.117-123.869c-0.015-0.041-0.031-0.079-0.05-0.12C378.982,182.738,389.096,103.798,330.579,77.79z"
	/>
<g>
	<path style="fill:#FF8C9D;" d="M95.16,121.622c0,0-19.798,61.182,39.434,86.19c59.229,25.007,93.508,28.098,112.449,58.763
		c0,0-12.83-16.642-43.611-5.616c-30.774,11.026-131.951,112.733-150.073,10.864c0,0-46.404-8.367-38.513-71.274
		C22.735,137.64,52.257,127.37,95.16,121.622z"/>
	<path style="fill:#FF8C9D;" d="M133.715,193.605c0,0-11.502-100.674,85.376-123.942c0,0-102.417-44.872-114.041,42.365
		C105.052,112.028,93.148,173.651,133.715,193.605z"/>
	<path style="fill:#FF8C9D;" d="M160.874,124.342c0,0-33.187,56.659-5.617,78.489c27.574,21.824,46.666,12.627,97.756-9.065
		c0,0-6.026-12.604-28.793-20.358c-22.769-7.758-52.081-15.287-39.625-47.039C184.595,126.368,166.017,122.742,160.874,124.342z"/>
	<path style="fill:#FF8C9D;" d="M167.924,111.284c0,0,53.019-11.789,67.364,50.352c0,0,22.563-37.788-8.601-75.151
		C226.688,86.485,203.229,88.718,167.924,111.284z"/>
	<path style="fill:#FF8C9D;" d="M240.525,77.113c0,0,51.394,4.277,55.875,55.373c4.478,51.092-52.438,84.371-64.462,101.867
		c0,0,12.455,10.603,24.152,30.13c0,0,1.029-22.99,28.945-40.501c38.581-24.198,62.385-24.569,69.293-55.769
		c9.532-43.021-4.363-70.317-39.363-79.788c0,0,0.079-52.697-43.585-36.936C261.232,55.157,257.131,64.863,240.525,77.113z"/>
	<path style="fill:#FF8C9D;" d="M247.017,97.174c0,0,23.662,43.315-2.046,72.672c0,0,10.645,2.479,14.143,16.593
		c0,0,30.156-20.968,24.031-56.344C277.015,94.716,247.017,97.174,247.017,97.174z"/>
	<path style="fill:#FF8C9D;" d="M93.848,107.605c0,0,3.655-59.056,67.584-58.728L183.264,25.7c0,0-120.584-26.095-144.572,94.308
		C38.692,120.008,67.688,108.506,93.848,107.605z"/>
	<path style="fill:#FF8C9D;" d="M175.996,51.218c0,0,31.636-60.521,94.453-14.639c0,0-22.231,6.102-38.438,30.146
		C232.014,66.728,188.901,47.929,175.996,51.218z"/>
	<path style="fill:#FF8C9D;" d="M156.461,306.707c0,0,27.045-26.016,57.905-33.315c14.228-3.364,28.71,1.264,42.719,7.068
		c0,0,21.613-47.72,81.053-66.852c0,0,30.156,84.372-58.006,100.225C280.131,313.835,214.611,398.658,156.461,306.707z"/>
	<path style="fill:#FF8C9D;" d="M195.503,133.114c0,0-2.776,18.6,26.438,24.713C221.942,157.826,235.536,144.542,195.503,133.114z"
		/>
</g>
<g>
</g>
<g>
</g>
<g>
</g>
<g>
</g>
<g>
</g>
<g>
</g>
<g>
</g>
<g>
</g>
<g>
</g>
<g>
</g>
<g>
</g>
<g>
</g>
<g>
</g>
<g>
</g>
<g>
</g>
</svg>
