<svg fill="none" height="512" viewBox="0 0 512 512" width="512" xmlns="http://www.w3.org/2000/svg" xmlns:xlink="http://www.w3.org/1999/xlink"><linearGradient id="lg1"><stop offset="0" stop-color="#ff4f4d"/><stop offset=".980598" stop-color="#900c0a"/></linearGradient><linearGradient id="paint0_linear_137_247" gradientUnits="userSpaceOnUse" x1="422.648" x2="422.648" xlink:href="#lg1" y1="103.642" y2="148.25"/><linearGradient id="paint1_linear_137_247" gradientUnits="userSpaceOnUse" x1="311.851" x2="311.851" xlink:href="#lg1" y1="55.532" y2="236.086"/><linearGradient id="paint2_linear_137_247" gradientUnits="userSpaceOnUse" x1="371.614" x2="371.614" xlink:href="#lg1" y1="151.224" y2="259.991"/><linearGradient id="lg2"><stop offset="0" stop-color="#8fdd8e"/><stop offset=".980598" stop-color="#0f7d0d"/></linearGradient><linearGradient id="paint3_linear_137_247" gradientUnits="userSpaceOnUse" x1="247.981" x2="247.981" xlink:href="#lg2" y1="213.101" y2="249.651"/><linearGradient id="paint4_linear_137_247" gradientUnits="userSpaceOnUse" x1="325.29" x2="325.29" xlink:href="#lg2" y1="252.508" y2="318.852"/><linearGradient id="paint5_linear_137_247" gradientUnits="userSpaceOnUse" x1="123.815" x2="123.815" xlink:href="#lg2" y1="315.317" y2="411.136"/><linearGradient id="paint6_linear_137_247" gradientUnits="userSpaceOnUse" x1="303.612" x2="303.612" xlink:href="#lg2" y1="351.905" y2="422.614"/><path d="m451.847 136.961c-9.079.715-21.026 4.496-22.063 11.289-11.01-5.376-22.648-8.263-34.306-9.163 2.288-10.525 1.713-23.013-2.03-35.445 33.079-.087 52.65 21.973 58.399 33.319z" fill="url(#paint0_linear_137_247)"/><path d="m281.059 73.9274c18.853 2.2823 45.669 46.2656 68.661 46.2656-7.635-21.4125-21.61-35.8958-37.155-45.4587 4.381-3.2622 7.242-11.1436 6.078-19.2021 23.629 3.5141 67.676 25.1632 59.708 83.6068-36.47 2.941-70.153 23.271-81.816 45.039-8.068 17.845-10.58 36.264-7.971 51.908-28.239.157-53.045-40.641-41.084-64.388 10.347-20.541 41.191-55.21 33.579-97.7706z" fill="url(#paint1_linear_137_247)"/><path d="m442.939 177.684c-22.076 5.493-46.375 26.522-35.452 46.549-2.786 4.167-8.871 13.776-10.923 18.883-19.546 0-31.691 16.875-63.884 16.875-37.252-.348-37.991-45.305-24.056-69.338 19.906-34.332 95.724-61.854 134.315-12.969z" fill="url(#paint2_linear_137_247)"/><path d="m207.887 238.042c9.523-16.96 21.551-12.969 30.572-24.941l5.541 1.899 44.075 30.525c-14.433 5.986-66.155 6.983-80.188-7.483z" fill="url(#paint3_linear_137_247)"/><path d="m341.701 318.852c4.411-2.394 0-34.918 11.026-41.901-1.304-6.372-18.748-4.29-32.227-8.951-9.451-3.268-14.412-13.995-21.399-15.492-6.639 36.914 14.033 58.363 42.6 66.344z" fill="url(#paint4_linear_137_247)"/><path d="m116.172 315.361c7.618-1.597 24.557 40.571 32.576 56.367 0 9.772-4.948 25.663-9.748 31.772l-14.809 7.636c-45.6075-39.408-17.541-93.78-8.019-95.775z" fill="url(#paint5_linear_137_247)"/><path d="m374.278 377.215c-.802 13.17-42.278 39.907-70.778 45.285-4.5.849-15.622-3.252-18.933-5.378-17.541-9.977-43.602-21.949-51.621-39.907 65.153-44.894 116.273-20.452 141.332 0z" fill="url(#paint6_linear_137_247)"/><g fill="#191818"><path d="m296.535 184.178c22.075-41.199 123.025-77.248 172.465 0-14.564 1.526-47.256 11.673-61.513 40.055-10.923-20.027 13.376-41.056 35.452-46.549-38.591-48.885-114.409-21.363-134.315 12.969-13.935 24.033-13.196 68.99 24.056 69.338 32.193 0 44.338-16.875 63.884-16.875-5.519 15.564-27.594 30.9-59.787 33.188-45.071 3.205-60.938-46.349-40.242-92.126z"/><path d="m234.761 169.262c-10.577 32.409 16.094 81.022 59.204 75.887-3.679 0-1.533-3.325 0-9.601-30.349 5.934-59.204-38.598-46.485-63.85 10.346-20.541 41.19-55.21 33.579-97.7706 18.853 2.2823 45.669 46.2656 68.661 46.2656-18.393-51.5805-73.574-62.9539-98.865-62.1932 38.511 37.658-3.246 71.8922-16.094 111.2622z"/><path d="m302.609 43.0094c77.421-.9108 103.075 64.8926 91.622 100.7536h-16.606c10.994-61.9318-34.74-84.6255-58.982-88.2308 1.374 9.5158-2.863 18.7847-8.589 20.4924 0-12.7508-4.963-27.323-7.445-33.0152z"/><path d="m469 143.842c-8.233-32.571-40.595-55.0501-81.19-51.6094l2.858 11.4684c34.764-1.376 55.271 21.6 61.179 33.26-11.648.918-28.016 6.881-20.012 17.777 4.117-6.423 26.492-9.94 37.165-10.896z"/><path d="m347.715 328.33c-61.344-9.178-63.649-59.028-57.134-82.805l8.52 6.983c-6.639 36.914 14.033 58.363 42.6 66.344 4.41-2.394 0-34.918 11.026-41.901 4.811 14.765-1.002 44.063-5.012 51.379z"/><path d="m191.85 241.035c27.665 28.334 78.016 22.115 99.734 15.464l6.014-15.464-9.523 4.49c-14.433 5.986-66.155 6.983-80.188-7.483 9.523-16.96 21.551-12.969 30.572-24.941-25.66-4.39-41.765 16.794-46.609 27.934z"/><path d="m43 469c108.254-41.902 221.52-164.614 251.089-203.522v-14.965l-10.023 4.489c-136.821 175.089-228.5366 178.082-241.066 213.998z"/><path d="m390.315 377.215c-60.943-65.047-137.656-32.091-168.395-7.482 6.014 59.361 58.638 46.528 62.647 47.389-17.541-9.977-43.602-21.949-51.621-39.907 65.153-44.894 116.273-20.452 141.332 0-.802 13.17-42.278 39.907-70.778 45.285 47.5 12.5 77.126-28.158 86.815-45.285z"/><path d="m115.169 298.899c-51.721 49.484-21.5502 100.764 0 120.218l9.022-7.981c-45.6073-39.408-17.541-93.78-8.019-95.775 7.618-1.597 24.557 40.571 32.576 56.367 9.222-35.117-18.543-63.185-33.579-72.829z"/><path d="m183.831 378.213c8.419-3.991 30.571-.332 40.595 1.995l3.007-11.971c-7.217-5.188-25.059-4.49-33.078-3.492z"/></g></svg>