<svg id="Layer_1" enable-background="new 0 0 307.56 307.56" height="512" viewBox="0 0 307.56 307.56" width="512" xmlns="http://www.w3.org/2000/svg"><g><g><g><path d="m151.6 219.97c13.51-6.9 26.15-15.88 37.01-27.25 7.84-8.21 14.53-17.24 17.56-28.36 1.19-4.36 1.36-9.02 1.69-13.57.07-.91-1.02-2.29-1.94-2.8-1.33-.74-2.56.08-3.34 1.39-1.05 1.77-2.09 3.55-3.2 5.28-12.5 19.36-29.86 31.72-52.56 36.23-18.46 3.66-36.97 2.81-55.43-.09-16.37-2.57-31.34-9.38-46.46-15.69-1.47-.61-2.93-1.47-4.38-.05-1.49 1.46-.83 3.03-.13 4.6 2.7 6.06 6.37 11.49 10.98 16.22 17.44 17.89 39 27.11 63.56 29.75 12.49 1.35 24.64-.07 36.64-5.66zm10.05-41.97c11.21-5.09 21.28-11.85 29.49-21.1 15.03-16.94 19.49-36.08 10.99-57.44-6.23-15.65-16.8-28.01-30.62-37.51-12.55-8.63-26.27-13.53-41.79-11.84-2.19.24-4.42.58-6.5 1.26-1.01.33-2.21 1.45-2.44 2.42-.2.83.8 2.01 1.42 2.92.33.49 1 .75 1.51 1.13 14.17 10.53 28.04 21.4 38.82 35.63 5.82 7.69 11.14 15.7 13.24 25.25 4.08 18.55-2.77 34.02-14.37 47.9-2.98 3.56-6.59 6.59-9.9 9.87-1.14 1.13-1.53 2.46-.55 3.85.96 1.35 2.33 1.54 3.8.87 2.31-1.05 4.6-2.13 6.9-3.21zm-127.8-27.64c1.75 2.63 3.33 5.39 5.27 7.87 8.45 10.79 19.68 17.71 32.23 22.65 11.56 4.55 23.52 6.89 36.02 5.53 2.94-.32 3.71-2.11 1.92-4.54-.64-.87-1.52-1.63-2.44-2.19-2.69-1.66-5.48-3.17-8.2-4.79-4.75-2.84-9.74-5.37-14.14-8.67-10.34-7.74-15.22-18.96-18.47-31.01-3.78-14.01-2.84-28.05.22-42.05.74-3.4 1.8-6.74 2.43-10.16.19-1.04-.24-2.63-.99-3.29-.62-.55-2.28-.45-3.19-.02-1.77.83-3.45 1.96-4.97 3.19-13.7 11.07-22.55 25.3-26.96 42.27-2.21 8.45-2.31 16.91 1.27 25.21zm86.12-80.36c1.08-.5 2.15-1.01 3.23-1.5 2.56-1.18 2.98-2.73 1.36-5.09-4.94-7.2-13.47-10.74-22-8.81-10.91 2.46-18.76 9.17-24.41 18.55-7.89 13.11-10.42 27.54-9.92 42.61.32 9.91 2.01 19.56 7.43 28.1 3.13 4.93 6.75 9.54 10.11 14.32.93 1.32 1.93 2.41 3.68 1.89 1.89-.56 2.07-2.16 2.08-3.82.04-5.77.09-11.54.15-17.31.13-12.66.37-25.32 3.63-37.67 3.68-13.97 11.14-25.03 24.66-31.27zm41.57 37.15c.12-.09.25-.17.37-.26-3.98-6.45-7.72-13.06-12.01-19.29-3.75-5.44-8.44-10.16-14.9-12.39-2.06-.71-4.69-1.15-6.65-.49-8.44 2.83-15.49 7.91-20.88 15-1.51 1.99-2.27 4.63-3.01 7.08-.55 1.81.4 3.22 2.34 3.72 3.68.95 7.32 2.07 11.04 2.8 11.73 2.29 23.14 5.33 33.16 12.25 3.51 2.42 7.17 4.66 10.89 6.74.96.54 2.83.61 3.58.01.72-.57 1.01-2.45.66-3.47-1.34-3.95-3.03-7.8-4.59-11.7zm-21.68 73.41c1.33-.7 2.71-1.33 3.99-2.11 5.98-3.67 11.57-7.79 14.95-14.18 1.97-3.72.76-5.58-3.46-5.41-12.73.53-25.41.6-38.08-1.37-4.43-.69-9.17-.33-13.64.37-5.45.85-7.61 6.12-4.8 10.92.8 1.37 2.13 2.66 3.52 3.4 6.08 3.19 12.28 6.16 18.44 9.21 6.52 3.24 12.87 2.66 19.08-.83zm-38.26-72.42c-3.01 1.36-3.6 4.16-4.21 6.72-2.47 10.22-3.06 20.6-2.06 31.05.11 1.19 1.1 2.72 2.12 3.28 1.53.83 2.7-.46 3.68-1.74 5-6.59 10.82-12.28 17.84-16.77 4.38-2.8 8.72-5.74 12.73-9.04 6.26-5.15 5.39-9.28-2.13-12.44-6.49-2.73-13.24-2.75-20.05-2.23-2.65.2-5.28.77-7.92 1.17zm59.01 21.4c-1.29-2.57-3.81-5.01-7.08-6.65-2.14-1.07-3.77-.07-4.37 2.29-.91 3.52-1.98 6.99-2.98 10.48-1.05 3.64-2.33 7.23-3.07 10.93-.71 3.57.59 5.08 4.23 5.68 1.07.18 2.22.17 3.28-.01 8.6-1.49 14.25-13.54 9.99-22.72zm-22.97-7.46c-3.66 3.11-7.36 6.17-10.94 9.35-1.31 1.17-1.41 2.82.01 3.94 3.34 2.63 6.76 5.18 10.3 7.54 1.67 1.11 3.53.41 4.03-1.43 1.5-5.52 2.36-11.16 1.44-16.88-.5-2.99-1.85-3.51-4.84-2.52zm-6.72 31.27c2.15-1.06 2.35-3.4.33-5.08-3.03-2.52-6.21-4.87-9.3-7.32-1.47-1.17-2.92-1.1-4.31.03-2.57 2.09-5.16 4.16-7.61 6.38-2.86 2.61-2.41 4.63 1.3 5.98 1.39.5 2.92.93 4.38.91 4.64-.08 9.28-.39 13.92-.62.46-.02.92-.19 1.29-.28z" fill="#be1e2d"/></g></g><g fill="#006838"><path d="m197.71 197.23c5.5 5.65 11.48 10.28 18.55 13.36 12.58 5.49 24.83 4.34 36.78-2.05 4.28-2.29 8.56-4.58 12.91-6.73 8.64-4.28 17.8-6.98 27.21-8.92.57-.12 1.14-.26 2.18-.5-13.91-6.01-28.06-9.5-42.69-9.15-19.17.46-37.78 4.17-54.94 13.99z"/><path d="m190.48 202.29c-2.11 7.71-2.5 15.4-1.06 23.17 2.07 11.18 6.34 21.53 12 31.33 3.78 6.56 9.97 10.38 16.5 13.73 1.59.82 3.27 1.48 4.9 2.22.09-.2.18-.34.15-.36-3.53-3.51-5.49-7.88-6.38-12.63-1.17-6.29-2.05-12.64-2.87-18.98-1.19-9.18-2.88-18.25-7.25-26.51-1.59-3.01-3.83-5.78-6.19-8.26-2.54-2.69-6.21-3.8-9.8-3.71z"/><path d="m197.29 193.81c11.25-5.62 22.72-9.14 34.65-10.93 7.32-1.1 14.71-1.83 22.1-2.25 6.87-.39 13.55 1.4 20.15 3.07 5.67 1.44 11.25 3.24 16.87 4.87.2.06.43.03.82.04-10.45-8.6-21.09-16.4-34.68-18.94-11.07-2.07-22.06-2.89-33.04.27-12.51 3.61-21.29 11.54-26.87 23.87z"/><path d="m187.84 204c-5.21 2.62-8.98 6.14-11.37 11.06-2.29 4.72-2.97 9.74-2.51 14.87 1.08 12.11 5.05 23 14.23 31.47 8.1 7.47 17.98 11.11 28.74 12.7 1.89.28 3.8.4 5.79.26-.51-.22-1.04-.41-1.53-.68-4.07-2.18-8.25-4.2-12.18-6.61-6.55-4.03-10.36-10.37-13.62-17.04-5.02-10.26-8.28-21.04-9.15-32.46-.34-4.48-.03-8.92 1.6-13.57z"/></g></g></svg>