<svg fill="none" height="512" viewBox="0 0 512 512" width="512" xmlns="http://www.w3.org/2000/svg" xmlns:xlink="http://www.w3.org/1999/xlink"><linearGradient id="paint0_linear_61_4371" gradientUnits="userSpaceOnUse" x1="84.044" x2="214.021" y1="468.98" y2="344.384"><stop offset="0" stop-color="#358246"/><stop offset="1" stop-color="#014610" stop-opacity="0"/></linearGradient><linearGradient id="paint1_linear_61_4371" gradientUnits="userSpaceOnUse" x1="153.945" x2="479.089" y1="18.118" y2="434.24"><stop offset="0" stop-color="#ff2c42"/><stop offset=".0001" stop-color="#ff5668"/><stop offset="1" stop-color="#e50029"/></linearGradient><linearGradient id="paint2_linear_61_4371" gradientUnits="userSpaceOnUse" x1="236.569" x2="299.619" y1="62.499" y2="140.053"><stop offset="0" stop-color="#fa465c"/><stop offset=".0001" stop-color="#ff5668"/><stop offset="1" stop-color="#b20215"/></linearGradient><linearGradient id="lg1"><stop offset="0" stop-color="#b20215"/><stop offset="1" stop-color="#b20215" stop-opacity="0"/></linearGradient><linearGradient id="paint3_linear_61_4371" gradientUnits="userSpaceOnUse" x1="235.572" x2="219.896" xlink:href="#lg1" y1="93.498" y2="42.934"/><linearGradient id="paint4_linear_61_4371" gradientUnits="userSpaceOnUse" x1="232.083" x2="301.615" y1="123.496" y2="173.698"><stop offset="0" stop-color="#ff7c84"/><stop offset="1" stop-color="#e50029"/></linearGradient><linearGradient id="paint5_linear_61_4371" gradientUnits="userSpaceOnUse" x1="260.494" x2="213.484" y1="146.495" y2="72.764"><stop offset="0" stop-color="#b20215"/><stop offset=".301374" stop-color="#b20215" stop-opacity=".352"/><stop offset="1" stop-color="#b20215" stop-opacity="0"/></linearGradient><linearGradient id="paint6_linear_61_4371" gradientUnits="userSpaceOnUse" x1="299.373" x2="285.335" xlink:href="#lg1" y1="181.493" y2="134.447"/><linearGradient id="paint7_linear_61_4371" gradientUnits="userSpaceOnUse" x1="376.632" x2="336.143" xlink:href="#lg1" y1="149.995" y2="123.383"/><linearGradient id="paint8_linear_61_4371" gradientUnits="userSpaceOnUse" x1="304.856" x2="324.164" xlink:href="#lg1" y1="284.989" y2="243.891"/><linearGradient id="paint9_linear_61_4371" gradientUnits="userSpaceOnUse" x1="338.75" x2="368.748" y1="195.493" y2="198.354"><stop offset="0" stop-color="#b20215"/><stop offset="1" stop-color="#f22c49" stop-opacity="0"/></linearGradient><linearGradient id="paint10_linear_61_4371" gradientUnits="userSpaceOnUse" x1="302.463" x2="294.448" xlink:href="#lg1" y1="177.282" y2="154.263"/><linearGradient id="paint11_linear_61_4371" gradientUnits="userSpaceOnUse" x1="300.37" x2="276.294" xlink:href="#lg1" y1="270.489" y2="175.691"/><linearGradient id="paint12_linear_61_4371" gradientUnits="userSpaceOnUse" x1="281.927" x2="312.525" xlink:href="#lg1" y1="238.49" y2="182.825"/><linearGradient id="paint13_linear_61_4371" gradientUnits="userSpaceOnUse" x1="211.148" x2="184.594" y1="58" y2="118.937"><stop offset="0" stop-color="#fff"/><stop offset="1" stop-color="#fff" stop-opacity="0"/></linearGradient><linearGradient id="lg2"><stop offset="0" stop-color="#b20215"/><stop offset="1" stop-color="#f53650" stop-opacity="0"/></linearGradient><linearGradient id="paint14_linear_61_4371" gradientUnits="userSpaceOnUse" x1="233.578" x2="259.407" xlink:href="#lg2" y1="273.989" y2="243.745"/><linearGradient id="paint15_linear_61_4371" gradientUnits="userSpaceOnUse" x1="259.497" x2="242.476" xlink:href="#lg2" y1="161.495" y2="189.526"/><linearGradient id="paint16_linear_61_4371" gradientUnits="userSpaceOnUse" x1="284.42" x2="261.981" xlink:href="#lg1" y1="283.489" y2="251.363"/><linearGradient id="paint17_linear_61_4371" gradientUnits="userSpaceOnUse" x1="151.833" x2="168.856" y1="236.991" y2="209.038"><stop offset="0" stop-color="#c60115"/><stop offset="1" stop-color="#fc5264"/></linearGradient><linearGradient id="paint18_linear_61_4371" gradientUnits="userSpaceOnUse" x1="189.216" x2="152.828" y1="192.993" y2="190.011"><stop offset="0" stop-color="#c60115"/><stop offset="1" stop-color="#fc5264" stop-opacity="0"/></linearGradient><linearGradient id="paint19_linear_61_4371" gradientUnits="userSpaceOnUse" x1="227.098" x2="225.594" y1="378.484" y2="400.482"><stop offset="0" stop-color="#358246"/><stop offset="1" stop-color="#0e531d"/></linearGradient><linearGradient id="paint20_linear_61_4371" gradientUnits="userSpaceOnUse" x1="196.194" x2="196.494" y1="22.501" y2="90.998"><stop offset="0" stop-color="#f8c6cc"/><stop offset=".86831" stop-color="#f8c6cc" stop-opacity="0"/></linearGradient><path clip-rule="evenodd" d="m199.417 322.304c7.536 8.062 14.47 18.385 16.592 22.195l-1.747.973c-2.048-3.677-8.888-13.866-16.306-21.803z" fill="#206930" fill-rule="evenodd"/><path d="m193.789 354.224c38.006-38.777 55.9-87.582 65.204-118.365 1.433-4.739 6.677-7.179 11.181-5.148 3.681 1.66 5.594 5.775 4.441 9.651-9.216 30.962-26.94 80.88-65.877 120.605-24.243 24.735-54.948 71.429-68.37 102.769-1.87 4.368-6.936 6.486-11.261 4.535-3.914-1.765-5.814-6.245-4.143-10.207 13.148-31.174 44.303-78.821 68.825-103.84z" fill="#358246"/><path d="m193.789 354.224c38.006-38.777 55.9-87.582 65.204-118.365 1.433-4.739 6.677-7.179 11.181-5.148 3.681 1.66 5.594 5.775 4.441 9.651-9.216 30.962-26.94 80.88-65.877 120.605-24.243 24.735-54.948 71.429-68.37 102.769-1.87 4.368-6.936 6.486-11.261 4.535-3.914-1.765-5.814-6.245-4.143-10.207 13.148-31.174 44.303-78.821 68.825-103.84z" fill="url(#paint0_linear_61_4371)"/><path d="m167.158 113.72c-14.328-24.1449-4.585-35.6424 3.439-27.5942 1.685 1.6909 5.117 4.9043 9.725 9.1017-4.256-15.2665-4.462-38.6748 21.223-40.7195 31.163-2.4808 41.406 6.6007 66.104 2.8506-2.131-6.0051-1.383-13.9689 12.985-14.3481 21.779-.5749 35.929 22.738 65.335 27.5938 40.424 6.675 34.675 41.8537 16.157 59.8777 1.715.656 3.047 1.569 3.902 2.783 1.881 2.673 1.19 5.259-1.333 7.689 4.93 4.395 3.668-1.239 13.378-.076 38.399 4.599 38.972 39.092-19.486 89.68-25.976 22.48-43.522 73.318-75.541 53.398-5.061 3.257-11.397 5.099-19.032 5.099-12.42 0-27.75-4.611-42.557-15.1-34.296 16.492-42.216-32.118-68.044-54.469-58.4579-50.589-57.8847-85.081-19.486-89.68 20.732-2.484 9.066-10.303 32.895-11.146.099-1.633.211-3.28.336-4.94z" fill="url(#paint1_linear_61_4371)"/><path d="m248.549 92.134c-3.569-2.5787-6.855-4.7662-9.879-6.6133-.37-6.9354 5.362-13.1405 21.905-14.9163.868-.0932 1.75-.162 2.642-.2074 26.767-1.362 63.185 18.3575 47.302 32.39-3.152 2.785-8.364 5.345-16.121 7.473-10.894-10.5375-20.732-9.778-30.948-11.8318-4.832-.9713-9.748-2.5717-14.901-6.2942z" fill="url(#paint2_linear_61_4371)"/><path d="m238.67 85.5209c-22.219-13.5745-30.266-8.7642-32.541-5.7224-5.203 6.9596 1.952 28.8945 9.301 46.3175-13.351-11.387-26.354-22.913-35.109-30.8882-4.256-15.2665-4.461-38.6748 21.224-40.7195 31.162-2.4808 41.406 6.6007 66.104 2.8506.453 1.2767 1.036 2.4649 1.646 3.4729l5.156 9.2258c-4.391-.049-9.022.1235-13.876.547-16.543 1.7758-22.275 7.9809-21.905 14.9163z" fill="url(#paint3_linear_61_4371)"/><path d="m294.398 110.26c7.757-2.128 12.969-4.688 16.121-7.473 15.883-14.0325-20.535-33.752-47.302-32.39-.873.0608-1.754.1299-2.642.2074.869-.0932 1.75-.162 2.642-.2074 3.899-.2718 7.646-.3796 11.234-.3396 56.273.6273 73.298 37.6166 19.947 48.5916-20.476 4.212-40.754 22.164-50.175 31.144-2.518-1.964-5.155-4.062-7.871-6.257 10.326-9.616 35.679-27.141 58.046-33.276z" fill="url(#paint4_linear_61_4371)"/><path d="m238.67 85.5209c-22.219-13.5745-30.266-8.7642-32.541-5.7224-5.203 6.9595 1.952 28.8945 9.301 46.3175 7.069 6.029 14.236 12.018 20.922 17.42 10.326-9.615 35.679-27.14 58.046-33.276-10.894-10.5374-20.732-9.778-30.948-11.8317-4.832-.9712-9.748-2.5716-14.901-6.2941-3.569-2.5787-6.855-4.7662-9.879-6.6133z" fill="url(#paint5_linear_61_4371)"/><path d="m345.969 70.6043c-29.406-4.8558-43.557-28.1687-65.335-27.5938-14.368.3792-15.116 8.343-12.985 14.3481.453 1.2767 1.036 2.4649 1.646 3.4729l5.156 9.2258c56.273.6273 73.298 37.6167 19.947 48.5917-20.476 4.212-40.754 22.164-50.175 31.144 2.742 2.139 5.344 4.118 7.756 5.892 6.521 4.797 12.336 11.214 17.373 18.183 6.392-11.733 19.464-30.721 33.06-34.854 16.563-5.034 47.629-13.155 59.714-8.532 18.518-18.024 24.266-53.2027-16.157-59.8777z" fill="url(#paint6_linear_61_4371)"/><path d="m362.126 130.482c18.518-18.024 24.266-53.2024-16.157-59.8775-6.56 19.9593-19.78 60.3405-20.178 62.1905 14.089-3.151 28.851-5.175 36.335-2.313z" fill="url(#paint7_linear_61_4371)"/><path d="m358.587 230.559c58.458-50.589 57.885-85.081 19.486-89.68-9.71-1.163-8.448 4.471-13.378.075-2.597 2.5-7.133 4.835-12.806 6.926-1.048 10.99-1.765 26.678-2.481 49.197-1.305 41.005-39.15 70.769-60.813 82.228-1.64 1.766-3.489 3.326-5.549 4.652 32.019 19.919 49.565-30.919 75.541-53.398z" fill="url(#paint8_linear_61_4371)"/><path d="m349.408 197.077c-1.305 41.005-39.15 70.769-60.813 82.228-1.64 1.766-3.489 3.326-5.549 4.652 32.019 19.919 49.565-30.919 75.541-53.398l19.486-89.68c-9.71-1.163-8.448 4.471-13.378.075-2.597 2.5-7.133 4.835-12.806 6.926-1.048 10.99-1.765 26.678-2.481 49.197z" fill="url(#paint9_linear_61_4371)"/><path d="m319.606 155.686c-19.007 2.965-37.203 16.892-45.627 25.06-1.46-2.326-3.003-4.631-4.627-6.878 6.392-11.733 19.464-30.721 33.061-34.854 16.562-5.034 47.628-13.154 59.713-8.531 1.715.656 3.047 1.568 3.902 2.783 1.881 2.672 1.19 5.258-1.333 7.688-2.597 2.5-7.133 4.834-12.806 6.926-8.977 3.311-20.801 6.014-32.283 7.806z" fill="url(#paint10_linear_61_4371)"/><path d="m349.408 197.076c-1.305 41.005-39.15 70.769-60.813 82.228 12.47-13.43 12.816-38.751 1.782-63.257-2.446-8.03-8.062-22.018-16.398-35.302 8.424-8.168 26.62-22.094 45.627-25.06 11.482-1.791 23.306-4.495 32.283-7.805-1.048 10.99-1.765 26.678-2.481 49.196z" fill="url(#paint11_linear_61_4371)"/><path d="m167.158 113.719c17.193 35.642 94.483 38.501 123.219 102.327-2.446-8.029-8.063-22.018-16.398-35.301-1.46-2.326-3.003-4.63-4.627-6.877-5.037-6.969-10.852-13.386-17.373-18.183-2.412-1.774-5.014-3.754-7.756-5.892-2.518-1.965-5.155-4.062-7.872-6.257-6.685-5.402-13.852-11.392-20.921-17.421-13.351-11.386-26.354-22.913-35.109-30.888-4.608-4.1974-8.039-7.4107-9.724-9.1016-8.024-8.0482-17.767 3.4493-3.439 27.5936z" fill="url(#paint12_linear_61_4371)"/><path d="m168.78 90.998c20.935 17.333 62.804 52.698 62.804 55.497 0 3.5-64.798-25.998-62.804-55.497z" fill="url(#paint13_linear_61_4371)"/><path d="m167.158 113.72c17.193 35.642 94.483 38.5 123.219 102.327 11.033 24.506 10.688 49.827-1.782 63.258-1.64 1.765-3.489 3.326-5.549 4.651-5.061 3.257-11.397 5.1-19.032 5.1-12.42 0-27.75-4.612-42.557-15.101-34.296 16.492-42.216-32.118-68.044-54.469-58.4579-50.589-57.8847-85.081-19.486-89.68 20.732-2.483 9.066-10.303 32.895-11.146.099-1.633.211-3.28.336-4.94z" fill="url(#paint14_linear_61_4371)"/><path d="m167.158 113.72c17.193 35.642 94.483 38.5 123.219 102.327l-124.123-72.552c-.138-7.9.04-16.174.568-24.835.099-1.633.211-3.28.336-4.94z" fill="url(#paint15_linear_61_4371)"/><path d="m221.457 273.955c14.807 10.489 30.136 15.101 42.557 15.101 7.635 0 13.971-1.843 19.032-5.1 2.06-1.325 3.909-2.886 5.549-4.651 12.47-13.431 12.815-38.752 1.782-63.258l-75.945 52.442c2.319 1.975 4.665 3.795 7.025 5.466z" fill="url(#paint16_linear_61_4371)"/><path d="m153.413 219.485c-58.4579-50.588-57.8847-85.081-19.486-89.679 20.732-2.484 9.066-10.303 32.895-11.146-5.203 85.419 23.568 133.291 54.635 155.295-34.296 16.492-42.216-32.118-68.044-54.47z" fill="url(#paint17_linear_61_4371)"/><path d="m166.822 118.66c-5.203 85.419 23.568 133.291 54.635 155.295-34.296 16.492-42.216-32.118-68.044-54.47-4.016-30.333-11.749-91.13-10.552-91.649 8.599-3.297 4.777-8.498 23.961-9.176z" fill="url(#paint18_linear_61_4371)"/><path d="m111.458 261.093c17.061-5.945 53.545-4.492 68.244 14.533 17.748 22.971 18.196 42.245 25.97 54.247.29.419.573.833.85 1.241-55.711-6.342-86.589-49.323-95.064-70.021z" fill="#358246"/><path d="m303.689 379.654c-9.838-15.251-39.568-36.706-62.857-30.827-28.12 7.098-40.298 22-53.806 26.637-.486.15-.964.301-1.432.451 47.926 29.515 98.699 14.791 118.095 3.739z" fill="#358246"/><path d="m185.594 375.915c47.926 29.515 98.699 14.791 118.095 3.739-.782-1.213-1.691-2.465-2.711-3.739-23.041 9.944-79.788 1.031-105.282-4.668-3.426 2.047-6.704 3.697-10.102 4.668z" fill="url(#paint19_linear_61_4371)"/><path d="m188.219 90.9977c-.664-8.8329.898-26.8987 12.461-28.4987 14.455-1.9999-12.959 5.4998-12.461 28.4987z" fill="url(#paint20_linear_61_4371)"/></svg>