<svg xmlns="http://www.w3.org/2000/svg" style="display: none;">
  <symbol id="crown" viewBox="0 0 64 64"><g id="Layer_4" data-name="Layer 4"><path d="m449.989 346.565s36.732-40.22 23.092-106.158c0 0-13.321-61.182-85.665-61.476 0 0-62.654-62.784-118.545 6.374l.946-31.46s.319-6.784-10.836-10.29c0 0-2.549-19.121 19.441-22.627 0 0 14.66 4.143 14.022 15.935 0 0 18.485-20.4-7.33-33.463a25.08 25.08 0 0 0 -17.42 0s15.508-24.54-4.57-54.179l-11.874-23.9s-11.132 21.594-17.161 26.133-22.227 29.639-1.854 51.948c0 0-28.07-8.924-28.707 17.847 0 0 34.139-7.914 38.263 23.132 0 0-17.548-.186-11.811 34.87 0 0-63.739-61.143-122.061 3.689 0 0-47.167-14.527-73.619 39.015 0 0-32.825 72.346 16.254 122.063l-8.924 7.412s23.78 14.894 24.479 47.4c0 0-5.038 20.4 15.358 22.627l22.457 56.2h310.712l2.248-57.3s14.919 2.052 16.469-17.07 2.409-38.881 24.765-50.035c0 .006-.371-4.137-8.129-6.687zm-364.099-73.593-14.856 73.565s-30.824-31.967-27.2-82.279c3.805-52.85 49.243-56.274 49.243-56.274zm25.939-33.482s-2.408-29.82 30.553-49.223 82.827-1.179 90.85 49.223c0 0-51.858-45.543-121.403 0zm277.522 0c-69.546-45.543-121.4 0-121.4 0 8.023-50.4 57.887-68.625 90.849-49.223s30.551 49.223 30.551 49.223zm40.794 107.047-14.856-73.565-7.189-64.988s45.438 3.424 49.243 56.274c3.626 50.312-27.198 82.279-27.198 82.279z" fill="#ffda76"/><path d="m115.1 330.99a40.58 40.58 0 0 1 10.148-8.929c3.471-2.148 7.316-3.806 10.246-6.648 5.293-5.133 6.611-13.335 5.177-20.567s-5.215-13.749-8.957-20.1-7.563-12.837-9.093-20.049c-1.51-7.118-.693-14.493.178-21.723l-.154.082c-4.607 12.015-9.481 24.075-16.954 34.546-5.893 8.258-13.622 15.509-22.718 19.813l-7.073 35.035a37.454 37.454 0 0 0 13.293 14.476c5.648 3.493 13.193 5.336 18.8 1.77 2.959-1.887 4.894-4.977 7.107-7.706z" fill="#f48a4e"/><path d="m159.806 153.578a34.564 34.564 0 0 1 5.278 15.921 34.044 34.044 0 0 1 -1.969 13.682 61.433 61.433 0 0 1 54 20.709 26.357 26.357 0 0 0 5.242-11.7c1.195-6.4.5-12.963-.36-19.433-11.711-8.57-35.127-22.235-62.191-19.179z" fill="#f48a4e"/><path d="m359.062 159.98a19.673 19.673 0 0 0 1.976 8.728c1.37 2.775 3.406 5.271 4.133 8.28 1.191 4.931-1.554 10.183-5.61 13.229-.131.1-.271.179-.4.273 11.564 6.89 18.717 15.059 23.139 22.737a20.04 20.04 0 0 0 10.148-6.21c4.269-4.836 6.34-11.261 7.236-17.65a51.291 51.291 0 0 0 .452-9.714 117.789 117.789 0 0 0 -12.716-.722 104.859 104.859 0 0 0 -28.358-18.951z" fill="#f48a4e"/><path d="m238.366 296.586c-4.844 2.416-9.5 7.54-7.745 12.661l.914 4c4.8-4.014 12.823-1.972 16.348 3.194s3.136 12.258.489 17.925c-.6 1.286-1.327 2.677-.972 4.052a8.96 8.96 0 0 0 1.831 2.787c1.782 2.441 1.879 5.684 1.907 8.706l.426 46.3c.033 3.552.043 7.224-1.359 10.487-2.967 6.906-11.04 9.771-18.248 11.9 7.425 3.214 15.416 6.5 23.365 4.986 3.316-.631 6.425-2.076 9.715-2.833 4.322-1 8.817-.777 13.25-.62a447.766 447.766 0 0 0 48.213-.884 11.251 11.251 0 0 0 5.387-1.328c1.874-1.215 2.848-3.392 3.682-5.463 2.851-7.082 5.18-15.261 1.872-22.141-1.947-4.047-5.576-7-8.209-10.636-6.985-9.651-6.214-22.719-9.761-34.092-4.051-12.991-13.817-23.595-25.091-31.217s-24.083-12.6-36.772-17.522c-3.331-1.291-6.756-2.6-10.329-2.612a20.078 20.078 0 0 0 -8.913 2.35z" fill="#f48a4e"/><path d="m43.671 267.378c.047-1.036.086-2.068.161-3.12a77.137 77.137 0 0 1 3.4-18.186c-5.342-3.822-8.888-9.791-10.751-16.094a49.11 49.11 0 0 1 -1.7-8.982c-.163.32-.328.632-.489.957a142.76 142.76 0 0 0 -10.745 54.13 27.417 27.417 0 0 1 20.124-8.705z" fill="#fff"/><path d="m224.6 91.377a20.736 20.736 0 0 1 17.706-.588c8.032 3.611 13.243 12.311 13.544 21.111 1.8-7.924 3.562-16.466.423-23.962-2.513-6-7.92-10.437-13.88-13.049-4.355-1.908-9.1-2.988-13.119-5.537a15.566 15.566 0 0 1 -4.307-4.07 35.55 35.55 0 0 0 -.367 26.095z" fill="#fff"/><path d="m333.259 153.45c1.238 4.362.844 9.038-.174 13.457a49.515 49.515 0 0 1 -6.805 15.9 57.748 57.748 0 0 1 20.694 2.292c-3.218-9.405-3.592-18.651 2.473-22.9a44.215 44.215 0 0 1 6.231-3.669 76.868 76.868 0 0 0 -22.547-5.5c.043.146.089.283.128.42z" fill="#fff"/><path d="m456.51 291.026c-.129-.071-.249-.154-.376-.229-5.748 34.741-25.989 55.74-25.989 55.74l-12.154-60.187c-6.283 3.835-13.362 6.585-20.7 6.617-7.936.035-16.159-3.54-20.315-10.3l-7.737 12.157a24.96 24.96 0 0 0 3.119 30.069c3.741 3.8 8.606 6.244 12.935 9.355a50.262 50.262 0 0 1 18.821 26.743 90.088 90.088 0 0 1 46.076-17.912c.917-.084 1.84-.151 2.764-.212 5.524-7.409 17.215-25.715 21.522-52.665-5.559 3.021-12.476 3.844-17.966.824z" fill="#f48a4e"/><path d="m46.2 296.7a92.23 92.23 0 0 1 -14.471 19.7 91.081 91.081 0 0 0 18.825 27.614l-8.924 7.416s.325.206.88.6c.692-.6 1.388-1.2 2.1-1.778 4.647-3.793 10.307-7.036 16.283-6.522 2.414.207 5.526.638 7.161-.681a115.884 115.884 0 0 1 -21.854-46.349z" fill="#f48a4e"/><path d="m59.086 191.738c3.716 8.746 5.239 18.51 5.405 28.447a57.518 57.518 0 0 1 23.8-11.415q2.343-4.506 4.867-8.9c3.313-5.741 6.945-11.866 8.583-18.173a60.565 60.565 0 0 0 -42.655 10.041z" fill="#f48a4e"/><path d="m207.18 476.288c-4.155-6.517-.421-16.552 6.983-18.767-8.709-1.462-17.328-6.72-20.291-15.039s1.935-19.272 10.668-20.579l-4.621-.165a93.7 93.7 0 0 0 -73.667 34.087c-4.144 5.106-7.8 10.8-9.3 17.207a25.345 25.345 0 0 0 -.632 4.627h91.86a16.211 16.211 0 0 1 -1-1.371z" fill="#f48a4e"/><path d="m236.91 48.6c12.09 12.61 15.095 32.619 13.324 50.461-.641 6.464-1.765 12.991-.769 19.409s4.627 12.9 10.705 15.189c.073.027.147.047.219.073 2.073-5.267 6.914-11.031 18.033-12.8 0 0 14.66 4.143 14.022 15.935 0 0 18.485-20.4-7.33-33.463a25.08 25.08 0 0 0 -17.42 0s15.508-24.54-4.57-54.179l-11.874-23.9s-8.204 15.902-14.34 23.275z" fill="#f48a4e"/><path d="m250.766 219.787c.338 8.209.675 16.792-2.8 24.236s-12.128 13.177-19.887 10.477l-2.407 4.075c-2.847 4.57-1.878 10.474-.514 15.683 1.579 6.034 3.85 12.377 8.931 16 6.722 4.785 15.891 3.23 23.953 1.471 4.264-.93 8.676-1.926 12.163-4.552 5.184-3.9 7.31-10.593 8.828-16.9a226.459 226.459 0 0 0 5.8-41.323 80.9 80.9 0 0 0 -16.884 10.541c2.417-15.186 8.636-27.445 17.042-36.639-.383-10.612-1.267-21.231-2.5-31.8a112.279 112.279 0 0 0 -13.623 14.253l.946-31.46s.319-6.784-10.836-10.29a20.521 20.521 0 0 1 .207-5.426c-2.832.258-5.476 1.143-7.254 3.29-2.192 2.645-2.33 6.378-2.352 9.813q-.22 34.281 1.187 68.551z" fill="#f48a4e"/><path d="m199.924 373.961c.871-8.287-5.346-16.408-13.325-18.807s-16.992.409-23.093 6.084l-3.3 5.608a33.33 33.33 0 0 1 -9.113 52.747l30.247.086a31.645 31.645 0 0 1 3.92-21.592c4.878-8.187 13.667-14.646 14.664-24.126z" fill="#f48a4e"/><path d="m440.176 340.24c-1.874.293-3.777.622-5.662 1.029a65.878 65.878 0 0 1 -4.369 5.268l-.785-3.887a24.917 24.917 0 0 0 -10.818 6.5c-5.226 5.671-6.473 13.838-9.7 20.841a38.807 38.807 0 0 1 -18.72 18.761c-2.52 1.17-5.191 2.079-7.466 3.673s-4.162 4.077-4.15 6.856c.013 3.069 2.3 5.919 1.8 8.948a8.791 8.791 0 0 1 -2.6 4.39 33.557 33.557 0 0 1 -27.638 10.105l-2.452 1.24c-5.01 7.084-5.1 16.613-3.08 25.052s5.879 16.326 8.234 24.676c.369 1.31.7 2.637 1.032 3.965h60.835l2.248-57.3s14.919 2.052 16.469-17.07 2.409-38.881 24.765-50.035c0 0-.371-4.143-8.129-6.693a68.729 68.729 0 0 0 5.475-7.239 60.574 60.574 0 0 0 -15.289.92z" fill="#f48a4e"/><path d="m228.1 328.688 4.134 19.375-53.054 19.037s-52.478-18.938-60.452-71.266 25.417-71.107 25.417-71.107 42.859-17.1 73.757 7.317l12.957 8.368 8.755 49.42 26.131 1.019 10.964-53.488s30.468-32.413 80.734-12.636c0 0 35.437 10.806 25.942 60.143l-24.447 64.91s-48.838 32.266-79.738-3.616c0 0-5.072-13.456-11.506-31.895l-17.15-17.941z" fill="#ed588e"/><path d="m369.6 231.928a75.724 75.724 0 0 1 .793 22.782c-2.8 23.13-18.569 45.15-40.868 51.9s-49.617-4.82-57.341-26.8a47.4 47.4 0 0 1 -2.221-9.528l-4.215 20.562-26.131-1.019-8.755-49.42-12.962-8.366c-.093-.073-.187-.141-.279-.214 4.45 31.2-12.337 65.305-41.16 78.859-16.5 7.76-35.676 8.174-53.034 2.745 15.245 39.042 55.753 53.671 55.753 53.671l53.055-19.032-4.135-19.38 22.443-32.36 17.15 17.941c6.434 18.439 11.506 31.895 11.506 31.895 30.9 35.882 79.738 3.616 79.738 3.616l24.447-64.914c5.639-29.298-4.566-45.009-13.784-52.938z" fill="#b23669"/><path d="m224.724 436.881 25.276-16.518 26.671 18.44-21.872 16.431z" fill="#f469a2"/><path d="m98.423 439.828 34.331-19.465 30.299 19.465-34.595 18.919z" fill="#87ddaa"/><path d="m366.748 454.371c9.946-2.785 19.695-16.573 19.695-16.573l-18.5-15.261-27.053 16.585z" fill="#87ddaa"/><g fill="#fff"><circle cx="191.745" cy="439.828" r="10.545"/><circle cx="419.791" cy="438.454" r="9.172"/><circle cx="308.808" cy="438.803" r="10.983"/><path d="m32.3 314.682 8.746 20.854s-12.545 4.5-14.925-5.7 6.179-15.154 6.179-15.154z"/><path d="m23.742 274.09 1.958 24.61s-12.4-.248-12.707-11.3 10.749-13.31 10.749-13.31z"/><path d="m29.8 232.024-6.061 22.869s-11.848-3.254-8.817-15.4 14.878-7.469 14.878-7.469z"/><path d="m51.845 195.047-13.586 17.69a15.407 15.407 0 0 1 -1.459-16.807c4.851-9.643 15.045-.883 15.045-.883z"/><path d="m90.143 179.123-19.011 5.235s-1.929-11.572 11.3-16.807c-.003 0 9.089 1.928 7.711 11.572z"/><circle cx="98.423" cy="304.47" r="8.41"/><circle cx="85.494" cy="256.967" r="8.41"/><circle cx="93.075" cy="204.272" r="9.986"/><circle cx="131.006" cy="162.461" r="9.986"/><circle cx="184.908" cy="154.365" r="9.986"/><circle cx="250" cy="177.07" r="9.986"/><circle cx="249.6" cy="226.501" r="8.173"/><circle cx="249.964" cy="277.364" r="8.173"/><circle cx="315.224" cy="155.366" r="9.771"/><circle cx="368.863" cy="162.461" r="9.771"/><circle cx="405.603" cy="204.818" r="9.771"/><circle cx="412.162" cy="256.207" r="8.438"/><circle cx="401.269" cy="305.275" r="8.573"/></g><path d="m251.25 451.375v-12.441s15.889 2.435 8.878-12.045l16.543 11.911z" fill="#b23669"/><path d="m369.545 423.86c-.2-.043-.408-.092-.616-.121a.941.941 0 0 0 -.588.053.975.975 0 0 0 -.376.721 21.615 21.615 0 0 0 -.347 3.2c-.055 1.654.079 3.314-.072 4.961a14.878 14.878 0 0 1 -13.277 13.048 9.427 9.427 0 0 1 -2.383-.113l14.862 8.764a18.819 18.819 0 0 0 3.656-1.489l8.753-6.671a68.943 68.943 0 0 0 7.286-8.413z" fill="#48a06c"/><path d="m148.2 447.953 4.613-3.622c1.76-1.382 3.6-2.872 4.378-4.971a2.227 2.227 0 0 0 .157-1.264 2.552 2.552 0 0 0 -.71-1.107c-6.675-7.078-17.233-8.768-25.326-14.168l-.276 9.93a9.208 9.208 0 0 1 -.91 4.534c-1.585 2.646-5.209 3-8.293 3.058l-11.666.22-2.067.854a82.177 82.177 0 0 0 8.773 10.031l11.589 7.3z" fill="#48a06c"/><path d="m440.764 194.29a20.7 20.7 0 0 1 -3 12.2 14.466 14.466 0 0 1 -12.233 6.64 53.769 53.769 0 0 1 17.12 12.793 28.164 28.164 0 0 1 .832-3.717c1.48-4.933 4.818-9.59 9.669-11.323a12.969 12.969 0 0 1 4.515-.732 79.842 79.842 0 0 0 -16.903-15.861z" fill="#fff"/><path d="m92.064 390.843c-4.573-14.4-9.2-28.929-16.771-42 2.583 8.69-1.205 18.531-8.131 24.381a14.632 14.632 0 0 1 -5.727 3.15 59.476 59.476 0 0 1 3.557 11.84 18.074 18.074 0 0 1 3.085-2.036 20.319 20.319 0 0 1 23.987 4.665z" fill="#fff"/><path d="m106.606 424.293q6.126-.734 12.159-2.069a11.152 11.152 0 0 1 -2.456-10.024c.981-3.837 3.915-6.81 6.051-10.146a27.018 27.018 0 0 0 2.736-23.04c-1.411-4.079-3.8-8.628-1.691-12.393a31.963 31.963 0 0 0 1.782-2.788c1.171-2.721-.618-5.7-1.569-8.505-2.731-8.052 1.594-16.628 5.783-24.027l-4.2-1.556c-14.47 8.079-23.055 24.188-25.9 40.514s-.711 33.072 1.691 49.469c.224 1.529.559 3.238 1.841 4.1a5.534 5.534 0 0 0 3.773.465z" fill="#fff"/><path d="m285.338 477.659h26.2a8.936 8.936 0 0 1 -1.61-4.887c0-2.447.172-11.77 12.061-13.708l-37.56-2.23-.952 1.033c4.187 1.708 8.735 4.679 8.913 9.2.1 2.526-1.263 4.89-2.9 6.815a22.8 22.8 0 0 1 -4.152 3.777z" fill="#f48a4e"/></g><g id="Layer_5" fill="#3a3245" data-name="Layer 5"><path d="m128.154 352.574c1.772-4.211-4.72-6.451-6.3-2.317-1.841 4.148 4.852 6.522 6.3 2.317z"/><path d="m307.742 453.167c19.532 1.219 19.726-28.2.513-28.544-18.609 1.059-16.555 27.361-.513 28.544zm8.445-15.735c2.387 11.448-14.427 13.092-14.978 1.751-.449-9.009 12.591-12.654 14.978-1.751z"/><path d="m416.984 416.372c-.037-.015-.2-.027 0 0z"/><path d="m377.892 353.216c2.209-3.7-3.757-7.413-5.961-3.582-2.19 3.708 3.746 7.435 5.961 3.582z"/><path d="m483.691 273.223a16.124 16.124 0 0 0 -4.234-1.869 105.879 105.879 0 0 0 -1.018-14.019c15.948-6.9 10.264-30.791-7.264-28.7a102.89 102.89 0 0 0 -7.518-15.7c12.29-13.627-4.712-33.631-19.611-22.487a67.761 67.761 0 0 0 -12.8-7.748c2.833-18.354-23.2-25.282-28.773-7.388a105.366 105.366 0 0 0 -14.5-.257 90.212 90.212 0 0 0 -7.346-6.671c7.676-14.349-13.9-26.664-22.312-12.739a84.606 84.606 0 0 0 -30.071-5.267c-5.094-14.91-27.841-11.431-26.952 4.974-10.529 3.852-20.36 9.63-27.756 17.914-.44-12.266 4.4-27.767-10.851-32.407.522-5.08 1.919-10.513 6.229-13.679 10.029-6.788 22.018.514 18.812 12.546.493 2.663 3.952 2.824 5.44 1.072 19.459-13.993 5.265-45.558-17.755-41.9 19.446-29.512-16.541-50.814-22.3-77.68-.576-3.072-5.621-3.07-6.2 0-5.786 26.8-41.828 48.037-22.562 77.566-23.077-3.508-37.157 28.111-17.689 42.129 1.569 1.806 5.158 1.636 5.67-1.145-3.069-12.051 8.5-19.107 18.515-12.313 4.233 3.194 5.4 8.577 5.658 13.6-14.421 4.876-9.717 20.591-10.038 32.312-7.4-8.332-17.261-14.137-27.824-18 .782-16.426-21.821-19.9-26.978-4.979a84.62 84.62 0 0 0 -30.081 5.275c-8.279-13.952-29.936-1.613-22.3 12.735a89.944 89.944 0 0 0 -7.342 6.667 98.558 98.558 0 0 0 -14.5.338c-5.551-18.161-31.932-10.914-28.723 7.632a74.45 74.45 0 0 0 -12.706 7.565c-14.723-11.4-32.025 8.458-19.874 22.2a100.66 100.66 0 0 0 -7.763 15.781c-17.235-1.753-22.59 22.06-6.993 28.724a124.741 124.741 0 0 0 -.788 14.024c-16.586 4.418-13.32 28.557 3.485 29.371a119.834 119.834 0 0 0 3.979 13.132c-13.841 9.323-3.361 29.7 12.2 24.9a49.883 49.883 0 0 0 5.156 6.837c-3.979 1.381-14.914 5.433-7.535 10 19.992 7.953 24.178 29.517 25.056 48.7.245 8.72 3.163 17.546 13.39 18.414.121 1.208.264 2.414.338 3.625-12.769 4.255-12.709 23.386 1.077 25.779a13.612 13.612 0 0 1 -.595 2.681c-.044-.042-.448.454-.764.866a20.515 20.515 0 0 0 -10.251 4.359c-7.042 5.721-7.537 18.572 2.709 20.6 99.361-.539 272.842 1.845 359.467-.709 7.145-.349 12.181-7.544 9.629-14.227-2.337-5.967-8.421-9.111-14.331-9.94a2.027 2.027 0 0 1 -.125-3.928c12.686-3.45 11.93-21.494-.223-25.483.087-1.445.279-2.885.405-4.328 14.759-1.763 12.784-15.817 13.747-27.365 1.722-16.358 8.264-32.74 24.586-39.213 7.117-4.462-3.767-8.309-7.54-9.685a49.077 49.077 0 0 0 5.54-6.9c15.5 4.445 25.538-15.8 11.861-25a129.829 129.829 0 0 0 4.026-13.115c14.237-.613 19.961-19.621 7.811-27.477zm-63.488-4.45c9.9-5.505 8.357-21.379-2.732-24.5a114.961 114.961 0 0 0 -3.481-23.4 3.672 3.672 0 0 1 1.269-3.807l.034-.028a3.638 3.638 0 0 1 3.728-.461c49.346 21.515 37.52 90.314 9.872 126.315 7.063-24.546 3.58-51.219-8.693-74.119zm-18.321 24.261c-11.441-1.132-16.248 12.9-8.56 20.773-1.569 3.676-3.172 7.387-4.625 11.15-10.581 1.212 2.561-29.968 1.948-35.608 3.929-17.518 6.348-36.175 3.608-54.12a9.828 9.828 0 0 1 2.415-8.223 6.427 6.427 0 0 1 8.121-1.44c6.159 3.468 5.425 11.769 6.139 17.914-13.732 2.707-15.209 21.765-2.177 26.512a167.706 167.706 0 0 1 -6.869 23.042zm4.714 14.658c-4.115 8.074-13.087.648-10.029-5.947 3.638-5.909 12.823.181 10.033 5.947zm-.238-53.332a5.154 5.154 0 0 1 1.815-3.089c4.612-3.8 11.625.949 9.745 6.619-1.675 5.052-8.966 7.573-11.357-.642a6.248 6.248 0 0 1 -.203-2.888zm49.556-60.328a11.089 11.089 0 0 1 1.556.819c1.179 2.187.8 5.692-1.566 7.035a75.174 75.174 0 0 0 -7.041-7.407c2.362-.996 4.449-1.542 7.051-.447zm-1.135 16.385c4.055 6.072 9.891 14.211 6.064 21.546a5.989 5.989 0 0 1 -9.266 1.22c-13.141-31.866-35.773-27.552-36.941-49.423 15.864 3.907 30.091 12.421 40.143 26.657zm-39.149-39.228c5.8-.446 9.558 3.8 9.51 8.975a84.876 84.876 0 0 0 -16.358-4.111c1.751-2.116 3.009-4.569 6.848-4.864zm-17.37 31.641c2.761-8.7 14.992-6.675 14.163 2.444-.878 9.466-15.941 7.473-14.163-2.444zm-35.275-42.111c1.408-6.486 11.855-5.781 12.778.35-.408 4.041-6.091 8.574-10.218 6.792a7.126 7.126 0 0 1 -2.56-7.142zm-55.161-8.033c1.511-6.5 10.259-6.557 13.8-2.053 6.053 13.767-15.339 16.867-13.8 2.053zm-17.862 18.066c2.632-5.293 7.53-8.083 12.951-9.776 5.831 12.222 24.578 8.553 25.9-4.743a80.3 80.3 0 0 1 27.674 4.953c-1.177 10.6 11.9 18.4 20.338 11.611q1.421 1.166 2.78 2.386a21.893 21.893 0 0 1 6.336 9.484c1.307 4.058 1.26 8.164-3.321 9.872-4.484 1.671-8.2-1.119-11.873-3.5-20.977-19.758-53.008-22.386-77.408-7.247-8.648 1.254-5.739-9.201-3.377-13.04zm29.938 18.779c28.193-6.961 53.507 15.122 63.49 40.056-32.828-20.5-80.515-18.786-111.577 4.343 7.295-21.511 25.934-38.93 48.087-44.399zm29.376 152.556c-11.532 11.252-30.5 16.5-45.709 12.126-7.5-5.408-14.361-12.735-23.576-14.635 1.469-6.676 1.191-14.715-3.743-24.236a15.256 15.256 0 0 1 -1.662-6.534c-.748-23.289.576-37.067 8.146-59.531 5.538-17.157 22.658-26.033 39.917-26.643 10.592-1.4 21.272-.445 30.653 4.867 46.521 24.926 25.357 84.399-4.031 114.586zm-84.376 13.137c13.288-6.343 24.191 13.037 15.078 11.276-20.056-11.24-29.1 10.521-19.873 26.252 11.944 15.249 28.944-2.671 43.215-3.6 14.22-1.865 28.973 3.266 24.234 19.94-1.915 4.061-6.073 6.2-10.1 7q-23.76-.006-47.52-.009h-30.22c-4.868-1.57-8.809-4.263-8.919-10.395 1.9-11.5 13.413-9.118 12.349-27.282-.288-6.984-12.006-18.024-24.084-11.455a2.247 2.247 0 0 1 -3.228-2.572c1.881-7.233 9.164-13.2 19.195-9.156 2.44.984 4.932-.481 5.012-2.876.157-4.677-2.777-7.425-5.751-10.643-4.931-5.336-3.846-11.311.837-16.377 5.782-6.254 10.87-12.179 14.856-19.328 3.963 7.155 9.016 13.114 14.826 19.327 4.424 4.731 5.876 10.626 1.326 15.875-3.041 3.509-6.408 6.1-6.238 11.146a3.452 3.452 0 0 0 5.005 2.877zm-130.018 81.566c0-2.061-.083-9.9-.083-9.9s13.015 7.822 16.3 9.99c-.166.009-12.857-.02-16.217-.09zm15.084 4.947c-3.751 2.4-14.957 8.795-15.167 8.874.035-2.264.057-6.608.072-8.877 4.106.453 11.029.173 15.095.003zm-46.319-25.647c1.05-4.224-2.736-9.709 1.229-12.97 3.707-2.36 9.23-1.1 12.359-4.874 8.748-9.6 1.641-24.89-7.8-24.555a2 2 0 0 1 -1.068-3.54 13.614 13.614 0 0 1 10.742-2.85c4.171.767 5.96-5.209 1.775-6.437-9.915-4.269-.33-19.95 4.47-25.209 5.464 7 14.688 22.185 4.379 25.21-4.175 1.226-2.3 7.618 1.774 6.435 5.413-1.571 10.262.061 12.935 3.452a2 2 0 0 1 -1.512 3.229c-6.271.163-14.209 3.7-12.627 15.151.79 5.716 3.837 10.713 9.59 12.181 27.557 3.536 38.81-23.4 71.487-7.46 7.27 5.8 4.859 19.94-4.382 22.235zm-34.732-81.68a1.511 1.511 0 0 1 -2.777 1.064c-11.182-18.774-19.271-39.874-19.923-61.896-.712-22.932 12.986-48.312 34.7-57.095a3.672 3.672 0 0 1 3.678.524l.034.028a3.8 3.8 0 0 1 1.281 3.93 114.97 114.97 0 0 0 -3.456 23.307c-11.083 3.126-12.641 19-2.733 24.5-10.838 20.228-14.833 43.506-10.804 65.638zm32.7-24.6c-6.146 5.336-13.291-5.647-4.8-10.158 6.844-2.102 9.364 5.779 4.802 10.161zm4.98 3.994c7.689-7.879 2.9-21.912-8.557-20.764a167.838 167.838 0 0 1 -6.872-23.051c13.039-4.753 11.549-23.805-2.177-26.512.911-6.565-.167-15.542 6.011-19.624 4.748-2.66 8.791 2.272 10 6.33a25.218 25.218 0 0 1 .865 4.412c-2 12.635-1.358 25.725.409 38.482 1.614 9.784 3.332 19.421 5.6 29.027.837 3.206 7.689 24.772-.658 22.849-1.447-3.76-3.05-7.47-4.616-11.146zm-20.257-64.128c9.231 2.534 6.251 14.761-2.489 14.58-7.834-3.182-5.57-13.731 2.489-14.58zm112.371 188.974c.245 11.315-16.89 10.838-15.137-.614 1.255-8.977 15.178-9.173 15.137.614zm-34.393 14.514c3.18-4.06 4.7-9.023 7.386-13.374 1.789-3.044 7.358-9.353 5.551-1.346a13.664 13.664 0 0 0 14.924 14.723c10.972-.67 16.6-14.7 9.95-23.139a2.833 2.833 0 0 1 1.9-4.537c8.71-1.03 18.937-1.844 26.72-.3a1.3 1.3 0 0 1 .51 2.343c-4.044 2.849-11.981 8.432-12.363 8.643a3.221 3.221 0 0 0 0 5.51c5.013 3.027 26.705 13.094 27.818 13.64q-42.177 0-84.353-.046a17.863 17.863 0 0 0 1.957-2.117zm68.621-15.135a1.146 1.146 0 0 1 -.466-2.045 180.079 180.079 0 0 1 15.813-10.684 3.447 3.447 0 0 1 3.629.152c4.874 3.315 11.457 8.329 16.658 10.985-3.145.094-7.643.353-10.63.668-2.633.277-2.756 4.119 0 4.194s11.14.231 11.14.231c-4.347 2.3-11.4 4.467-15.858 6.557-.073-2.012-.407-13.107-1.323-16.478-.52-1.911-3.808-2.183-4.148 0l-.112 9.239s-9.726-1.848-14.703-2.819zm11.263-160.665c.039-7.428 11.325-7.428 11.363 0-.035 7.429-11.321 7.428-11.363 0zm-10.2-155.582a19.944 19.944 0 0 0 -14.581-3.138c-9.015 1.54-13.438-3.3-7.081-11.109 6-3.65 13.805-3 20.193.5 3.126 1.711 6.855-2.6 3.955-5.126-26.605-23.967 2.23-46.771 13.323-69.729 12.432 25.212 25.325 41.775 12.783 70.715a3.412 3.412 0 0 0 4.744 4.068c16.11-9.834 35.429 5.942 26.6 23.1-2.369-9.547-13.344-15.183-23.678-11.24-3 1.163-5.274 3-8.086 4.505a6.166 6.166 0 0 1 -9.1-5.541c.194-14.647.038-29.322.059-43.977.008-6.319.326-12.854-.833-19.066a2.462 2.462 0 0 0 -4.828 0c-1.754 12.988-.476 26.272-.851 39.353 0 6.425-.047 12.847.014 19.265a8.436 8.436 0 0 1 -12.628 7.42zm.909 29.105c3.8-4.319 9.926-4.287 15.235-4.147 7.677-.867 17.233 1.918 17.545 11.015-1.187 36.7-2.827 73.39-5.6 110.005a1.733 1.733 0 0 1 -2.951 1.1 13.2 13.2 0 0 0 -16.2-1.992 3.487 3.487 0 0 1 -5.339-2.07 3.112 3.112 0 0 1 -.06-.411c-.694-9.157-1.264-18.316-1.858-27.465-1.594-26.173-2.694-52.379-3.445-78.575a11.635 11.635 0 0 1 2.678-7.46zm-4.71 101.4c1.433 21.09 3.062 42.183 5.331 63.2-8.358 7.206-15.692 17.351-8.361 28.072-7.44-1.156-13.713 3.079-19.3 7.409-15.344 9.437-36.265 7.706-51.525-1.386-14.04-9.625-21.325-26.45-27.722-41.646-7.068-16.829-8.015-36.062-.982-53.156 8.253-19.684 28.121-34.522 49.63-32.146 18.172 2.3 50.351 8.147 52.93 29.655zm-2.1-18.367c-31.107-23.134-78.824-24.85-111.672-4.269 8.09-23.667 33.744-44.888 60.117-40.861 23.556 4.36 43.968 22.501 51.556 45.132zm-49.837-83.244c3.194-4.174 11.091-4.565 13.419.746.9 7.219-8.148 11.4-13.677 6.921a8.768 8.768 0 0 1 .26-7.665zm-53.034 7.771c3.138-3.32 10.015-3.3 11.585 1.818a7.031 7.031 0 0 1 -4.676 8.721c-7.077 1.901-9.983-6.104-6.907-10.537zm-2.128 14.347c8.416 6.786 21.56-1.013 20.319-11.6a80.276 80.276 0 0 1 27.666-4.959c1.328 13.267 20.086 16.975 25.935 4.746 5.414 1.694 10.314 4.483 12.941 9.774 2.228 3.732 5.37 13.97-3.132 13.088-23.228-13.88-52.606-13.383-73.78 3.982-5.8 3.454-10.3 8.494-16.173 11.6-7.368 3.836-8.518-5.729-6.41-10.854 2.627-6.388 7.234-11.554 12.634-15.777zm-29.016 24.363c12.84 1.374 3.4 22.061-7.827 10.979-1.673-5.016 2.625-10.794 7.827-10.979zm-10.5-25.982a5.178 5.178 0 0 1 -.649 6.745 83.95 83.95 0 0 0 -8.155 2.559c-.195-5.108 3.297-9.368 8.809-9.304zm-41.824 24.133c4.4 3.647.851 8.525-1.944 11.89-2.616-4.098-1.916-9.025 1.944-11.89zm27.448-5.94a68.57 68.57 0 0 1 13.52-5.2 1.863 1.863 0 0 1 2.331 2.06c-2.783 20.039-27.758 16.635-39.838 54.986-1.625 3.67-3.173 7.375-4.867 10.935-1.508 4.909-10.072 17.152-12.91 7.3 3.526-27.749 15.787-56.679 41.764-70.081zm-48.287 47.513c1.526-1.574 3.367-1.8 5.2-1.932a115.227 115.227 0 0 0 -3.8 15.693 8.719 8.719 0 0 1 -1.4-13.761zm-4.651 45.993c.866-2.753 2.664-3.75 4.513-4.674.13 5.343 1.253 10.612 1.7 15.834-4.796-1.249-7.983-5.548-6.213-11.16zm11.554 43.189c-.238-2.687 1.224-4.3 2.738-5.829a120.71 120.71 0 0 0 6.24 12.721c-4.432.516-8.502-1.542-8.978-6.892zm1.953-38.792c2.28-4.948 6.819-5.922 9.835 1.668 1.738 5.428 19.263 39.292 10.663 46.7a3.514 3.514 0 0 1 -5.229-.975 126.359 126.359 0 0 1 -15.981-39.664 12.351 12.351 0 0 1 .712-7.729zm39.949 119.3c-.778-19.972-4.179-43.452-23.379-54.219 13.117-5.811 26.87 1.17 32.026 14.278 3.38 8.34 4.456 17.246 6.55 25.884 2.381 8.085 9.188 14.89 9.176 23.573-9.299-.944-24.365 4.313-24.373-9.512zm60.125 44.8c-1.811-.854-13.007-9.766-13.007-9.766s7.176.3 8.4-.15c1.649-.6 2.581-3.4.557-4.265-1.439-.616-10.587-.575-12.132-.6.951-.805 14.212-9.506 16.179-10.245.003.007-.182 19.133.003 25.03zm125.269 17.841c-.691 3.752-4.516 5.256-7.888 5.4l-114.892-.03c-2.056-19.832 55.6-11.1 69.558-12.926q21.837.012 43.673.009c6.053-.002 10.51 2.328 9.549 7.547zm15.134-18.919c2.5-3.647 15.916-9.714 9.443-14.423-2.155-1.187-4.319-2.427-6.5-3.68a4.32 4.32 0 0 1 -.137-7.443c1.473-.845 21.671-2.724 46.633-2.077 12.351 1.1 13.432 33.255-.642 32.51-5.037.305-10.133.038-15.191.132q-16.509.01-33.018.006c-2.754-.888-2.308-3.248-.588-5.025zm60.16 21.7c-3.889 2.656-8.339 1.941-12.713 2.634q-20.787-.011-41.574-.015c-7.136-.794-7.051-6.991-3.17-11.4 2.5-1.914 6.1-1.4 9.106-1.489 15.4-.172 30.826-.029 46.234-.1 4.884 1.796 7.065 7.152 2.117 10.377zm33.634-42.986c.009.88.068 3.825.21 4.629.373 2.126 3.92 2.127 4.294 0a41.5 41.5 0 0 0 .2-5.466s11.442 7.712 12.754 8.838c-6.431.126-15.283.447-21.679.957-2.817.224-2.905 4.484 0 4.453 1.587-.017 3.178-.021 4.772-.025.121 1.378-.1 7.679-.113 7.671-5.151-2.366-17.1-10.287-17.1-10.287s11.682-8.343 16.662-10.765zm5.046 15.455a2.065 2.065 0 0 1 2.05-2.1c3.065-.028 7.039-.085 9.484-.2-2.824 2.777-8.048 6.729-11.581 7.909.099-1.271.079-3.793.047-5.604zm40.988 27.438c-3.63 5.6-48.348 5.6-48.348-3.45 0-10.262 27.106-6.924 37.019-6.924 11.726-.005 14.147 6.013 11.329 10.374zm.149-42.3a13.766 13.766 0 0 0 -1.731 15.849 10.857 10.857 0 0 1 -5.4 9.717c-5.974.02-27.323.062-32.024.07a55.635 55.635 0 0 0 19.555-13.986c3.357-3.92-3.348-6.891-5.574-9.275-.007-.269-4.171-9.286 11.116-9.286 1.02 0 9.539-.079 12.778-.12 4.066.7 3.636 4.289 1.28 7.031zm16.1 8c2.336 10.114-12.865 11.662-13.3 1.547-.641-8.52 11.62-9.627 13.301-1.547zm6.3-52.7c-1.771 8.019-1.786 16.249-2.334 24.384-1.212 7.089-7.171 7.983-13.311 7.089-18.018-.222-36.2-.3-54.264-.267-4.866-.532-10.733-.957-13.452-5.334-2.041-3.976.019-7.929 3.883-9.356 16.191 1.845 25.926-28.574 5.332-27.387a1.647 1.647 0 0 1 -1.47-2.555c3.083-4.529 7.473-4.914 11.4-4.192 4.144.762 5.921-5.177 1.763-6.4-9.835-4.033-.406-20.161 4.31-25.348 4.816 5.219 14.557 21.105 4.551 25.354-4.143 1.216-2.384 7.148 1.761 6.386 3.969-.73 9.9.064 11.749 4.759a1.637 1.637 0 0 1 -1.647 2.208c-6.828-.477-13.033 2.895-13.082 11.534.557 18.336 28.062 17.765 35.816 4.627 3.725-5.676 3.91-12.611 5.938-18.924 4.3-15.833 18.731-26.031 34.5-19.09-11.691 6.998-18.62 18.798-21.445 32.512zm34.815-77.426a123.978 123.978 0 0 1 -5.962 15.045c-3.183 4.861-7.391 9.135-10.678 3.474-2.274-4.668.821-10.419 1.91-15.047a95.9 95.9 0 0 0 6.086-27.122c1.941-7.273-2.021-17.395 4.721-22.618 17.056-6.646 6.634 39.031 3.921 46.267z"/><path d="m249.885 190.267c16.527-.3 16.525-24.858 0-25.151-16.527.296-16.524 24.857 0 25.151zm-6.467-13.467c.389-4.591 7.191-7.963 10.084-3.519 1.3 2.007 1.961 4.144.337 6.814-2.9 5.268-11.227 2.656-10.421-3.295z"/><path d="m249.885 216.515c-13.7.245-13.694 20.6 0 20.843 13.697-.246 13.695-20.6 0-20.843zm1.378 11.946c-2.313 1.749-6.461.582-6.261-2.5a5.016 5.016 0 0 1 7.285-3.385 4.192 4.192 0 0 1 -1.024 5.885z"/><path d="m252.123 331.761c-3.7-3.568-9.358 1.724-5.757 5.518 3.663 3.482 9.267-1.779 5.757-5.518z"/></g></symbol>
  <symbol id="crown-alt" viewBox="0 0 64 64"><path d="m71.648438 159.929688 48.136718-53.351563 69.226563 40.539063 133.964843-.007813 69.238282-40.53125 48.125 53.351563v66.25l-78.136719 106.574218-72.09375-133.21875-117.546875 25.078125-81.5 17.238281" fill="#e8a328"/><path d="m495.398438 441.75c0 19.519531-15.820313 35.339844-35.339844 35.339844h-408.128906c-9.757813 0-18.597657-3.960938-24.992188-10.355469s-10.34375-15.226563-10.34375-24.984375c0-19.507812 15.820312-35.339844 35.335938-35.339844h408.128906c9.757812 0 18.589844 3.960938 24.984375 10.355469s10.355469 15.234375 10.355469 24.984375zm0 0" fill="#cacadb"/><path d="m495.398438 441.75c0 19.519531-15.820313 35.339844-35.339844 35.339844h-303.636719c-9.761719 0-18.601563-3.960938-24.996094-10.355469s-10.34375-15.226563-10.34375-24.984375c0-19.507812 15.820313-35.339844 35.339844-35.339844h303.636719c9.757812 0 18.589844 3.960938 24.984375 10.355469s10.355469 15.234375 10.355469 24.984375zm0 0" fill="#e4e4ef"/><path d="m446.503906 278.003906c0 19.144532 11.777344 35.546875 28.484375 42.339844l-14.929687 86.066406h-408.128906l-14.929688-86.066406c16.707031-6.792969 28.484375-23.195312 28.484375-42.339844 0-24.585937-19.414063-44.636718-43.75-45.660156l-21.734375-125.277344 94.898438 70.011719 43.183593 31.855469 117.917969-143.140625 117.90625 143.140625 138.09375-101.867188-21.734375 125.273438c-24.34375 1.015625-43.761719 21.066406-43.761719 45.664062zm0 0" fill="#ffbf3e"/><path d="m127.476562 406.410156h-75.546874l-14.929688-86.066406c16.707031-6.792969 28.484375-23.199219 28.484375-42.339844 0-24.585937-19.414063-44.640625-43.75-45.664062l-21.734375-125.273438 94.898438 70.011719zm0 0" fill="#e8a328"/><path d="m301.703125 278c0 25.242188-20.464844 45.707031-45.707031 45.707031-25.242188 0-45.707032-20.464843-45.707032-45.707031s20.464844-45.703125 45.707032-45.703125c25.242187 0 45.707031 20.460937 45.707031 45.703125zm0 0" fill="#e8a328"/><path d="m296.488281 40.980469c0 18.074219-11.847656 33.394531-28.210937 38.585937-3.867188 1.234375-7.992188 1.902344-12.277344 1.902344-22.359375 0-40.488281-18.128906-40.488281-40.488281 0-22.363281 18.128906-40.480469 40.488281-40.480469 4.285156 0 8.410156.667969 12.277344 1.902344 16.363281 5.195312 28.210937 20.5 28.210937 38.578125zm0 0" fill="#e22b2b"/><path d="m296.488281 40.980469c0 18.074219-11.847656 33.394531-28.210937 38.585937-16.363282-5.191406-28.210938-20.511718-28.210938-38.585937 0-18.078125 11.847656-33.386719 28.210938-38.578125 16.363281 5.195312 28.210937 20.5 28.210937 38.578125zm0 0" fill="#f94141"/></symbol>
  <symbol id="crown-royal" viewBox="0 0 64 64"><g><g><path d="m108 87 5.075-38.062-4.292-2.273-14.331 12.815a13 13 0 0 1 -20.43-4.161l-7.045-14.987h-5.954l-7.045 14.987a13 13 0 0 1 -20.43 4.161l-14.331-12.815-4.292 2.273 5.075 38.062z" fill="#ffd92e"/><path d="m20 87h88v14h-88z" fill="#fcbe00"/><g fill="#fa465f"><circle cx="14" cy="42" r="7"/><circle cx="64" cy="34" r="7"/><circle cx="114" cy="42" r="7"/></g><path d="m70 74.901-6 5-6-5 6-11z" fill="#57beff"/></g><g><path d="m86.93 99.25h-4.971a1.75 1.75 0 0 0 0 3.5h4.971a1.75 1.75 0 0 0 0-3.5z"/><path d="m32.381 60.784a14.606 14.606 0 0 0 9.781 3.762 14.978 14.978 0 0 0 2.994-.3 14.617 14.617 0 0 0 10.406-8.178 1.75 1.75 0 0 0 -3.168-1.489 11.249 11.249 0 0 1 -17.68 3.6l-13.165-11.779a8.792 8.792 0 1 0 -2.335 2.607zm-18.381-13.534a5.25 5.25 0 1 1 5.25-5.25 5.256 5.256 0 0 1 -5.25 5.25z"/><path d="m122.75 42a8.75 8.75 0 1 0 -16.3 4.4l-13.165 11.775a11.25 11.25 0 0 1 -17.68-3.6l-6.38-13.575a8.75 8.75 0 1 0 -10.451 0l-2.514 5.351a1.75 1.75 0 1 0 3.168 1.489l2.513-5.34a8.44 8.44 0 0 0 4.118 0l6.378 13.569a14.621 14.621 0 0 0 10.407 8.178 14.978 14.978 0 0 0 2.994.3 14.6 14.6 0 0 0 9.78-3.762l13.168-11.775a8.689 8.689 0 0 0 2.348 1.248l-4.666 34.992h-84.936l-3.66-27.45a1.75 1.75 0 1 0 -3.469.463l3.847 28.851v13.886a1.75 1.75 0 0 0 1.75 1.75h52.843a1.75 1.75 0 1 0 0-3.5h-51.093v-10.5h84.5v10.5h-10.2a1.75 1.75 0 1 0 0 3.5h11.95a1.75 1.75 0 0 0 1.75-1.75v-13.886l4.853-36.4a8.754 8.754 0 0 0 8.147-8.714zm-64-8a5.25 5.25 0 1 1 5.25 5.25 5.256 5.256 0 0 1 -5.25-5.25zm50 8a5.25 5.25 0 1 1 5.25 5.25 5.256 5.256 0 0 1 -5.25-5.25z"/><path d="m64 81.65a1.748 1.748 0 0 0 1.12-.405l6-5a1.75 1.75 0 0 0 .416-2.182l-6-11a1.749 1.749 0 0 0 -3.072 0l-6 11a1.748 1.748 0 0 0 .416 2.182l6 5a1.746 1.746 0 0 0 1.12.405zm0-14.095 3.775 6.922-3.775 3.146-3.775-3.146z"/><path d="m45 73.15a1.75 1.75 0 0 0 0 3.5h4a1.75 1.75 0 0 0 0-3.5z"/><path d="m83 76.65a1.75 1.75 0 0 0 0-3.5h-4a1.75 1.75 0 0 0 0 3.5z"/></g></g></symbol>
  <symbol id="scepter" viewBox="0 0 64 64"><g><g><path d="m321.497 239.867-7.58-41.801-41.801-7.58-254.39 254.39c-13.636 13.636-13.636 35.745 0 49.381 13.636 13.636 35.745 13.636 49.381 0z" fill="#ffe177"/><path d="m31.724 502.804c-5.118-1.634-9.939-4.486-14.001-8.548-13.64-13.64-13.631-35.746 0-49.377l254.395-254.395 41.795 7.582 3.466 19.083-22.712-4.116-254.394 254.395c-9.569 9.569-12.43 23.316-8.549 35.376z" fill="#ffd15b"/><path d="m357.142 207.072-52.231-52.231c-9.45-9.45-24.771-9.45-34.22 0-9.45 9.45-9.45 24.771 0 34.22l52.231 52.231c9.45 9.45 24.771 9.45 34.22 0 9.45-9.449 9.45-24.77 0-34.22z" fill="#fff0ad"/><path d="m294.864 203.207c0 6.193 2.365 12.385 7.086 17.106l-31.251-31.251c-4.721-4.721-7.086-10.914-7.095-17.115 0-6.192 2.356-12.376 7.086-17.106 9.451-9.451 24.779-9.451 34.23 0l31.251 31.251c-9.451-9.451-24.77-9.442-34.221.009-4.73 4.73-7.086 10.914-7.086 17.106z" fill="#ffe177"/><path d="m357.142 207.072c66.678 0 117.108-19.774 132.717-59.398s-54.37-71.18-54.37-71.18-31.557-69.98-71.18-54.37-59.398 66.04-59.398 132.717" fill="#fe646f"/><path d="m330.395 180.319-25.483-25.483c0-66.672 19.778-117.105 59.397-132.713 23.091-9.099 43.437 10.868 56.4 29.121-9.325-5.66-19.805-8.016-30.917-3.638-39.619 15.608-59.397 66.041-59.397 132.713z" fill="#fd4755"/><path d="m113.997 450.218-52.231-52.231c-9.45-9.45-24.771-9.45-34.22 0-9.45 9.45-9.45 24.771 0 34.22l52.231 52.231c9.45 9.45 24.771 9.45 34.22 0 9.449-9.449 9.449-24.77 0-34.22z" fill="#fff0ad"/><path d="m51.717 446.354c0 6.193 2.365 12.385 7.086 17.106l-31.251-31.251c-4.721-4.721-7.086-10.913-7.095-17.115 0-6.193 2.365-12.385 7.086-17.106 9.451-9.451 24.779-9.451 34.23 0l31.251 31.251c-9.451-9.451-24.77-9.442-34.221.009-4.721 4.722-7.086 10.914-7.086 17.106z" fill="#ffe177"/><path d="m148.217 415.998-52.231-52.231c-9.45-9.45-24.771-9.45-34.22 0-9.45 9.45-9.45 24.771 0 34.22l52.231 52.231c9.45 9.45 24.771 9.45 34.22 0 9.45-9.45 9.45-24.771 0-34.22z" fill="#fff0ad"/><path d="m85.937 412.134c0 6.193 2.365 12.385 7.086 17.106l-31.251-31.251c-4.721-4.721-7.086-10.913-7.095-17.115 0-6.193 2.365-12.385 7.086-17.106 9.451-9.451 24.779-9.451 34.23 0l31.251 31.251c-9.451-9.451-24.77-9.442-34.221.009-4.72 4.721-7.085 10.913-7.086 17.106z" fill="#ffe177"/><path d="m466.36 45.623c-9.616-9.616-25.205-9.616-34.821 0l-117.923 117.923 34.821 34.821 117.923-117.923c9.616-9.615 9.616-25.205 0-34.821z" fill="#ffe177"/><path d="m472.124 54.686c-8.693-3.133-18.803-1.218-25.771 5.75l-117.918 117.918-14.813-14.813 117.917-117.918c9.614-9.614 25.212-9.614 34.826 0 2.645 2.645 4.568 5.759 5.759 9.063z" fill="#ffd15b"/><circle cx="482.157" cy="29.826" fill="#fe646f" r="22.34"/></g><path d="m503.258 50.926c11.634-11.635 11.634-30.565 0-42.2-11.637-11.635-30.567-11.635-42.202 0-6.144 6.144-9.04 14.323-8.695 22.388-9.322-.988-18.996 2.077-26.125 9.206l-2.462 2.462c-19.8-25.918-41.673-35.728-62.213-27.635-21.235 8.366-37.617 25.595-48.69 51.209-8.96 20.726-14.06 46.065-15.207 75.464-3.143-1.025-6.46-1.567-9.863-1.567-8.467 0-16.427 3.297-22.413 9.284-5.987 5.987-9.285 13.947-9.285 22.414 0 6.608 2.017 12.903 5.746 18.197l-104.396 104.404c-2.929 2.929-2.929 7.678.001 10.607 2.928 2.929 7.677 2.928 10.606 0l5.531-5.532 63.277 14.256-35.407 35.405-63.275-14.256 5.134-5.134c2.929-2.929 2.929-7.678 0-10.606-2.93-2.929-7.678-2.929-10.607 0l-35.635 35.636c-5.295-3.731-11.592-5.749-18.202-5.749-8.467 0-16.427 3.297-22.414 9.284-6.85 6.85-9.896 16.081-9.153 25.054-.878-.073-1.762-.117-2.653-.117-8.467 0-16.427 3.297-22.413 9.284-5.987 5.987-9.285 13.947-9.285 22.413 0 6.609 2.018 12.904 5.746 18.197l-6.283 6.282c-8.01 8.009-12.421 18.66-12.421 29.992s4.411 21.983 12.42 29.992c8.013 8.012 18.664 12.424 29.992 12.424s21.979-4.412 29.992-12.424l6.281-6.281c5.294 3.73 11.59 5.748 18.2 5.748 8.467 0 16.427-3.297 22.413-9.284 5.987-5.987 9.285-13.947 9.285-22.414 0-.891-.045-1.775-.117-2.654.878.073 1.759.116 2.64.116 8.117 0 16.234-3.09 22.413-9.27 5.987-5.987 9.285-13.947 9.285-22.414 0-6.611-2.019-12.908-5.75-18.203l164.78-164.77c5.294 3.729 11.589 5.746 18.197 5.746 8.467 0 16.427-3.297 22.413-9.284 5.987-5.987 9.285-13.947 9.285-22.414 0-3.403-.542-6.721-1.568-9.866 29.328-1.14 54.621-6.218 75.319-15.138 25.582-11.025 42.819-27.339 51.235-48.491 1.531-3.849-.348-8.21-4.196-9.741-3.847-1.531-8.211.348-9.741 4.196-13.551 34.058-58.142 53.795-122.565 54.394l-1.17-1.17 99.447-99.448c8.396 6.215 15.071 12.684 19.471 18.913 1.461 2.069 3.778 3.173 6.133 3.173 1.495 0 3.006-.446 4.32-1.375 3.383-2.39 4.188-7.07 1.799-10.453-5.052-7.153-12.104-14.185-21.007-20.975l2.456-2.456c6.067-6.067 9.409-14.134 9.409-22.714 0-1.148-.064-2.286-.183-3.412.423.018.846.03 1.269.03 7.641.003 15.283-2.905 21.101-8.723zm-136.199-21.823c10.127-3.991 26.124-2.704 46.011 24.383l-99.453 99.454-1.174-1.174c.611-64.561 20.431-109.195 54.616-122.663zm-56.17 210.764-13.515 13.514-63.284-14.258 38.026-38.03zm-124.749 47.211 35.403-35.406 63.283 14.258-35.407 35.405zm2.772 74.759-42.125 42.124-38.764-38.764 17.615-17.615zm-146.5 135.147c-7.322 0-14.206-2.852-19.386-8.031-5.175-5.176-8.026-12.06-8.026-19.385s2.851-14.209 8.026-19.385l5.944-5.943 38.77 38.77-5.943 5.944c-5.178 5.178-12.062 8.03-19.385 8.03zm71.172-29.656c0 4.46-1.737 8.653-4.892 11.807-3.153 3.154-7.346 4.891-11.807 4.891-4.46 0-8.653-1.737-11.807-4.891l-52.231-52.231c-3.153-3.154-4.891-7.347-4.891-11.807 0-4.459 1.737-8.653 4.892-11.807 3.153-3.154 7.346-4.891 11.807-4.891 4.46 0 8.652 1.737 11.806 4.891l52.231 52.231h.001c3.154 3.154 4.891 7.348 4.891 11.807zm29.33-22.413c-6.511 6.51-17.105 6.51-23.614 0l-52.231-52.231c-6.511-6.51-6.511-17.104-.001-23.614 3.154-3.154 7.348-4.891 11.808-4.891 4.461 0 8.653 1.737 11.807 4.891l52.231 52.231h.001c3.153 3.154 4.891 7.347 4.891 11.807s-1.738 8.653-4.892 11.807zm208.924-208.925c-3.153 3.154-7.346 4.891-11.807 4.891-4.46 0-8.652-1.737-11.806-4.891l-52.232-52.231c-3.153-3.154-4.891-7.347-4.891-11.807s1.737-8.653 4.892-11.807c3.153-3.154 7.346-4.891 11.807-4.891 4.46 0 8.653 1.737 11.807 4.891l52.23 52.231h.001c3.153 3.154 4.891 7.347 4.891 11.807s-1.737 8.653-4.892 11.807zm114.234-172.956c0 4.573-1.781 8.873-5.016 12.107l-112.619 112.619-24.214-24.214 112.62-112.62c6.676-6.676 17.537-6.676 24.213 0 .002.002.005.004.007.007 3.229 3.234 5.009 7.53 5.009 12.101zm5.591-22.714c-5.786-5.786-5.786-15.201 0-20.987 2.894-2.894 6.692-4.34 10.494-4.34 3.8 0 7.601 1.447 10.493 4.34 5.786 5.786 5.786 15.201 0 20.987-5.785 5.785-15.2 5.786-20.987 0z"/></g></symbol>
  <symbol id="diamond" viewBox="0 0 64 64"><g><path d="m256 35 28.955 90.211-28.955 54.789-30.028 44.062-70.972-44.062 13.023-91.1z" fill="#3ff"/><path d="m256 180 37.102 66.439-37.102 230.561-109.944-207.119 8.944-89.881z" fill="#2ee6e6"/><path d="m357 180-50.5 36.07-50.5-36.07v-145l103.123 64.098z" fill="#2ee6e6"/><path d="m357 180 22.945 93.61-123.945 203.39v-297z" fill="#29b1cc"/><path d="m256 35-101 145-42.401 36.07-112.599-36.07c0-3.87 1.49-7.73 4.43-10.65l131-130c2.81-2.79 6.61-4.35 10.57-4.35z" fill="#2ee6e6"/><path d="m512 180-86.369 33.492-68.631-33.492-101-145h120c4.17 0 8.14 1.73 10.98 4.78l121 130c2.67 2.87 4.02 6.55 4.02 10.22z" fill="#29b1cc"/><path d="m512 180c0 3.47-1.19 6.94-3.6 9.75l-241 282c-2.83 3.29-7.05 5.26-11.4 5.25l101-297z" fill="#2483b3"/><path d="m256 477c-4.34.01-8.57-1.96-11.4-5.25l-241-282c-2.41-2.82-3.6-6.29-3.6-9.75h155z" fill="#29b1cc"/></g></symbol>
  <symbol id="sapphire" viewBox="0 0 64 64"><g><path d="m256 132 64 124-64 124-37.236 33.33-34.154-33.33-78.005-42.675 6.515-81.325.88-98.622 70.61-25.378 40.316-40.357z" fill="#b9f"/><g fill="#b366ff"><path d="m398.88 256v79.681l-71.49 44.319-28.513 33.33-42.877-33.33v-248l35.071-38.713 36.319 38.713 69.677 42.633z"/><path d="m256 380 31.642 38.578-31.642 61.422h-120.5c-2.68 0-5.27-.72-7.51-2.01l13.991-83.356 42.629-14.634z"/><path d="m184.61 132-71.49 124-37.484 51.338-75.636-51.338c0-2.58.66-5.17 2-7.49l120.5-209c1.34-2.33 3.25-4.2 5.5-5.5l78.83 16.925z"/></g><path d="m256 32 42.117 47.868-42.117 52.132h-71.39l-56.61-97.99c2.24-1.29 4.82-2.01 7.5-2.01z" fill="#93f"/><path d="m512 256-68.721 32.881-44.399-32.881-71.49-124-4.331-75.578 60.941-22.412c2.25 1.3 4.16 3.17 5.5 5.5l120.5 209c1.34 2.32 2 4.91 2 7.49z" fill="#93f"/><path d="m384 34.01-56.61 97.99h-71.39v-100h120.5c2.68 0 5.26.72 7.5 2.01z" fill="#7a29cc"/><path d="m384.01 477.99c-2.24 1.29-4.83 2.01-7.51 2.01h-120.5v-100h71.39l53.534 10.643z" fill="#93f"/><path d="m184.61 380-56.62 97.99c-2.25-1.31-4.15-3.17-5.49-5.5l-120.5-209c-1.34-2.32-2-4.91-2-7.49h113.12z" fill="#93f"/><path d="m512 256c0 2.58-.66 5.17-2 7.49l-120.5 209c-1.34 2.33-3.24 4.19-5.49 5.5l-56.62-97.99 71.49-124z" fill="#7a29cc"/></g></symbol>
  <symbol id="ruby" viewBox="0 0 64 64"><g fill="#ff0059"><path d="m284.996094 179.261719 67.5-12.007813 35.886718-37.683594c-1.148437-2.390624-2.792968-4.527343-5.066406-6.046874l-180-120.996094c-2.519531-1.683594-5.417968-2.527344-8.320312-2.527344l-15 91.003906 15 40.253906 31.25 34.746094zm0 0"/><path d="m105 179.261719-41.25-42.007813-62.136719-7.683594c-.957031 1.996094-1.613281 4.15625-1.613281 6.433594v239.996094c0 2.28125.65625 4.441406 1.613281 6.4375l69.636719-8.9375 33.75-40.753906 20-81.742188zm0 0"/><path d="m284.996094 332.746094-52.5 9.507812-37.5 38.492188-15 62.503906 15 68.75c2.902344 0 5.800781-.835938 8.320312-2.519531l180-121c2.273438-1.515625 3.917969-3.652344 5.066406-6.042969l-43.386718-41.433594zm0 0"/></g><path d="m194.996094 131.257812v-131.257812c-2.898438 0-5.800782.84375-8.316406 2.527344l-180 120.996094c-2.273438 1.519531-3.917969 3.65625-5.066407 6.046874l103.386719 49.691407zm0 0" fill="#ff5e95"/><path d="m284.996094 332.746094 103.386718 49.691406c.957032-1.996094 1.613282-4.15625 1.613282-6.4375v-239.996094c0-2.277344-.65625-4.4375-1.613282-6.433594l-103.386718 49.691407zm0 0" fill="#e50048"/><path d="m105 332.746094-103.386719 49.691406c1.148438 2.390625 2.792969 4.527344 5.066407 6.046875l180 120.996094c2.519531 1.683593 5.417968 2.519531 8.316406 2.519531v-131.253906zm0 0" fill="#ff5e95"/><path d="m284.996094 179.203125v153.597656l-90 48-89.996094-48v-153.597656l89.996094-48zm0 0" fill="#ffa2c3"/><path d="m284.996094 179.203125v153.597656l-90 48v-249.597656zm0 0" fill="#ff5e95"/></symbol>
  <symbol id="gem" viewBox="0 0 64 64"><g><path d="m512 174.176-256 294.581-256-294.581 256-35.197z" fill="#ce0045"/><path d="m512 174.176-256 294.581v-329.778z" fill="#a00031"/><path d="m384.502 108.71-30.308 65.466-98.194-58.559-98.194 58.559-29.806-65.466v-65.465h256z" fill="#ce0045"/><path d="m384.502 108.71-30.308 65.466-98.194-58.559v-72.372h128z" fill="#a00031"/><path d="m354.194 174.176h-196.388l98.194-130.931z" fill="#fe7e52"/><path d="m354.194 174.176h-98.194v-130.931z" fill="#f53241"/><path d="m128 43.243-128 130.929h157.804z" fill="#fe7e52"/><path d="m354.196 174.172h157.804l-128-130.929z" fill="#f53241"/><path d="m354.194 174.176-98.194 294.581-98.194-294.581z" fill="#f53241"/><path d="m354.194 174.176-98.194 294.581v-294.581z" fill="#ce0045"/></g></symbol>
  <symbol id="gem-alt" viewBox="0 0 64 64"><g><path clip-rule="evenodd" d="m249.883 135.442-97.824 116.261c-1.28 1.48-1.935 3.357-1.935 5.236h-111.538c0-1.821.626-3.642 1.878-5.15l209.362-248.855c.284-.37.654-.712 1.024-1.053 1.508-1.252 3.329-1.878 5.15-1.878v132.594c-2.276 0-4.524.967-6.117 2.845z" fill="#b366ff" fill-rule="evenodd"/><path clip-rule="evenodd" d="m152.002 262.089 97.824 116.261c.313.398.654.74 1.024 1.081 1.508 1.252 3.329 1.878 5.15 1.85v130.716h-5.15c-.342-.285-.655-.626-.967-.968l-209.362-248.855c-1.28-1.479-1.935-3.357-1.935-5.235h111.538c0 1.821.598 3.642 1.878 5.15z" fill="#93f" fill-rule="evenodd"/><path d="m152.002 251.789 97.824-116.261c.284-.37.654-.74 1.024-1.053 3.386-2.845 8.422-2.418 11.268.968l97.823 116.261c2.532 2.93 2.646 7.341.085 10.385l-97.823 116.261c-.313.398-.654.74-1.053 1.081-3.386 2.817-8.422 2.39-11.268-.996l-97.824-116.261c-2.531-2.93-2.616-7.341-.056-10.385z" fill="#b9f"/><g clip-rule="evenodd" fill-rule="evenodd"><path d="m262.118 135.442 97.823 116.261c1.28 1.48 1.963 3.357 1.963 5.236h111.509c0-1.821-.597-3.642-1.878-5.15l-209.332-248.855c-.313-.37-.654-.712-1.053-1.053-1.508-1.252-3.329-1.878-5.15-1.878v132.594c2.277 0 4.553.967 6.118 2.845z" fill="#93f"/><path d="m360.026 262.089-97.823 116.261c-.313.398-.654.74-1.053 1.081-1.508 1.252-3.329 1.878-5.15 1.85v130.716h5.15c.342-.285.683-.626.968-.968l209.361-248.855c1.28-1.479 1.935-3.357 1.935-5.235h-111.509c0 1.821-.627 3.642-1.879 5.15z" fill="#7a29cc"/><path d="m262.203 378.35 97.823-116.261c1.252-1.508 1.878-3.329 1.878-5.15 0-1.878-.683-3.756-1.963-5.236l-97.823-116.261c-1.565-1.878-3.841-2.845-6.118-2.845v248.684c1.821.028 3.642-.597 5.15-1.85.399-.341.74-.682 1.053-1.081z" fill="#b366ff"/></g></g></symbol>
  <symbol id="jewelry" viewBox="0 0 64 64"><g><path d="m256 498.13-256-306.56 85.913-43.536 43.757 43.536 106.763 84.51z" fill="#66c0ee"/><path d="m512 191.57-256 306.56 32.62-216.524 93.71-90.036 53.946-39.442z" fill="#3aaaff"/><path d="m129.67 13.87 39.582 69.13-39.582 108.57h-129.67z" fill="#96fff6"/><path d="m512 191.57h-129.67l-36.192-106.869 36.192-70.831z" fill="#76e2f8"/><g><path d="m129.67 191.57 75.865 50.454 50.465-50.454 46.764-52.161-46.764-125.539-91.85 60.91z" fill="#96fff6"/><path d="m256 13.87v177.7l46.764 41.95 79.566-41.95-24.291-107.153z" fill="#76e2f8"/></g><path d="m382.33 13.87v177.7l-126.33-177.7z" fill="#66c0ee"/><path d="m256 13.87-126.33 177.7v-177.7z" fill="#76e2f8"/><g><path d="m129.67 191.57 126.33 306.56 51.583-203.41-51.583-103.15z" fill="#76e2f8"/><path d="m256 191.57v306.56l126.33-306.56z" fill="#66c0ee"/></g></g></symbol>
  <symbol id="royal" viewBox="0 0 64 64"><g><g><g><path d="m6 4c2.21 0 4 2.24 4 5s-1.79 5-4 5c-2.07 0-3.77-1.96-3.98-4.47-.01-.17-.02-.35-.02-.53s.01-.36.02-.53c.21-2.51 1.91-4.47 3.98-4.47z" fill="#fcd770"/></g><g><path d="m51.67 11h2.33c.55 0 1.05-.22 1.41-.59.37-.36.59-.86.59-1.41 0-1.1-.9-2-2-2h-2.33-.01c-.2-.58-.48-1.1-.84-1.55 1.06-2.06 2.97-3.45 5.18-3.45 3.31 0 6 3.13 6 7s-2.69 7-6 7c-2.21 0-4.12-1.39-5.18-3.45.36-.45.64-.97.84-1.55z" fill="#ffeaa7"/></g><g><path d="m8 16c-3.16 0-5.75-2.85-5.98-6.47.21 2.51 1.91 4.47 3.98 4.47 2.21 0 4-2.24 4-5s-1.79-5-4-5c-2.07 0-3.77 1.96-3.98 4.47.23-3.62 2.82-6.47 5.98-6.47 2.72 0 5.01 2.11 5.75 5 .16.63.25 1.31.25 2s-.09 1.37-.25 2c-.74 2.89-3.03 5-5.75 5z" fill="#ffeaa7"/></g><g><path d="m54 7c1.1 0 2 .9 2 2 0 .55-.22 1.05-.59 1.41-.36.37-.86.59-1.41.59h-2.33-.01c.22-.61.34-1.29.34-2s-.12-1.39-.34-2h.01z" fill="#fcd770"/></g><g><path d="m14.33 7h1.67c1.1 0 2 .9 2 2 0 .55-.22 1.05-.59 1.41-.36.37-.86.59-1.41.59h-1.67-.33-.25c.16-.63.25-1.31.25-2s-.09-1.37-.25-2z" fill="#fcd770"/></g><g><path d="m18 4c2.21 0 4 2.24 4 5s-1.79 5-4 5c-1.64 0-3.05-1.23-3.67-3h1.67c.55 0 1.05-.22 1.41-.59.37-.36.59-.86.59-1.41 0-1.1-.9-2-2-2h-1.67c.62-1.77 2.03-3 3.67-3z" fill="#d3a06c"/></g><g><path d="m49 52c2.76 0 5 2.24 5 5s-2.24 5-5 5h-30c2.76 0 5-2.24 5-5s-2.24-5-5-5h29z" fill="#b27946"/></g><g><path d="m50.82 12.55c-.73.89-1.72 1.45-2.82 1.45h-30c2.21 0 4-2.24 4-5s-1.79-5-4-5h30c1.1 0 2.09.56 2.82 1.45.36.45.64.97.84 1.55.22.61.34 1.29.34 2s-.12 1.39-.34 2c-.2.58-.48 1.1-.84 1.55z" fill="#b27946"/></g><g><path d="m18 14c-1.64 0-3.05-1.23-3.67-3h-.33v23 2l4 2-4 2v17c0 2.76 2.24 5 5 5s5-2.24 5-5-2.24-5-5-5h29v-18-20z" fill="#dfb28b"/></g><g><path d="m31 21-1 5h-10l-1-5 3 1 3-4 3 4z" fill="#fcd770"/></g></g><g><path d="m56 1c-2.096 0-4.062 1.091-5.379 2.9-.763-.567-1.659-.9-2.621-.9h-30c-1.522 0-2.923.817-3.856 2.172-1.189-2.484-3.497-4.172-6.144-4.172-3.674 0-6.69 3.254-6.972 7.372-.018.207-.028.416-.028.628s.01.421.028.628c.282 4.118 3.298 7.372 6.972 7.372 1.958 0 3.728-.926 5-2.412v22.03l2.764 1.382-2.764 1.382v17.618c0 3.309 2.691 6 6 6h30c3.309 0 6-2.691 6-6s-2.691-6-6-6v-36.121c.585-.143 1.13-.414 1.621-.779 1.317 1.809 3.283 2.9 5.379 2.9 3.859 0 7-3.589 7-8s-3.141-8-7-8zm-3.075 7h1.075c.552 0 1 .449 1 1s-.448 1-1 1h-1.075c.046-.326.075-.659.075-1s-.029-.674-.075-1zm-34.925-3c1.654 0 3 1.794 3 4s-1.346 4-3 4c-.736 0-1.435-.371-1.974-1.003 1.642-.014 2.974-1.352 2.974-2.997s-1.332-2.983-2.974-2.997c.539-.632 1.238-1.003 1.974-1.003zm-3.061 5c.036-.328.061-.661.061-1s-.025-.672-.061-1h1.061c.552 0 1 .449 1 1s-.448 1-1 1zm-11.939-1c0-2.206 1.346-4 3-4s3 1.794 3 4-1.346 4-3 4-3-1.794-3-4zm5 6c-.342 0-.677-.042-1-.121 2.279-.558 4-2.981 4-5.879s-1.721-5.321-4-5.879c.323-.079.658-.121 1-.121 2.757 0 5 2.691 5 6s-2.243 6-5 6zm45 42c0 2.206-1.794 4-4 4h-25.531c.951-1.062 1.531-2.465 1.531-4s-.58-2.938-1.531-4h25.531c2.206 0 4 1.794 4 4zm-34-6v2c2.206 0 4 1.794 4 4s-1.794 4-4 4-4-1.794-4-4v-16.382l5.236-2.618-5.236-2.618v-21.593c.848.763 1.888 1.211 3 1.211h29v36zm29-38h-26.284c.795-1.063 1.284-2.462 1.284-4s-.489-2.937-1.284-4h26.284c1.654 0 3 1.794 3 4s-1.346 4-3 4zm8 2c-1.572 0-3.058-.917-3.999-2.418.116-.186.224-.38.322-.582h1.677c1.654 0 3-1.346 3-3s-1.346-3-3-3h-1.677c-.098-.202-.206-.396-.322-.582.941-1.501 2.427-2.418 3.999-2.418 2.757 0 5 2.691 5 6s-2.243 6-5 6z"/><path d="m30.819 27 1.499-7.494-3.951 1.317-3.367-4.49-3.367 4.49-3.951-1.317 1.499 7.494zm-8.452-3.823 2.633-3.51 2.633 3.51 2.049-.683-.501 2.506h-8.361l-.501-2.506z"/><path d="m33 25h12v2h-12z"/><path d="m35 21h2v2h-2z"/><path d="m39 21h6v2h-6z"/><path d="m17 29h28v2h-28z"/><path d="m17 33h28v2h-28z"/><path d="m23 37h22v2h-22z"/><path d="m21 41h24v2h-24z"/><path d="m23 45h2v2h-2z"/><path d="m27 45h2v2h-2z"/><path d="m31 45h2v2h-2z"/><path d="m35 45h2v2h-2z"/><path d="m19 45h2v2h-2z"/></g></g></symbol>
  <symbol id="insignia" viewBox="0 0 64 64"><linearGradient id="b0be09ac-00e8-41ab-bce5-d1a372e4c042" gradientUnits="userSpaceOnUse" x1="9.163" x2="54.851" y1="32.001" y2="32.001"><stop offset="0" stop-color="#ffde00"/><stop offset="1" stop-color="#fd5900"/></linearGradient><path d="m26.01623 26.79634a17.96514 17.96514 0 0 1 2.52069 8.89254l.00008 2.28812h6.9205a19.101 19.101 0 0 1 1.507-9.13434 19.8011 19.8011 0 0 0 2.7066-9.74828 17.64337 17.64337 0 0 0 -2.12075-8.446 26.30152 26.30152 0 0 0 -4.92993-6.41819.95859.95859 0 0 0 -1.24641 0c-5.53701 5.06702-9.4786 13.80894-5.35778 22.56615zm4.95786-14.734a.92318.92318 0 0 1 .372 1.265 12.078 12.078 0 0 0 -1.38595 7.01357.9275.9275 0 0 1 -.92088 1.02316.94433.94433 0 0 1 -.93017-.84642 13.9657 13.9657 0 0 1 1.60919-8.08325.92276.92276 0 0 1 1.25581-.37209zm15.627 28.975a.9364.9364 0 0 1 -.50245-1.71152 2.28446 2.28446 0 0 0 -.60444-3.97182c-1.7304-.616-2.84086.81033-3.40453 2.63232-1.46184-.02488-3.42429-.00217-4.89269-.00929.093-2.84634.87437-9.34827 5.674-12.09214 4.66785-2.85142 11.73.174 11.94356 5.86925.07939.01148.67405 8.23379-8.21343 9.2832zm-29.5983-3.423a2.40838 2.40838 0 0 0 .90221 1.72076.93624.93624 0 0 1 -.651 1.693c-8.92974-1.27434-8.074-9.23666-8.06462-9.32023.20876-5.64878 7.297-8.67174 11.93413-5.82309 4.79969 2.744 5.58107 9.246 5.67406 12.09229-1.464.008-3.43385-.016-4.89268.00933a8.57646 8.57646 0 0 0 -.85581-1.81386 2.22559 2.22559 0 0 0 -4.04627 1.44177zm22.23129 13.38518c-.31629 1.34877-1.5162 3.72071-3.9161 4.10215-.01828 1.1736-1.01025 4.18717-3.29891 4.89833a.99463.99463 0 0 1 -.71012-.28471 6.04313 6.04313 0 0 1 -2.63242-4.61364c-2.39988-.38141-3.59979-2.75335-3.91606-4.10211a.9408.9408 0 0 1 .74418-1.1348 3.00034 3.00034 0 0 0 2.54866-2.39055c2.14472-.00317 5.75721.00437 7.8879 0a3.00037 3.00037 0 0 0 2.54868 2.39056.94084.94084 0 0 1 .74419 1.13477zm4.55783-9.19015v1.84179a1.96306 1.96306 0 0 1 -1.96266 1.96266h-19.664a1.96306 1.96306 0 0 1 -1.96267-1.96266v-1.84179a1.96507 1.96507 0 0 1 1.96267-1.972h19.664a1.96507 1.96507 0 0 1 1.96266 1.972z" fill="url(#b0be09ac-00e8-41ab-bce5-d1a372e4c042)"/></symbol>
</svg>