<?xml version="1.0" encoding="UTF-8"?>
<svg xmlns="http://www.w3.org/2000/svg" xmlns:xlink="http://www.w3.org/1999/xlink" version="1.1" id="Layer_1" x="0px" y="0px" viewBox="0 0 307.56 307.56" style="enable-background:new 0 0 307.56 307.56;" xml:space="preserve" width="512" height="512">
<style type="text/css">
	.st0{fill:#D62027;}
	.st1{fill:#00A538;}
</style>
<g>
	<g>
		<path class="st0" d="M228,106.54c-0.17-2.48-0.43-5-1.54-7.21c-4.66-9.35-19.36-2.18-26.1,0.71c-9.64,4.14-18.51,9.93-26.64,16.53    c-13.41,10.9-24.87,23.95-36.66,36.58c-11.79,12.63-24.12,25.02-38.77,34.18c-1.61,1.01-3.5,2.51-3.06,4.36    c0.22,0.92,0.98,1.6,1.7,2.21c7.94,6.71,17.25,13.25,27.63,12.73c7.07-0.36,13.55-4,19.24-8.21    c23.6-17.48,38.02-45.77,63.11-61.03c7.81-4.75,17.23-8.94,20.25-17.57c1.39-3.98,1.14-8.33,0.87-12.54    C228.03,107.05,228.02,106.8,228,106.54z"/>
		<path class="st0" d="M141.21,137.29c0.18-0.21,0.35-0.43,0.53-0.64c0.7-0.86,1.45-1.86,1.28-2.96c-0.12-0.81-0.72-1.46-1.3-2.04    c-9.61-9.77-20.6-18.17-32.52-24.94c-6.14-3.49-12.52-6.54-19.1-9.12c-4.79-1.88-13.32-6.47-16.92-0.3    c-1.39,2.39-1.48,5.29-1.52,8.05c-0.3,21.44,0.04,43.43,7.72,63.45c0.9,2.36,2.04,4.84,4.22,6.12c1.71,1,3.8,1.1,5.77,0.97    c8.02-0.52,15.51-4.24,22.1-8.85C123,158.97,132.29,148.17,141.21,137.29z"/>
		<path class="st0" d="M215.36,140.68c-4.35,2.5-8.68,5.81-9.87,6.8c-21.76,18.05-38.38,41.65-59.63,60.24    c-1.36,1.19-0.55,3.43,1.26,3.44c19.64,0.11,39.9-4.47,54.34-17.57c8.53-7.75,14.49-18.01,18.51-28.81    c2.8-7.55,4.72-15.42,5.69-23.42C226.34,135.67,220.83,137.53,215.36,140.68z"/>
		<path class="st0" d="M128.81,105.99c-0.5,0.6-0.88,1.29-0.8,2.05c0.09,0.89,0.81,1.58,1.47,2.18    c6.08,5.48,12.16,10.96,18.25,16.44c0.4,0.36,0.86,0.75,1.41,0.75s1-0.39,1.41-0.75c6.16-5.55,12.32-11.1,18.49-16.65    c0.64-0.58,1.34-1.28,1.29-2.14c-0.03-0.58-0.4-1.07-0.77-1.51c-10.08-12.1-29.28-11.77-40.17-0.96    C129.18,105.58,128.99,105.78,128.81,105.99z"/>
		<path class="st0" d="M101.65,94.06c3.97,2.27,8.01,4.41,12.13,6.4c1.6,0.78,3.27,1.54,5.04,1.62c4.12,0.17,7.34-3.28,10.54-5.88    c5.71-4.64,13.09-7.17,20.44-7.02s14.62,2.99,20.13,7.86c2.48,2.19,4.91,4.92,8.2,5.21c2.12,0.19,4.18-0.7,6.1-1.61    c4.77-2.25,9.43-4.72,13.96-7.4c0.76-0.45,1.55-0.95,1.92-1.74c0.78-1.7-0.73-3.51-2.11-4.77c-8.49-7.73-16.98-15.46-25.47-23.19    c-4.8-4.37-9.79-8.9-15.84-11.46c-7.09-3-13.18-0.54-19.17,3.68c-8.87,6.25-17.48,12.86-25.81,19.82    c-4.42,3.7-8.79,7.52-12.34,12.06c-0.88,1.12-1.74,2.59-1.14,3.88c0.34,0.74,1.08,1.19,1.78,1.6    C100.56,93.44,101.11,93.75,101.65,94.06z"/>
	</g>
</g>
<g>
	<path class="st1" d="M222.28,209.02c-24.68-6.5-52.99,4.74-69.05,23.83c-0.52,0.62-0.81,1.45-0.64,2.25   c0.44,2.11,3.46,1.87,5.45,1.14c7.94-2.94,15.86-5.93,23.76-8.98c0.88-0.34,1.47,0.9,0.65,1.37l-22.62,12.99   c-0.68,0.39-1.17,1.11-1.13,1.9c0.06,1.16,1.17,1.53,2.14,1.75c12.91,2.95,26.79,1.47,38.78-4.14s22.02-15.32,28.02-27.13   c0.38-0.74,0.74-1.6,0.44-2.37c-0.31-0.79-1.19-1.17-1.99-1.45C224.83,209.74,223.56,209.36,222.28,209.02z"/>
</g>
<g>
	<path class="st1" d="M69.45,207.27c25.69-5.52,53.28,5.48,69.01,26.48c0.41,0.55,0.66,1.24,0.58,1.92   c-0.28,2.47-3.51,2.15-5.59,1.32c-8.17-3.25-16.3-6.58-24.4-9.99c-0.78-0.33-1.35,0.76-0.64,1.21l22.48,14.32   c0.89,0.57,1.87,1.23,1.63,2.6c-0.2,1.13-1.14,2.01-2.26,2.25c-13.54,2.94-28.12,0.77-40.23-5.96   c-11.64-6.46-20.92-17.08-25.76-29.49c-0.33-0.83-0.63-1.8-0.21-2.59c0.4-0.76,1.31-1.07,2.15-1.3   C67.28,207.76,68.36,207.5,69.45,207.27z"/>
</g>
</svg>
