<svg id="Layer_1" height="512" viewBox="0 0 512 512" width="512" xmlns="http://www.w3.org/2000/svg" data-name="Layer 1"><path d="m43.437 500.506a13.11 13.11 0 0 0 22.3 4.275 1770.667 1770.667 0 0 0 179.233-248.514 13.79 13.79 0 0 0 -3.89-18.334 12.075 12.075 0 0 0 -17.27 4.045 1788.127 1788.127 0 0 1 -113.288 167.3l-6.209-54.006c-.837-7.282-7.087-12.493-13.941-11.635s-11.747 7.453-10.909 14.735l9.089 79.056c-16.252 20.386-31.877 37.763-42.666 50.243a13.07 13.07 0 0 0 -2.449 12.835z" fill="#628023"/><path d="m465.63 146.312c-3.911-6.721-40.09-65.8-104.991-70.729a142.775 142.775 0 0 0 -18.8.258l-1.684.135.691 1.542c10.278 22.959 13.208 46.14 10.426 70.877l1.287.059a140.311 140.311 0 0 1 51.883 12.972l.539.246.521-.276c15.906-8.4 32.932-9.952 52.052-4.731a7.076 7.076 0 0 0 8.076-10.353z" fill="#c02"/><path d="m203.242 267.28s-37.968-119.409-140.629-87.439c0 0 45.274 26.41 59.174 86.974s84.591 38.523 84.591 38.523 7.149 39.119 40.509 54.011 62.748-5.56 83 30.58c0 0-13.7-81.939-59.968-105.639-32.564-16.68-66.677-17.01-66.677-17.01z" fill="#83aa2e"/><path d="m222.406 213.681c19.1-26.008 34.25-35.884 53.06-47.914 7.76-4.962 19.334-9.107 19.334-9.107-1.7-14.462-4.714-25.25-10.76-39.941-30.363-69.083-109.04-85.945-117.91-87.639a8.028 8.028 0 0 0 -8.054 12.539c31.594 45.7 13.561 82.162-18.416 127.869-1.6 2.284-4.633 6.969-5.994 9.4-21 37.563-8.492 84.683 30.207 107.613a81.192 81.192 0 0 0 18.789 8.124 73.408 73.408 0 0 0 30.5 2.221l1.493-.2-.539-1.407c-12.739-16.923-7.438-58.158 8.29-81.558z" fill="#da0c00"/><path d="m159.467 190.032s-11.571 24.339 13.711 49.2c32.8 32.254 42.334 87.771-.071 72.939-18.248-6.382-35.237-19.383-38.441-52.158-1.649-16.873 26.713-74.552 24.801-69.981z" fill="#9cbb58"/><path d="m334.212 59.91c-35.493-54.535-104.681-57.889-112.453-58.091a7.076 7.076 0 0 0 -5.2 12.06c13.763 14.263 20.584 29.94 20.852 47.927l.008.59.475.355c20.008 14.957 34.794 33.1 43.934 53.892a158.1 158.1 0 0 1 11.072 43.157l1.461-.59a157.928 157.928 0 0 1 41.676-10.425 125.143 125.143 0 0 1 16.542-.327l1.118.051c3.603-32.055-2.57-61.216-19.485-88.599z" fill="#9a002b"/><path d="m469.319 207.718c-5.747-6.965-58.322-67.874-133.53-61.318-31.786 3.529-77.254 18.058-113.383 67.281-19.649 29.23-24.2 76.694 6.063 107.086a81.175 81.175 0 0 0 16.151 12.579c38.625 22.884 89.773 10.213 111.962-30.346l.113.091c22.459-50.471 51.3-87.935 105.493-82.284a8.029 8.029 0 0 0 7.131-13.089z" fill="#b11300"/><path d="m332.837 313.946s-38.443 7.385-67.328-12.68c-37.474-26.032-84.11-26.65-68.419 17.7 12.885 36.424 41.512 35.016 70.457 31.6 57.653-6.793 69.158-39.696 65.29-36.62z" fill="#b5cc82"/><path d="m470.862 206.445a195.639 195.639 0 0 0 -58.346-46.1c13.694-5.592 28.321-6.169 44.508-1.749a9.032 9.032 0 0 0 9.71-3.231 8.894 8.894 0 0 0 .625-10.059c-3.968-6.819-40.646-66.7-106.614-71.719a144 144 0 0 0 -16.439.1c-24.623-51.422-81.106-73.051-122.495-73.866a8.817 8.817 0 0 0 -8.52 5.378 9.034 9.034 0 0 0 1.831 10.069c11.974 12.409 18.518 25.909 19.963 41.1a195.643 195.643 0 0 0 -68.58-29.093c-8.784-1.795-15.28 8.375-10.074 15.641 30.891 43.555 10.953 85.573-22.672 131.933q-1.335 2.178-2.513 4.434c-19.036-8.268-46.183-9.687-73.554 0 5.223 3.52 46.334 25.122 62.147 87.983 5.071 23.5 20.973 38.529 42.717 42.546a75.04 75.04 0 0 0 12.761 5.188c-20.309 30.49-41.483 60.286-63.375 89.117l-5.642-49.072a15.4 15.4 0 0 0 -5.758-10.451 13.955 13.955 0 0 0 -10.417-2.939c-7.936.991-13.61 8.593-12.649 16.948l8.994 78.229c-12.521 15.668-24.657 29.548-34.433 40.733-2.754 3.151-5.323 6.089-7.664 8.8a15.118 15.118 0 0 0 -2.825 14.8 14.951 14.951 0 0 0 11.43 9.886 15.565 15.565 0 0 0 2.915.278 14.922 14.922 0 0 0 11.359-5.237 1758.83 1758.83 0 0 0 132.99-175.272c8 13.41 20.39 20.958 32.723 22.481 36.092 28.5 73.7-1.559 95.18 37.606l5.609 10.009-1.892-11.316a243.62 243.62 0 0 0 -14.562-49.069 81.17 81.17 0 0 0 39.867-34.5l.3.242c19.4-44.181 46.749-89.5 104.512-83.477 8.852 1.104 14.693-9.532 8.883-16.351zm-110.375-128.868c63.888 4.858 99.558 63.113 103.415 69.74a4.9 4.9 0 0 1 -.34 5.61 5.105 5.105 0 0 1 -5.485 1.807c-18.343-5.007-34.824-3.914-50.267 3.306a144.625 144.625 0 0 0 -51.691-13.815c2-26.116-2.011-48.2-10.027-66.637a140.205 140.205 0 0 1 14.395-.011zm-142.487-65.087a5.067 5.067 0 0 1 3.707-8.673c7.664.2 75.877 3.506 110.815 57.163 15.771 25.541 22.195 52.749 19.6 83.037a132.116 132.116 0 0 0 -16.556.4 162.047 162.047 0 0 0 -39.225 9.385 162.827 162.827 0 0 0 -10.472-37.726c-11.063-25.172-28.434-43.5-46.565-56.729-.831-17.503-7.797-32.859-21.304-46.857zm-78.711 161.074c34.673-47.5 51.218-88.392 20.432-132.926a6.043 6.043 0 0 1 -.135-6.837 5.912 5.912 0 0 1 6.169-2.6c8.765 1.673 86.5 18.315 116.435 86.435a158.832 158.832 0 0 1 10.336 37.657c-23.936 9.742-49.591 27.038-71.779 57.27-13.429 19.518-18.989 45.915-14.208 70.192a24.113 24.113 0 0 0 -4.579 1.939c-3.581-15.334-13.519-33.26-27.38-46.889-23.892-23.566-13.786-45.864-13.268-47 .759-1.951-.43-2.45-1.4-3.435l-1.243.611c-.716.352-.886.435-5.2 9.726-5.989 12.372-18.015 41.721-19.855 52.725a78.065 78.065 0 0 1 5.675-76.868zm7.4 126.263c-11.673-6.712-19.393-17.97-22.949-33.459-11.6-50.547-45.241-77.919-56.443-85.82 22.558-6.25 43.358-5.486 62.258 2.176a82.362 82.362 0 0 0 3.084 74.49c.792 19.424 7.238 34.632 19.03 45.086a47.832 47.832 0 0 1 -4.984-2.473zm27.083 10.455c-14.3-5-33.711-15.677-37.111-50.464-1.021-10.412 10.617-38.618 18.239-55.568.038 9.764 3.34 23.1 16.872 36.407 14.641 14.4 23.751 32.276 26.634 46.539-4.416 3.936-8.16 11.058-5.625 23.8-5.336 2.895-12.912 1.42-19.013-.714zm-109.547 193.191a11.109 11.109 0 0 1 -18.9-3.622 11.109 11.109 0 0 1 2.075-10.872c2.337-2.7 4.9-5.637 7.649-8.781 9.938-11.37 22.307-25.521 35.067-41.521l.519-.65-9.185-79.881c-.711-6.185 3.4-11.8 9.172-12.522a9.87 9.87 0 0 1 1.224-.076 10.051 10.051 0 0 1 6.225 2.192 11.412 11.412 0 0 1 4.256 7.762l6.776 58.932 3.01-3.941c23.3-30.507 45.806-62.111 67.336-94.492 5.061.98 10.062.958 14.308-.957a61.627 61.627 0 0 0 4.331 11.8 1755.431 1755.431 0 0 1 -133.863 176.629zm134.75-185.173c-7.464-20.686-.933-33.021 18.069-33.02 13.3 0 31 6.291 47.324 17.627 25.324 17.592 57.222 14.7 66.353 13.4-3.635 7.076-20.347 27.2-63.409 32.273-30.265 3.573-56.296 3.756-68.337-30.28zm126.825 61.986c-21.944-26.935-55.467-7.493-84.446-26.115 18.2.411 40.029-2.641 55.527-8.225a82.13 82.13 0 0 0 16.51-3.94 251.048 251.048 0 0 1 12.409 38.28zm142.66-164.637a6.033 6.033 0 0 1 -6.063 3.167c-58.525-6.089-86.892 37.584-106.762 81.748-8.449 16.949-22.9 29.236-39.6 36 12.566-8.137 22.723-21.423 18.4-24.484a2.291 2.291 0 0 0 -2.337-.034c-3.946.666-39.046 5.918-65.448-12.423-19.946-13.856-41.44-20.328-56.243-17.786-4.536-23.162.8-48.362 13.612-66.973 35.694-48.631 80.6-62.992 111.943-66.471 67.294-8.028 126.4 51.967 131.814 60.6a5.912 5.912 0 0 1 .683 6.656z" fill="#231f20"/></svg>