<svg id="Layer_1" enable-background="new 0 0 307.56 307.56" height="512" viewBox="0 0 307.56 307.56" width="512" xmlns="http://www.w3.org/2000/svg"><g><path d="m170.47 119.61c-13.84 3.54-29.74 2.74-41.09-2.36-19.77-8.88-22.49-29.95-5.62-43.51 23.27-18.7 61.43-16.43 82.09 4.98 6.44 6.67 11.02 14.39 11.46 23.96.68 14.74-7.55 24.54-19.32 31-30.26 16.61-61.34 17.16-91.93 1.12-15.7-8.23-23.71-22.08-22.27-40.28.43-5.46 2.12-10.82 3.35-16.82-8.29 3.04-14.79 7.67-19.78 14.34-7.07 9.46-7.63 20.83-.47 30.25 3.74 4.93 8.67 9.34 13.89 12.69 8.81 5.65 18.27 10.31 27.49 15.32 14.14 7.67 28.28 15.35 42.53 22.8 1.31.69 3.73.36 5.13-.41 8.56-4.68 16.88-9.82 25.47-14.45 14.49-7.82 29.25-15.12 43.63-23.13 9.16-5.1 14.7-13.28 16.45-23.75 2.87-17.17-3.14-31.55-16.23-41.98-29.99-23.91-63.7-28.94-99.62-15.81-14.86 5.43-24.72 16.64-29.57 31.96-5.61 17.7-.17 31.84 15.93 41.04 10.97 6.27 22.99 8.83 35.41 9.16 18.3.49 35.84-2.57 50.54-14.58 11.25-9.18 12.24-21.16 3.01-32.41-6.89-8.41-15.85-13.88-26.27-16.44-17.07-4.2-32.92-1.78-45.66 11.31-9.87 10.15-7.68 21.97 4.88 28.55 2.86 1.5 5.95 2.89 9.1 3.43 9.4 1.63 18.89 2.8 27.47 4.02zm7.51 108.11c-5.53-14.38-12.17-27.1-22.92-36.88-7.04-6.4-14.87-12.22-23.16-16.86-15.58-8.71-31.74-16.37-48.13-24.7-2.7 27.82 4.65 51.2 26.8 68.32 20.14 15.57 42.64 18.23 67.41 10.12zm-50.77 11.45c-6.96-3.93-14.61-7.36-21.26-12.17-16.83-12.17-27.26-28.71-31.41-49.17-.36-1.8-1.78-4.6-3.07-4.82-14.19-2.4-28.01-.57-41.53 4.06 8.78 39.68 54.84 71.58 97.27 62.1zm51.02-.65c.04.48.08.95.12 1.43 4.28.27 8.56.71 12.85.77 37.43.59 71.82-23.43 84.02-58.36 1.42-4.07.78-5.79-3.47-6.85-11.16-2.79-22.36-4.21-33.89-3.22-4.05.35-5.94 1.7-6.61 5.95-1.72 10.88-6.21 20.76-12.48 29.79-10.12 14.6-23.81 24.55-40.54 30.49zm10.34-16.57c22.88-11.56 38.62-41.71 33.22-72.96-19.69 11.86-41.5 19.37-59.1 31.58 8.86 14.17 17.24 27.56 25.88 41.38z"/><path d="m170.47 119.61c-8.58-1.22-18.07-2.39-27.48-4.01-3.14-.54-6.24-1.93-9.1-3.43-12.55-6.58-14.75-18.4-4.88-28.55 12.74-13.1 28.59-15.51 45.66-11.31 10.43 2.56 19.38 8.03 26.27 16.44 9.23 11.25 8.23 23.23-3.01 32.41-14.71 12.01-32.24 15.06-50.54 14.58-12.41-.33-24.44-2.9-35.41-9.16-16.1-9.2-21.54-23.34-15.93-41.04 4.85-15.33 14.71-26.54 29.58-31.97 35.92-13.13 69.62-8.1 99.62 15.81 13.09 10.44 19.1 24.81 16.23 41.98-1.75 10.47-7.29 18.64-16.45 23.75-14.38 8.01-29.14 15.32-43.63 23.13-8.59 4.64-16.91 9.77-25.47 14.45-1.41.77-3.82 1.1-5.13.41-14.25-7.46-28.39-15.13-42.53-22.8-9.22-5-18.68-9.66-27.49-15.32-5.22-3.35-10.14-7.76-13.89-12.69-7.15-9.42-6.6-20.79.47-30.25 4.98-6.67 11.49-11.3 19.78-14.34-1.23 6-2.92 11.36-3.35 16.82-1.44 18.19 6.57 32.04 22.27 40.28 30.59 16.04 61.67 15.49 91.93-1.12 11.77-6.46 20-16.26 19.32-31-.44-9.57-5.02-17.29-11.46-23.96-20.65-21.41-58.82-23.67-82.09-4.98-16.87 13.56-14.15 34.62 5.62 43.51 11.35 5.1 27.25 5.91 41.09 2.36z" fill="#bc2326"/><path d="m177.98 227.72c-24.77 8.1-47.27 5.44-67.41-10.12-22.16-17.12-29.5-40.51-26.8-68.32 16.39 8.33 32.55 15.99 48.13 24.7 8.29 4.63 16.13 10.46 23.16 16.86 10.76 9.78 17.39 22.51 22.92 36.88z" fill="#bc2326"/><path d="m127.21 239.17c-42.43 9.48-88.49-22.42-97.26-62.1 13.52-4.63 27.34-6.46 41.53-4.06 1.29.22 2.7 3.02 3.07 4.82 4.14 20.47 14.58 37 31.41 49.17 6.64 4.81 14.28 8.24 21.25 12.17z" fill="#006838"/><path d="m178.15 238.54c16.77-5.94 30.48-15.89 40.62-30.51 6.26-9.04 10.75-18.91 12.48-29.79.67-4.25 2.57-5.6 6.61-5.95 11.53-1 22.73.42 33.89 3.22 4.25 1.06 4.89 2.79 3.47 6.85-12.2 34.93-46.59 58.95-84.02 58.36-4.29-.07-8.56-.51-12.85-.77-.11-.79-.09-.62-.2-1.41z" fill="#006838"/><path d="m188.57 221.95c-8.64-13.81-17.02-27.21-25.88-41.38 17.6-12.21 39.41-19.72 59.1-31.58 5.4 31.24-10.34 61.4-33.22 72.96z" fill="#bc2326"/></g></svg>