<?xml version="1.0" encoding="UTF-8"?>
<svg xmlns="http://www.w3.org/2000/svg" xmlns:xlink="http://www.w3.org/1999/xlink" version="1.1" id="Layer_1" x="0px" y="0px" viewBox="0 0 307.6 307.6" style="enable-background:new 0 0 307.6 307.6;" xml:space="preserve" width="512" height="512">
<style type="text/css">
	.st0{fill:#EC1558;}
	.st1{fill:#006838;}
</style>
<g>
	<g>
		<path class="st0" d="M197.1,120.9c-16.6-0.3-33.4,0-49.9-2.7c-20.3-3.2-40.7-11.4-52.7-26.8C90.1,85.7,86.9,79,86.6,72    c-0.3-10.1,5.5-19.4,11.8-27.6c0,0,0,0,0,0c-10.1,1.8-20.4,4.1-28.6,9.7c-8.2,5.7-13.8,15.6-11,24.7c2.6,8.6,11.4,14.1,19.8,18.3    c27.8,14.2,59.4,24.3,80.1,46.5c7.8,8.3,14,19.2,11.9,30c8.9,0.5,17.6-6.3,18.6-14.5c1.1-8.4-4.8-16.1-10.3-22.8    c3.2-1.2,7,0.5,9.4,2.8c2.4,2.3,4,5.3,6.4,7.7c0.6,0.6,1.3,1.2,2.2,1.2c1.1,0.1,2-0.7,2.7-1.5c4.4-4.8,7.3-10.6,8.6-16.8    C210,120.3,206.2,121.1,197.1,120.9z"/>
		<path class="st0" d="M168.2,62.7c14,13.3-5.8,25.9-9.7,27c0,0,30,4,43.2-9.4s-3.1-29.9-14-29.5c0,0,3.5,11.9-2.7,12.6    c0,0-19.1-34.2-47.5-27.7C109,42.2,102,59.5,102,59.5S154.2,49.4,168.2,62.7z"/>
		<path class="st0" d="M219.6,80.7c-15.3,10.8-29.8,18.7-49.9,18.5c-18.6-0.2-36.9-7-51.1-18c-0.9-0.7-1.8-1.5-2.1-2.5    c-0.5-2,1.4-3.8,3.3-4.9c4.1-2.5,8.7-4.2,13.5-5.1c2.3-0.4,5-0.5,6.6,1c1.6,1.5,0.5,4.9-1.8,4.5c0,0,0,0-0.1,0    c-2.7-1-6.1-1.8-8.1,0.1c-2.5,2.4-0.2,6.4,2.7,8.4c7.6,5,19.3,3.6,25.2-3.1c0.9-1,1.7-2.2,1.8-3.5c0.3-2.8-2.5-5-5.1-6.5    c-14.3-7.8-32.8-8.3-47.6-1.3c-1.7,0.8-3.4,1.8-4.1,3.4c-0.5,1.2-0.3,2.6,0,3.9c2.9,12,12.9,21.8,24.7,27.5s25.3,7.8,38.5,8.7    c12.2,0.8,25,0.6,36-4.4C210.1,103.7,225.2,90.2,219.6,80.7z"/>
		<path class="st0" d="M105,120.1c-4.1-1.8-8.2-3.4-12.3-4.9c-9.3-3.4-18.8-6.2-28.3-9c8.9,26.7,22.1,53,44.4,71.8    c3.8,3.2,8.6,6.4,13.7,5.4c5.4-1,8.5-6.2,13-9.1c1.2-0.8,2.9-1.5,4.2-0.7c0.9,0.5,1.1,1.6,1.3,2.5c0.6,3.2,0.6,6.4,0.2,9.6    c4.4-2.1,6.6-6.7,7.7-11.1C154.8,148,127.6,130,105,120.1z"/>
	</g>
	<g>
		<path class="st1" d="M232.3,168.2c-1-2-2.9-3-6.3-1.5c-10.9,4.5-22,9.5-29.5,18.3c-1.6,1.7-3,3.5-4.4,5.4    c-6.9,9.3-11.4,20.4-14,31.4c-0.7,2.9-3,6.7-0.5,8.9c2.8,2.4,4.5-2.1,6.2-4.2c4-4.6,7.7-9.5,11.4-14.4c0.9-1.2,1.9-3.2,4.1-0.8    c-4.6,9.7-12.2,17.9-16.9,27.6c3.1-0.6,5.5-0.8,7.8-1.4c21.5-5.7,33-20.8,38.5-38.5c0.8-2.5,1.5-5.1,2-7.7    C231.9,183.7,234.7,175.7,232.3,168.2z"/>
		<path class="st1" d="M107.4,192.8c-3.2-0.5-6.5-0.7-9.9-0.7c-3.4,0-6.9,0.2-10.4,0.6c-3.4,0.4-3.7,1.9-2.8,4.6    c0.7,2.3,1.8,4.6,3,6.9c1.3,2.3,2.7,4.6,4.4,6.8c10,13.4,27,25.1,42.6,26.4c2.3,0.2,5.2,0.8,6.3-2.4c0.9-2.6-0.9-4.6-2.5-6.3    c-3.5-3.6-8.3-7.3-10.6-12c6.9,2.7,12.4,7.6,17.6,12.3c1.8,1.6,3.7,5,6.1,2.8c2.3-2.1-0.3-5.2-1.3-7.4    C141.8,206.3,126.6,195.6,107.4,192.8z"/>
		<path class="st1" d="M161.9,172.8c-5.6,0.1-10.5,8.7-9.7,13.8c1.7,10.7,4.8,22.7,6.3,34c2.8,20.9,3.2,41.9,1.7,62.9    c-0.1,1.1,0.9,2,2.1,2c1,0,1.9-0.7,2.1-1.6c6-35.5,6.1-71.4,0-107C164,175.2,163.9,172.7,161.9,172.8z"/>
	</g>
</g>
</svg>
