<svg id="Layer_1" enable-background="new 0 0 307.56 307.56" height="512" viewBox="0 0 307.56 307.56" width="512" xmlns="http://www.w3.org/2000/svg"><g><g><path d="m247.4 90.83c-2.87 1.95-5.5 3.74-8.23 5.59-.56.54-1.45 1.4-2.01 1.94-11.78 16.17-26.06 29.27-43.18 38.79-2.45 1.36-4.95 2.65-7.51 3.86-9.25 4.87-20.59 7.49-31.54 6.44-2.31-.16-4.59-.4-6.81-.73-6.68-.98-12.99-2.78-18.53-5.68-1.31-.63-2.6-1.3-3.88-1.98-17.85-9.56-32.55-22.56-43.36-39.72-2.13-3.39-4.8-6.46-8.03-9.03l-.74-.59c-9.94 37.03 6.76 78.1 39.91 98.93 28.74 18.05 67.35 17.69 95.6-.91 32.4-21.34 48.7-62.29 38.31-96.91z" fill="#d62027"/><path d="m174.12 70.16c-4.89-1.47-9.54-3.8-14.14-3.77-.77.01-1.53.08-2.3.23-4.41.63-6.91 3.11-7.96 6.31-.52 1.6-.68 3.39-.53 5.22.09 8.38 7.07 15.36 14.3 18.88 1.15.41 2.35.7 3.58.87 7.38 1.01 15.79-2.34 20.36-7.94 6.89-8.44 5.21-17.37.14-25.87-8.15-13.66-28.33-18.74-42.55-11.03-14.29 7.75-21.85 28.26-13.28 42.61 5.33 8.91 13.4 16.21 20.98 23.74 1.26 1.25 2.51 2.52 3.73 3.79 3.29 1.74 5.04 6.1 9.4 6.98-.87 0-1.75.87-2.33.55-1.75.01-3.53-.12-5.33-.39-19.73-2.96-40.96-22.29-44.49-41.62-4.13-22.64 11.78-47.67 33.57-52.82 23.89-5.64 48.07 6.95 55.42 28.85 4.62 13.77 1.04 27.95-9.1 35.97-11.23 8.89-28.43 9.96-40.23 2.49-5.05-3.19-8.67-8.11-10.53-13.62-.27-.79-.5-1.58-.69-2.39-2.48-7.66-.73-19.01 6.89-23.62.45-.3.91-.58 1.39-.83.72-.38 1.46-.7 2.23-.96 7.08-2.32 15.81-.58 20.7 5.84.39.79.65 1.62.77 2.53z" fill="#d62027"/><g fill="#339346"><path d="m221.19 250.74c-5.69-25.3-18.12-40.84-38.93-44.8 11.73-8.71 26.94-6.82 36.64 4.75 6.94 8.28 10.78 18.1 13.23 28.51 1.45 6.15 2.45 12.42 4.14 18.49 1.93 6.91 4.71 13.46 13.07 18.14-7.9.86-13.97.64-19.96-.64-23.61-5.05-41.2-17.65-50.38-40.63-2.25-5.63-2.96-11.53-1.52-17.38.81-3.32-.43-3.76-3.11-4.02-3.71-.36-7.3.3-10.93.77-1.19.16-2.62.66-2.96-1.03-.26-1.3.61-2.33 1.84-2.84 2.51-1.04 5.18-.87 7.83-.97 20.1-.74 34.13 8.37 43.05 26.14 2.51 4.99 3.93 10.59 7.99 15.51z"/><path d="m114.59 226.09c12.87-9.6 26.29-11.11 40.53-3.32 1.88 1.03 3.86 1.87 5.3 3.53.7.81.96 1.87.3 2.72-.85 1.09-1.71.21-2.51-.33-2.45-1.65-4.8-3.42-7.61-4.51-2.03-.78-3.09-.91-3.7 1.78-1.08 4.74-3.72 8.74-7.38 12-14.93 13.28-32.19 16.02-51.06 11.13-4.79-1.24-9.25-3.27-14.64-6.75 7.73-.36 12.11-4.08 15.99-8.37 3.42-3.78 6.41-7.94 9.67-11.86 5.53-6.62 11.85-12.33 19.86-15.8 11.19-4.85 22.85-.72 28.17 9.81-16.45-4.66-31.05 2.07-44.3 18.28 4.72-2.09 7.76-5.62 11.38-8.31z"/></g></g><g fill="#d62027"><path d="m208.75 58.96c10.73 20.23 10.12 30.64-5.27 43.79-4.45 3.8-9.64 6.8-15 9.54-.77.39-1.53.78-2.31 1.16-1.54.64-3.02 1.34-4.5 2.05-6.02 4.01-13.01 4.88-19.99 6.63 6.11 3.49 11.35 9.6 18.56 11.54 1.73.43 3.5.55 5.31.27s3.64-.98 5.49-2.21c.6-.26 1.27-.54 1.98-.86 10.72-4.78 32.92-16.46 39.13-33.53v-.02c.15-.3.29-.61.4-.93 6.14-18.77-1.98-31.59-23.8-37.43z"/><path d="m138.84 134.05c-1.55-.52-8.2-5.75-8.2-5.75-19.06-20.81-33.36-42.59-13.78-71.43-26.98 9.53-33.44 19.92-27.12 41.86l.26.38s9.69 19.53 27.08 27.96c.25.19.52.36.81.51 3.5 1.82 20.95 6.47 20.95 6.47z"/></g></g></svg>