<svg id="Layer_1" enable-background="new 0 0 512 512" height="512" viewBox="0 0 512 512" width="512" xmlns="http://www.w3.org/2000/svg"><path d="m475.6 105.4c-3.9-.3-22.1-8.1-47.8-12.1 7.1-22.1.9-44.9-16.3-54.8s-40-3.8-55.6 13.3c-16.2-20.3-32.1-32.1-34.3-35.3-15.4-15.2-41.5-7.5-46.2 13.7-2.5 11.5-6.8 22.6-12.7 32.8l-31 53.7c-28.1 48.7-17.1 109.1 22.9 145 59.4 51.6 143.7 33 179.1-28.4 33.6-58.2 33.6-59.1 41-68.3 3.7-4.6 7.7-8.9 12.1-12.9 16-14.5 9.6-41-11.2-46.7z" fill="#ff6d7a"/><path d="m133.3 251.7c30 41.8 20.5 100.1-21.4 130.1-18.2 13.1-15.3 11.1-17.5 12.2l-12.2-17c-30-41.8-20.6-100 21.4-130.1 9.5-6.9 22.9-4.7 29.7 4.8z" fill="#befa91"/><path d="m294.6 411.9c4.6 10.8-.4 23.3-11.2 28-47.2 20.2-102.1-1.6-122.4-49l-8.4-19.6 19.6-8.4c47.3-20.3 102.2 1.6 122.4 49z" fill="#befa91"/><path d="m133.5 252c2.8 3.9 1.8 9.4-2.3 12-15.6 9.8-38.8 37.8-38.8 75.8 0 16.1 4.1 32.3 12.7 47l-9.2 6.6-2.2-.4-11.5-16c-29.9-41.7-20.6-100.1 21.4-130.2 9.3-6.6 22.7-4.9 29.9 5.2z" fill="#daffbf"/><path d="m296.4 420.5c-.1 6.8-9.5 8.9-12.4 2-20.3-47.3-75.1-69.3-122.4-49l-6.7 2.9-2.2-5.2 19.6-8.4c47.3-20.3 102.2 1.7 122.4 49 1.1 2.9 1.7 5.8 1.7 8.7z" fill="#daffbf"/><path d="m405.7 53.8c-12.5-2.7-27.2 1-39.8 11.7-3.3-4.9-6.6-9.5-10-13.7 14.7-16.2 37.8-23.9 56-13.1 8.1 4.8 3 17.1-6.2 15.1z" fill="#ff8c95"/><path d="m429.7 85.5c-.5 2.6-1.1 5.2-1.9 7.8-15.7-2.4-31.7-3-47.6-1.1l-.2-1.2c-6.3-14.2-14.5-27.2-24.1-39.1 1.9-2.1 3.9-4 6-5.7 3.7-3.1 9.4-2.4 12.3 1.5 4.4 5.9 10.8 15.3 16.7 26.7 13.3-.6 22.8.2 31.5 1.2 4.9.5 8.2 5.1 7.3 9.9z" fill="#fe4f60"/><path d="m468 137.3c-19.5-4-37.6-5.9-60.1-3.4-64.8 6-125.8 59.9-129 129.9-.3 6.8-7.9 10.5-13.5 6.6-5.7-4-10.8-8.5-10.8-8.6-20.6-88.4 47.2-161.8 125.6-169.6 49.3-5.7 89.3 12.7 95.4 13.2 20.7 5.7 12.9 36.3-7.6 31.9z" fill="#ff8c95"/><path d="m302.7 8.6c8.4.1 11.9 10.6 5.4 16-4.4 3.7-7.8 8.8-9.2 15.2-2.5 11.5-6.8 22.6-12.7 32.8l-31 53.7c-19.7 34.1-20.6 75-3.9 109.4.4 8.4 1.4 17.1 3.3 26-40-36-51-96.4-22.9-145l31-53.7c5.9-10.2 10.2-21.3 12.7-32.8 2.9-13.3 14.6-21.7 27.3-21.6z" fill="#ff8c95"/><path d="m380.2 92.2c-80.5 9.2-144.8 79.1-125.6 169.5-7.3-6.6-13.7-14-19-22-.9-1.3-1.3-2.8-1.4-4.4-2.7-82 56.8-144.3 132.1-158.3 3.7-.7 7.4 1.1 9.1 4.5 1.6 3.1 3.1 6.2 4.6 9.5z" fill="#fe4f60"/><g><path d="m477.8 97.2c-.4-.1-.9-.2-1.4-.3-10.7-2.1-91.8-38.1-168.9 13-29.2 19.4-50.3 47.9-59.5 80.4-1.3 4.5 1.4 9.3 5.9 10.5 4.5 1.3 9.2-1.4 10.5-5.9 8.2-29 26.4-53.5 52.5-70.9 71.1-47.2 144.5-12.4 156.8-10.4 14 4.2 18.2 22.2 7.3 32.1-9.4 8.5-17.3 18.5-23.7 29.4l-31 53.7c-33.9 58.7-113 72.3-164.5 27.6-.7-1-1.7-1.9-2.8-2.5-36.1-33.5-45.7-88.8-20-133.3l31-53.7c6.3-11 10.9-22.8 13.7-35.2 3.2-14.4 20.8-19.8 31.5-9.8 4.4 5.5 24.7 20.2 42.6 46.4 2.7 3.9 8 4.9 11.9 2.2s4.9-8 2.2-11.9c-1.5-2.2-3-4.3-4.5-6.3 21.2-17.9 48-12.2 53.8 13.1 1.1 4.6 5.6 7.5 10.2 6.4s7.5-5.6 6.4-10.2c-8.5-37.2-49.7-48.6-81.1-22.5-14.7-16.8-25.5-24.6-29-29-20.2-20-54.4-9.8-60.5 17.9-2.3 10.7-6.3 20.9-11.8 30.3l-31 53.7c-29.1 50.4-19.1 112.8 20.6 151.9-9.2 24.2-22.4 45-39.3 61.9-34.2 34.2-72.6 41.5-108.3 57.2l-8.3-11c-27.2-38-18.5-91 19.4-118.2 5.7-4.1 13.7-2.8 17.8 2.9 15.2 21.1 19.8 47.6 12.6 72.7-1.3 4.5 1.3 9.3 5.9 10.5 4.5 1.3 9.3-1.3 10.5-5.9 8.6-30.1 3-61.9-15.2-87.3-9.6-13.4-28.3-16.5-41.7-6.8-45.4 32.7-55.9 96.5-23.1 142.1l6.5 9c-43 23.4-66.4 62.3-74 111.2-.8 5.2 3.2 9.8 8.4 9.8 4.1 0 7.8-3 8.4-7.2 4.3-27.3 13.8-50.3 28.4-68.5 13.7-16.9 29.4-26.6 46.6-35 4.9-2.4 36.5-14.6 48.3-19.3l5.2 12.2c22.2 51.8 82.3 75.5 133.6 53.5 15.2-6.5 22.2-24 15.7-39.2-12.1-28.3-36.1-49.4-65.8-57.9-4.5-1.3-9.3 1.3-10.5 5.9-1.3 4.5 1.3 9.3 5.9 10.5 24.7 7 44.7 24.6 54.8 48.2 2.8 6.5-.2 14-6.7 16.8-42.9 18.4-92.8-1.6-111.2-44.5l-5.2-12.2c43.5-20.1 75.6-52.3 95-99.3 60.2 44.1 145.2 26.3 182.5-38.3l31-53.7c5.5-9.5 12.3-18 20.4-25.4 21-19.2 12.6-53.9-14.8-61.4z"/></g></svg>