<svg id="Layer_1" height="512" viewBox="0 0 64 64" width="512" xmlns="http://www.w3.org/2000/svg" data-name="Layer 1"><path d="m15 22.59a7 7 0 1 1 7-7 7 7 0 0 1 -7 7zm0-12a5 5 0 1 0 5 5 5 5 0 0 0 -5-5z"/><path d="m15 27.59a12 12 0 1 1 10.79-17.24c.13.25.26.54.38.84a12 12 0 0 1 0 8.76 8.56 8.56 0 0 1 -.41.91 12 12 0 0 1 -10.76 6.73zm0-22a10 10 0 1 0 9 14.41c.14-.26.23-.49.33-.72a10.08 10.08 0 0 0 0-7.28 7.22 7.22 0 0 0 -.31-.69 9.91 9.91 0 0 0 -9.02-5.72z"/><path d="m30 21.39h-5.11a1 1 0 0 1 -.89-.49 1 1 0 0 1 0-1c.12-.22.21-.45.31-.68a10.08 10.08 0 0 0 0-7.28 7.22 7.22 0 0 0 -.31-.69 1 1 0 0 1 .88-1.47h5.12a1 1 0 0 1 1 1v9.6a1 1 0 0 1 -1 1.01zm-3.62-2h2.62v-7.6h-2.62a11.77 11.77 0 0 1 .62 3.8 12.05 12.05 0 0 1 -.62 3.8z"/><path d="m48.41 56a7 7 0 1 1 7-7 7 7 0 0 1 -7 7zm0-12a5 5 0 1 0 5 5 5 5 0 0 0 -5-5z"/><path d="m48.41 61a12 12 0 0 1 -5.23-22.79 7.47 7.47 0 0 1 .85-.38 12 12 0 0 1 8.75 0 9.34 9.34 0 0 1 .91.41 12 12 0 0 1 -5.28 22.76zm0-22a10.07 10.07 0 0 0 -3.63.68 6.07 6.07 0 0 0 -.69.31 10 10 0 1 0 8.69 0 7.43 7.43 0 0 0 -.74-.33 10 10 0 0 0 -3.63-.66z"/><path d="m53.21 40.11a1 1 0 0 1 -.47-.12 7.13 7.13 0 0 0 -.7-.31 10.1 10.1 0 0 0 -7.26 0 6.07 6.07 0 0 0 -.69.31 1 1 0 0 1 -1 0 1 1 0 0 1 -.49-.86v-5.13a1 1 0 0 1 1-1h9.6a1 1 0 0 1 1 1v5.11a1 1 0 0 1 -.48.86 1.07 1.07 0 0 1 -.51.14zm-8.6-5.11v2.62a12 12 0 0 1 7.6 0v-2.62z"/><path d="m38 19.59a4 4 0 1 1 4-4 4 4 0 0 1 -4 4zm0-6a2 2 0 1 0 2 2 2 2 0 0 0 -2-2z"/><path d="m48 19.59a4 4 0 1 1 4-4 4 4 0 0 1 -4 4zm0-6a2 2 0 1 0 2 2 2 2 0 0 0 -2-2z"/><path d="m48 30.59a4 4 0 1 1 4-4 4 4 0 0 1 -4 4zm0-6a2 2 0 1 0 2 2 2 2 0 0 0 -2-2z"/><path d="m45 16.59h-4a1 1 0 0 1 0-2h4a1 1 0 0 1 0 2z"/><path d="m35 16.59h-5a1 1 0 0 1 0-2h5a1 1 0 0 1 0 2z"/><path d="m48 34.59a1 1 0 0 1 -1-1v-4a1 1 0 0 1 2 0v4a1 1 0 0 1 -1 1z"/><path d="m48 24.59a1 1 0 0 1 -1-1v-5a1 1 0 0 1 2 0v5a1 1 0 0 1 -1 1z"/></svg>