<svg id="Capa_1" enable-background="new 0 0 512 512" height="512" viewBox="0 0 512 512" width="512" xmlns="http://www.w3.org/2000/svg"><g><path d="m213.212 131.487c0-45.169-36.819-81.917-82.076-81.917-45.272 0-82.104 36.748-82.104 81.917 0 45.154 36.832 81.89 82.104 81.89 45.257 0 82.076-36.735 82.076-81.89zm-144.179 0c0-34.142 27.859-61.917 62.104-61.917 34.229 0 62.076 27.775 62.076 61.917 0 34.126-27.847 61.89-62.076 61.89-34.245 0-62.104-27.764-62.104-61.89z"/><path d="m380.864 298.596c-45.257 0-82.076 36.748-82.076 81.917s36.819 81.917 82.076 81.917c45.272 0 82.104-36.748 82.104-81.917s-36.832-81.917-82.104-81.917zm0 143.834c-34.229 0-62.076-27.775-62.076-61.917s27.847-61.917 62.076-61.917c34.244 0 62.104 27.775 62.104 61.917s-27.86 61.917-62.104 61.917z"/><path d="m380.864 249.689c-45.121 0-87.147 23.34-111.069 61.288h-48.188c-5.523 0-10 4.478-10 10v49.535h-55.67c-8.161 0-14.8-6.623-14.8-14.764v-55.416h49.69c5.523 0 10-4.478 10-10v-48.037c38.032-23.868 61.418-65.794 61.418-110.809 0-72.136-58.815-130.823-131.108-130.823-72.309.001-131.137 58.689-131.137 130.824 0 45.015 23.387 86.94 61.418 110.809v48.037c0 5.522 4.477 10 10 10h49.718v55.416c0 19.169 15.611 34.764 34.8 34.764h55.67v49.535c0 5.522 4.477 10 10 10h48.19c23.936 37.95 65.961 61.288 111.067 61.288 72.309 0 131.136-58.688 131.136-130.823s-58.827-130.824-131.135-130.824zm-304.516-21.769c-34.757-19.69-56.348-56.641-56.348-96.433 0-61.108 49.855-110.823 111.136-110.823 61.265 0 111.108 49.715 111.108 110.823 0 39.792-21.591 76.743-56.348 96.433-3.134 1.775-5.071 5.1-5.071 8.701v43.712h-99.407v-43.712c0-3.601-1.937-6.926-5.07-8.701zm304.516 263.416c-39.903 0-76.963-21.549-96.717-56.236-1.779-3.123-5.096-5.052-8.69-5.052h-43.851v-99.07h43.851c3.595 0 6.914-1.93 8.691-5.055 19.738-34.686 56.797-56.233 96.715-56.233 61.281 0 111.136 49.715 111.136 110.823s-49.854 110.823-111.135 110.823z"/><path d="m265.027 356.293c-5.523 0-10 4.478-10 10v28.439c0 5.522 4.477 10 10 10s10-4.478 10-10v-28.439c0-5.522-4.477-10-10-10z"/><path d="m145.393 237.024h-28.542c-5.523 0-10 4.478-10 10s4.477 10 10 10h28.542c5.523 0 10-4.478 10-10s-4.477-10-10-10z"/><path d="m330.16 191.949c.104 0 .208-.004.312-.003l73.404-1.47c17.462-.344 32.067-8.867 40.069-23.385 8.32-15.096 8.138-34.048-.465-48.283-7.736-12.8-20.801-19.862-36.907-20.001-.149-16.002-7.19-28.992-19.943-36.703-14.31-8.65-33.372-8.831-48.562-.462-14.495 7.987-23.005 22.522-23.349 39.876l-1.475 73.275c-.067 4.671 1.67 9.013 4.895 12.229 3.192 3.184 7.452 4.927 12.021 4.927zm4.555-90.031c.258-13.029 7.214-19.567 13.005-22.759 4.434-2.443 9.505-3.664 14.489-3.664 5.027 0 9.967 1.243 14.073 3.726 6.921 4.184 10.478 11.396 10.285 20.862l-.17 8.707c-.053 2.72 1.004 5.343 2.927 7.267 1.923 1.923 4.539 2.991 7.266 2.927l8.737-.17c9.553-.186 16.831 3.383 21.036 10.34 4.897 8.104 4.924 19.471.066 28.284-3.201 5.808-9.78 12.784-22.951 13.043l-70.172 1.405z"/></g></svg>