<svg id="Capa_1" enable-background="new 0 0 512 512" height="512" viewBox="0 0 512 512" width="512" xmlns="http://www.w3.org/2000/svg"><g><g><g><path d="m131.136 213.24c-45.272 0-82.104-36.818-82.104-82.075 0-45.272 36.832-82.104 82.104-82.104 45.257 0 82.076 36.831 82.076 82.104 0 45.257-36.819 82.075-82.076 82.075zm0-144.178c-34.244 0-62.104 27.859-62.104 62.104 0 34.229 27.859 62.075 62.104 62.075 34.229 0 62.076-27.847 62.076-62.075 0-34.245-27.847-62.104-62.076-62.104z" fill="#020288"/></g><g><path d="m380.864 462.938c-45.257 0-82.076-36.831-82.076-82.104s36.819-82.104 82.076-82.104c45.272 0 82.104 36.831 82.104 82.104s-36.832 82.104-82.104 82.104zm0-144.207c-34.229 0-62.076 27.859-62.076 62.104s27.847 62.104 62.076 62.104c34.244 0 62.104-27.859 62.104-62.104s-27.86-62.104-62.104-62.104z" fill="#020288"/></g><g fill="#020288"><path d="m380.864 249.699c-45.128 0-87.157 23.398-111.077 61.446h-48.181c-5.523 0-10 4.478-10 10v49.689h-55.67c-8.161 0-14.8-6.652-14.8-14.828v-55.585h49.69c5.523 0 10-4.478 10-10v-48.183c38.03-23.927 61.418-65.954 61.418-111.074 0-72.309-58.815-131.137-131.108-131.137-72.308.001-131.136 58.829-131.136 131.138 0 45.12 23.388 87.147 61.418 111.074v48.183c0 5.522 4.477 10 10 10h49.718v55.585c0 19.204 15.611 34.828 34.8 34.828h55.67v49.689c0 5.522 4.477 10 10 10h48.183c23.935 38.047 65.964 61.447 111.075 61.447 72.309 0 131.136-58.828 131.136-131.137s-58.828-131.135-131.136-131.135zm-304.507-21.823c-34.762-19.745-56.357-56.803-56.357-96.711 0-61.281 49.855-111.137 111.136-111.137 61.265 0 111.108 49.855 111.108 111.137 0 39.908-21.595 76.966-56.357 96.711-3.128 1.777-5.061 5.098-5.061 8.695v43.851h-99.408v-43.851c0-3.597-1.932-6.918-5.061-8.695zm304.507 264.096c-39.898 0-76.956-21.605-96.711-56.386-1.777-3.129-5.098-5.062-8.695-5.062h-43.851v-99.379h43.851c3.599 0 6.92-1.934 8.697-5.063 19.739-34.778 56.796-56.383 96.71-56.383 61.281 0 111.136 49.855 111.136 111.136-.001 61.281-49.856 111.137-111.137 111.137z"/><path d="m265.027 356.579c-5.523 0-10 4.478-10 10v28.513c0 5.522 4.477 10 10 10s10-4.478 10-10v-28.513c0-5.522-4.477-10-10-10z"/><path d="m116.852 257.001h28.542c5.523 0 10-4.478 10-10s-4.477-10-10-10h-28.542c-5.523 0-10 4.478-10 10s4.477 10 10 10z"/></g></g><path clip-rule="evenodd" d="m330.272 181.948 73.407-1.47c47.474-.933 48.976-72.624 1.445-71.663l-8.73.17.17-8.707c.964-47.351-70.913-45.796-71.849 1.442l-1.474 73.218c-.028 2.007.709 3.76 1.956 5.004 1.277 1.271 3.063 2.035 5.075 2.006z" fill="#ffbdbc" fill-rule="evenodd"/></g></svg>