<svg id="Capa_1" enable-background="new 0 0 512 512" height="512" viewBox="0 0 512 512" width="512" xmlns="http://www.w3.org/2000/svg"><circle cx="195.999" cy="186.5" r="10"/><circle cx="315.999" cy="186.5" r="10"/><path d="m511.868 500.382-3.51-21.413c-7.884-48.086-42.264-87.496-87.733-102.464 2.747-4.527 4.334-9.833 4.334-15.505 0-4.375-.949-8.53-2.64-12.281 4.52-.723 9.374-1.668 14.43-2.908 11.71-2.9 22.22-6.82 31.229-11.63 11.46-6.11 20.92-13.87 28.11-23.07 1.64-2.11 2.36-4.73 2.02-7.38-.33-2.65-1.67-5.01-3.779-6.65-1.78-1.38-3.9-2.1-6.13-2.1-3.12 0-6 1.41-7.91 3.86-12.34 16.07-33.08 23.85-48.311 27.55-18.189 4.48-36.689 4.61-36.77 4.61h-.07s-.01 0-.02 0c-.022 0-.043.003-.065.002-.032 0-.063-.002-.095-.002-16.542 0-30 13.458-30 30 0 3.135.485 6.157 1.381 9h-22.533l-7.063-28.251c12.752-9.714 24.573-22 35.411-36.851 30.548-41.86 33.846-94.997 33.846-115.898.001-10.159-.308-19.984-.917-29.213-.048-49.546-10.484-86.605-31.904-113.283-24.779-30.859-64.202-46.505-117.178-46.505-50.193 0-88.828 15.667-114.832 46.566-21.79 25.892-33.344 61.498-33.434 102.99-1.164 12.31-1.734 25.217-1.735 39.443 0 20.903 3.298 74.04 33.846 115.899 10.837 14.851 22.658 27.136 35.41 36.849l-7.063 28.253h-36.512c-.036 0-.07.004-.106.004-8.047.022-16.133.793-24.038 2.299-53.35 10.162-95.102 53.028-103.895 106.666l-3.511 21.413c-.475 2.896.347 5.854 2.246 8.091 1.901 2.238 4.688 3.527 7.623 3.527h492c2.935 0 5.722-1.289 7.621-3.526 1.9-2.237 2.722-5.195 2.247-8.092zm-116.909-149.382c5.514 0 10 4.486 10 10 0 5.236-4.047 9.537-9.176 9.958-1.248-.151-2.498-.282-3.749-.397-4.091-1.254-7.075-5.065-7.075-9.561 0-5.514 4.486-10 10-10zm-55.757 39h40.472c-15.862 14.076-31.898 25.612-47.674 34.293-1.646.907-3.544 1.106-5.35.566-1.819-.544-3.31-1.77-4.196-3.449l-5.332-10.095c-1.742-3.298-.501-7.421 2.75-9.349 6.452-3.463 12.896-7.449 19.33-11.966zm-151.832-14.251 5.621-22.482c19.219 10.458 40.263 15.733 63.009 15.733s43.791-5.275 63.01-15.732l5.62 22.481c-46.119 31.036-91.139 31.036-137.26 0zm116.475 58.668c-.457 1.118-1.622 3.119-4.279 3.963-8.587 2.727-17.276 4.673-25.827 5.784-2.651.343-4.505-.89-5.376-1.656-.897-.789-2.403-2.526-2.403-5.307v-12.345c0-3.183 2.151-5.932 5.129-6.738 6.479-.818 20.216-4.138 20.605-4.138 2.563 0 4.943 1.374 6.181 3.717l5.687 10.766c1.331 2.529.749 4.815.283 5.954zm-57.886-9.571v12.346c0 2.781-1.507 4.519-2.405 5.308-.872.766-2.736 1.999-5.378 1.654-8.565-1.117-17.268-3.072-25.866-5.811-2.657-.847-3.821-2.848-4.279-3.966-.465-1.138-1.047-3.426.289-5.956l5.682-10.758h.001c1.237-2.343 3.617-3.716 6.179-3.716.396 0 14.165 3.339 20.653 4.163 2.974.805 5.124 3.554 5.124 6.736zm112.902-135.846h-68.265c.235-1.634.363-3.302.363-5 0-5.365-1.217-10.451-3.384-15h82.276c-3.226 7.19-6.899 13.875-10.99 20zm-102.86-269c84.336 0 125.524 40.829 128.862 128.25-23.287-4.892-69.395-19.843-82.818-62.736-1.156-3.691-4.337-6.386-8.168-6.918-.461-.064-.921-.096-1.378-.096-3.342 0-6.503 1.678-8.366 4.525-11.17 17.071-34.257 33.127-63.342 44.052-29.123 10.939-61.741 15.755-92.834 13.802 2.1-42.52 20.582-120.879 128.044-120.879zm-121.207 229c-7.897-26.263-8.794-50.559-8.794-59.999.001-9.995.292-19.289.885-28.152 33.817 2.091 69.282-3.159 100.939-15.05 25.452-9.561 47.119-22.994 61.864-38.075 10.263 19.491 27.167 35.069 50.448 46.444 17.304 8.455 34.445 12.622 45.417 14.604.298 6.508.447 13.282.446 20.228 0 9.441-.899 33.737-8.795 60h-85.419c.852-3.592.94-7.368.193-11.099-1.084-5.416-6.352-8.927-11.768-7.844-5.415 1.083-8.927 6.352-7.844 11.767.484 2.422-.571 4.16-1.243 4.98-.673.82-2.17 2.196-4.641 2.196h-20.966c-2.471 0-3.968-1.376-4.641-2.196-.672-.82-1.728-2.558-1.243-4.98l6.172-30.862c1.083-5.416-2.429-10.684-7.845-11.767-5.417-1.088-10.684 2.429-11.767 7.845l-6.172 30.862c-.746 3.731-.658 7.507.193 11.099h-85.419zm136.165 35c0 8.271-6.729 15-15 15s-15-6.729-15-15 6.729-15 15-15 15 6.729 15 15zm-117.819 5c-4.091-6.125-7.764-12.812-10.988-20h82.192c-2.167 4.549-3.384 9.635-3.384 15 0 1.698.128 3.366.363 5zm15.847 20h62.511c6.315 6.18 14.949 10 24.461 10s18.146-3.82 24.461-10h62.591c-24.645 26.863-53.266 40-87.011 40s-62.367-13.135-87.013-40zm3.812 81c1.566 1.1 3.133 2.163 4.701 3.2l.054.036c4.825 3.191 9.656 6.087 14.491 8.687 3.236 1.916 4.472 6.021 2.738 9.303l-5.349 10.128c-.888 1.681-2.379 2.906-4.199 3.45-1.803.54-3.704.339-5.349-.569-15.725-8.667-31.709-20.171-47.558-34.234h40.471zm249.201 102v-21c0-5.523-4.478-10-10-10s-10 4.477-10 10v21h-292v-21c0-5.523-4.478-10-10-10s-10 4.477-10 10v21h-68.227l1.605-9.795c7.44-45.386 42.765-81.657 87.9-90.255.268-.051.539-.091.808-.14.479 4.819 2.73 9.382 6.544 12.776 17.065 15.194 34.427 27.698 51.601 37.163 4.042 2.229 8.478 3.361 12.962 3.361 2.445 0 4.902-.349 7.32-1.028 3.26 6.341 8.877 11.135 15.726 13.317 9.731 3.1 31.655 6.811 32.805 6.811 6.13 0 12.101-2.135 16.909-6.043 4.81 3.915 10.786 6.053 16.922 6.053 1.144 0 23.026-3.691 32.746-6.778 6.851-2.177 12.471-6.968 15.735-13.307 2.423.682 4.887 1.033 7.338 1.033 4.479 0 8.911-1.13 12.949-3.353 17.215-9.474 34.617-22 51.725-37.229 3.812-3.394 6.037-7.959 6.516-12.776.278.051.56.087.837.14 45.135 8.597 80.459 44.868 87.9 90.255l1.605 9.795z"/><circle cx="501.95" cy="263.1" r="10"/></svg>