<svg id="Layer_1" viewBox="0 0 64 64" xmlns="http://www.w3.org/2000/svg" data-name="Layer 1"><path d="m40 61h-16a1 1 0 0 1 -1-1v-14.93a1 1 0 0 1 .29-.71l6.54-6.53a4 4 0 0 0 0-5.66 4 4 0 0 0 -5.23-.37 1 1 0 0 1 -1.05.1 1 1 0 0 1 -.55-.9v-7a1 1 0 0 1 1-1h16a1 1 0 0 1 1 1v36a1 1 0 0 1 -1 1zm-15-2h14v-34h-14v4.34a6.06 6.06 0 0 1 6.25 1.41 6 6 0 0 1 0 8.5l-6.25 6.23z"/><path d="m32 25a1 1 0 0 1 -1-1v-6a1 1 0 0 1 2 0v6a1 1 0 0 1 -1 1z"/><path d="m32 19.07a1 1 0 0 1 -.71-.29l-2.83-2.78a7 7 0 0 1 0-9.9l2.83-2.83a1 1 0 0 1 1.42 0l2.83 2.83a7 7 0 0 1 0 9.9l-2.83 2.83a1 1 0 0 1 -.71.24zm0-13.73-2.12 2.12a5 5 0 0 0 0 7.08l2.12 2.12 2.12-2.12a5 5 0 0 0 0-7.08z"/><path d="m20 50.07a1 1 0 0 1 -.71-.29l-10.54-10.53a6 6 0 0 1 0-8.5 6 6 0 0 1 8.5 0l2.75 2.76 2.75-2.76a4.94 4.94 0 0 1 .69-.58 6 6 0 0 1 7.81.58 6 6 0 0 1 0 8.5l-10.54 10.53a1 1 0 0 1 -.71.29zm-7-19.07a4 4 0 0 0 -2.83 1.17 4 4 0 0 0 0 5.66l9.83 9.83 9.83-9.83a4 4 0 0 0 0-5.66 4 4 0 0 0 -5.23-.37 2.3 2.3 0 0 0 -.43.37l-3.46 3.47a1 1 0 0 1 -1.42 0l-3.46-3.47a4 4 0 0 0 -2.83-1.17z"/></svg>