<svg fill="none" height="48" viewBox="0 0 48 48" width="48" xmlns="http://www.w3.org/2000/svg"><g id="sex, Collar, bdsm, chain" stroke="#333" stroke-width="2"><path id="Ellipse 87" d="m4 13.0467c3.95737-2.417 11.4315-4.0467 20-4.0467s16.0426 1.6297 20 4.0467"/><path id="Vector" d="m47 9c0 4.4183-10.2975 8-23 8s-23-3.5817-23-8m46 0c0-4.41828-10.2975-8-23-8s-23 3.58172-23 8m46 0v9c0 4.4183-10.2975 8-23 8s-23-3.5817-23-8v-9"/><path id="Ellipse 88" d="m28 29.5c0 1.933-1.7909 3.5-4 3.5s-4-1.567-4-3.5 1.7909-3.5 4-3.5 4 1.567 4 3.5z"/><path id="Ellipse 89" d="m27.8866 33.1134c1.1487 1.1487 1.4591 2.7007.6933 3.4665s-2.3178.4554-3.4665-.6933-1.4591-2.7007-.6933-3.4665 2.3178-.4554 3.4665.6933z"/><path id="Ellipse 95" d="m31.75 35.0497c1.3737.2436 2.3754 1.3143 2.2373 2.3914s-1.3636 1.7528-2.7373 1.5092-2.3754-1.3143-2.2373-2.3914 1.3636-1.7528 2.7373-1.5092z"/><path id="Ellipse 96" d="m35.9876 35.1912c1.3512-.4707 2.6758-.0425 2.9588.9565.283.9989-.5829 2.1903-1.934 2.6611-1.3512.4707-2.6759.0425-2.9588-.9565-.283-.9989.5829-2.1903 1.934-2.6611z"/><path id="Ellipse 97" d="m42.5667 35.2485c1.6267.5329 2.6917 1.749 2.3787 2.7163-.3129.9673-1.8853 1.3195-3.5121.7867-1.6267-.5329-2.6917-1.749-2.3787-2.7163.3129-.9673 1.8853-1.3195 3.5121-.7867z"/><path id="Ellipse 98" d="m47 41.0047c-.0039 1.6569-.9025 2.9979-2.007 2.9953-1.1046-.0026-1.9969-1.3478-1.993-3.0047s.9025-2.9979 2.007-2.9953c1.1046.0026 1.9969 1.3478 1.993 3.0047z"/><path id="Ellipse 99" d="m42 47c-1.6569 0-3-.8954-3-2s1.3431-2 3-2 3 .8954 3 2-1.3431 2-3 2z"/><path id="Ellipse 100" d="m36 47c-1.6569 0-3-.8954-3-2s1.3431-2 3-2 3 .8954 3 2-1.3431 2-3 2z"/><path id="Ellipse 101" d="m30 47c-1.6569 0-3-.8954-3-2s1.3431-2 3-2 3 .8954 3 2-1.3431 2-3 2z"/><path id="Ellipse 102" d="m24 47c-1.6569 0-3-.8954-3-2s1.3431-2 3-2 3 .8954 3 2-1.3431 2-3 2z"/><path id="Ellipse 103" d="m18 47c-1.6569 0-3-.8954-3-2s1.3431-2 3-2 3 .8954 3 2-1.3431 2-3 2z"/><path id="Ellipse 92" d="m11.3784 45.805c-1.62051-.4751-2.65595-1.6684-2.31268-2.6653.34328-.9969 1.93528-1.4198 3.55588-.9447 1.6205.4751 2.656 1.6684 2.3127 2.6653s-1.9353 1.4198-3.5559.9447z"/><path id="Ellipse 93" d="m5.06305 41.8365c-1.12971-1.1667-1.40217-2.7108-.60856-3.4489s2.35276-.3907 3.48246.7759c1.12971 1.1667 1.40217 2.7108.60856 3.4489s-2.35276.3907-3.48246-.7759z"/><path id="Ellipse 94" d="m1.61021 37.0773c-.903876-1.5458-.790522-3.2813.25318-3.8763 1.04371-.595 2.62253.1758 3.5264 1.7217.90388 1.5458.79052 3.2813-.25318 3.8763s-2.62253-.1758-3.5264-1.7217z"/><path id="Vector_2" d="m6 20 2-1.5-2-1.5m36 3-2-1.5 2-1.5m-29 5 2-1.5-2-1.5m22 3-2-1.5 2-1.5m-15 4 2-1.5-2-1.5m8 3-2-1.5 2-1.5" stroke-linecap="round" stroke-linejoin="round"/></g></svg>