<svg id="Capa_1" enable-background="new 0 0 512 512" height="512" viewBox="0 0 512 512" width="512" xmlns="http://www.w3.org/2000/svg"><g><path d="m480.452 128.258h-448.904c-17.396 0-31.548 14.153-31.548 31.549v128.258c0 17.396 14.152 31.548 31.548 31.548h153.217c3.762 35.984 34.271 64.129 71.235 64.129s67.473-28.145 71.235-64.129h153.217c17.396 0 31.548-14.153 31.548-31.548v-128.258c0-17.396-14.152-31.549-31.548-31.549zm0 176.355h-153.231c-1.548-14.738-7.615-28.68-17.499-39.879-2.741-3.105-7.48-3.401-10.586-.66-3.105 2.741-3.401 7.48-.66 10.586 9.127 10.341 14.153 23.642 14.153 37.453 0 31.225-25.404 56.629-56.629 56.629s-56.629-25.404-56.629-56.629c0-22.485 13.21-42.466 33.097-51.529v3.432c0 5.037 1.596 9.706 4.302 13.538-12.118 6.77-20.334 19.72-20.334 34.559 0 21.816 17.749 39.565 39.564 39.565s39.564-17.749 39.564-39.565c0-14.839-8.216-27.79-20.334-34.559 2.706-3.832 4.302-8.5 4.302-13.538v-32.064c0-12.976-10.557-23.532-23.532-23.532s-23.532 10.556-23.532 23.532v12.49c-26.24 9.095-44.81 32.615-47.691 60.171h-153.229c-9.125 0-16.548-7.423-16.548-16.548v-101.414c4.814 2.979 10.483 4.703 16.548 4.703h16.032c4.142 0 7.5-3.357 7.5-7.5 0-4.142-3.358-7.5-7.5-7.5h-16.032c-9.125 0-16.548-7.423-16.548-16.548s7.423-16.549 16.548-16.549h448.903c9.125 0 16.548 7.424 16.548 16.549s-7.423 16.548-16.548 16.548h-400.806c-4.142 0-7.5 3.358-7.5 7.5 0 4.143 3.358 7.5 7.5 7.5h400.807c6.065 0 11.734-1.724 16.548-4.703v101.413c0 9.125-7.423 16.549-16.548 16.549zm-232.984-40.597v-32.064c0-4.705 3.828-8.532 8.532-8.532s8.532 3.828 8.532 8.532v32.064c0 4.705-3.828 8.532-8.532 8.532s-8.532-3.827-8.532-8.532zm-14.857 40.597c3.178-9.887 12.46-17.064 23.389-17.064s20.211 7.177 23.389 17.064zm46.778 15c-3.178 9.887-12.46 17.065-23.389 17.065s-20.211-7.178-23.389-17.065z"/><path d="m151.791 224.452c-12.976 0-23.532 10.557-23.532 23.532s10.557 23.532 23.532 23.532 23.532-10.557 23.532-23.532-10.557-23.532-23.532-23.532zm0 32.064c-4.705 0-8.532-3.828-8.532-8.532s3.828-8.532 8.532-8.532 8.532 3.828 8.532 8.532-3.828 8.532-8.532 8.532z"/><path d="m55.597 224.452c-12.976 0-23.532 10.557-23.532 23.532s10.557 23.532 23.532 23.532 23.532-10.557 23.532-23.532-10.557-23.532-23.532-23.532zm0 32.064c-4.705 0-8.532-3.828-8.532-8.532s3.828-8.532 8.532-8.532 8.532 3.828 8.532 8.532-3.828 8.532-8.532 8.532z"/><path d="m456.403 224.452c-12.976 0-23.532 10.557-23.532 23.532s10.557 23.532 23.532 23.532 23.532-10.557 23.532-23.532-10.556-23.532-23.532-23.532zm0 32.064c-4.705 0-8.532-3.828-8.532-8.532s3.828-8.532 8.532-8.532 8.532 3.828 8.532 8.532-3.827 8.532-8.532 8.532z"/><path d="m360.209 224.452c-12.976 0-23.532 10.557-23.532 23.532s10.557 23.532 23.532 23.532 23.532-10.557 23.532-23.532-10.556-23.532-23.532-23.532zm0 32.064c-4.705 0-8.532-3.828-8.532-8.532s3.828-8.532 8.532-8.532 8.532 3.828 8.532 8.532-3.827 8.532-8.532 8.532z"/></g></svg>