<svg id="Your_Icon" enable-background="new 0 0 100 100" height="100" viewBox="0 0 100 100" width="100" xmlns="http://www.w3.org/2000/svg"><g><g><g/></g><g/></g><g style="fill:none;stroke:#000;stroke-linecap:round;stroke-linejoin:round;stroke-miterlimit:10;stroke-width:3"><circle cx="50" cy="59.946" r="13.436"/><path d="m50 53.512c3.549 0 6.436 2.887 6.436 6.435"/><path d="m63.442 40.581c-1.397-.172-2.83-.318-4.295-.437l-4.274-6.827 4.363-6.63c1.429.117 2.827.261 4.19.429 15.188 1.875 26.038 6.837 26.038 12.664 0 4.647-6.902 8.744-17.4 11.164v13.463"/><path d="m15.82 46.509c4.621-2.723 11.955-4.843 20.742-5.929 1.364-.168 2.764-.311 4.192-.429l-4.19-6.801 4.289-6.671c-1.463.119-2.895.265-4.291.438-15.181 1.876-26.027 6.838-26.027 12.663 0 4.657 6.933 8.762 17.469 11.179l.006 13.466c-10.539-2.418-17.475-6.523-17.475-11.182v-13.463"/><path d="m84.181 46.509c-4.619-2.723-11.953-4.842-20.738-5.928-1.397-.172-2.83-.318-4.295-.437l-4.274-6.827 4.363-6.63c1.429.117 2.827.261 4.19.429 15.188 1.875 26.038 6.837 26.038 12.664"/><path d="m72.064 64.407c10.498-2.42 17.4-6.517 17.4-11.164v-13.463"/><path d="m72.064 57.684-8.628 2.262"/><path d="m36.564 59.946-8.595-2.262"/></g></svg>