<svg id="Capa_1" enable-background="new 0 0 511.982 511.982" height="512" viewBox="0 0 511.982 511.982" width="512" xmlns="http://www.w3.org/2000/svg"><g><path d="m435.13 413.508 15.642-46.125c1.222-3.605.292-7.591-2.399-10.283-2.693-2.691-6.679-3.62-10.283-2.399l-46.124 15.641-39.034-29.129c-3.05-2.277-7.129-2.622-10.521-.896-3.392 1.728-5.508 5.232-5.459 9.038l.623 48.701-39.766 28.122c-3.107 2.198-4.698 5.969-4.103 9.729.596 3.759 3.273 6.855 6.908 7.985l46.51 14.457 14.457 46.509c1.13 3.635 4.225 6.313 7.984 6.909.523.083 1.047.124 1.566.124 3.213 0 6.271-1.551 8.163-4.227l28.121-39.765 48.7.622c3.806.049 7.309-2.067 9.038-5.459 1.728-3.392 1.381-7.47-.896-10.521zm-32.715 34.325c-3.262-.026-6.393 1.538-8.293 4.225l-19.457 27.514-10.004-32.181c-.977-3.143-3.438-5.604-6.58-6.581l-32.181-10.002 27.515-19.458c2.687-1.9 4.267-5.001 4.225-8.292l-.431-33.697 27.008 20.155c2.639 1.968 6.073 2.513 9.192 1.456l31.914-10.822-10.822 31.914c-1.057 3.117-.512 6.554 1.456 9.192l20.154 27.009z"/><path d="m153.104 402.906 222.833-222.834 31.648 14.873c1.36.64 2.811.95 4.25.95 2.597 0 5.156-1.012 7.074-2.929l90.14-90.139c1.875-1.875 2.929-4.419 2.929-7.071s-1.054-5.196-2.929-7.071l-85.664-85.665c-3.906-3.905-10.236-3.905-14.143 0l-90.139 90.139c-2.98 2.98-3.771 7.51-1.979 11.324l14.758 31.404-222.899 222.898-1.429-1.429c-1.876-1.875-4.419-2.929-7.071-2.929s-5.195 1.054-7.071 2.929l-80.752 80.752c-8.164 8.164-12.66 19.017-12.66 30.562s4.496 22.398 12.659 30.561c8.163 8.164 19.017 12.659 30.562 12.659 11.544 0 22.397-4.496 30.561-12.659l80.753-80.753c1.875-1.875 2.929-4.419 2.929-7.071s-1.054-5.196-2.929-7.071zm263.209-378.673 71.522 71.523-78.102 78.101-48.656-22.866-22.865-48.657zm-293.187 348.695 217.799-217.798 3.586 7.631c.991 2.109 2.688 3.806 4.798 4.797l7.387 3.471-217.734 217.735-7.918-7.918zm-45.158 93.832-32.838-32.837 20.605-20.605 32.838 32.838zm-18.329 18.329c-4.386 4.385-10.216 6.801-16.418 6.801-6.203 0-12.033-2.416-16.419-6.801s-6.802-10.216-6.802-16.419c0-6.202 2.416-12.033 6.802-16.419l4.186-4.186 32.838 32.837zm53.076-53.077-32.838-32.838 20.605-20.605 32.838 32.838z"/><path d="m33.8 157.242c2.237 3.079 6.026 4.624 9.78 3.978l53.481-9.172 37.875 38.856c1.913 1.962 4.508 3.021 7.162 3.021 1.033 0 2.075-.161 3.089-.49 3.62-1.176 6.259-4.306 6.807-8.073l7.802-53.698 48.659-24.015c3.413-1.685 5.574-5.161 5.574-8.967s-2.161-7.283-5.574-8.967l-48.659-24.015-7.802-53.698c-.548-3.767-3.187-6.896-6.807-8.073-3.618-1.177-7.594-.196-10.251 2.531l-37.874 38.856-53.482-9.172c-3.761-.645-7.543.899-9.78 3.978-2.237 3.08-2.533 7.162-.762 10.531l25.251 48.029-25.251 48.028c-1.771 3.37-1.476 7.452.762 10.532zm44.638-63.214-18.268-34.747 38.692 6.636c3.245.558 6.555-.52 8.852-2.876l27.401-28.111 5.645 38.849c.474 3.257 2.52 6.073 5.471 7.529l35.203 17.374-35.203 17.374c-2.951 1.457-4.997 4.272-5.471 7.529l-5.645 38.849-27.401-28.111c-1.898-1.948-4.488-3.02-7.161-3.02-.562 0-1.127.047-1.69.144l-38.692 6.636 18.269-34.748c1.53-2.913 1.53-6.394-.002-9.307z"/><path d="m503.419 248.991-29.225-4.247-13.069-26.483c-1.685-3.413-5.161-5.574-8.968-5.574-3.806 0-7.283 2.161-8.967 5.574l-13.071 26.483-29.225 4.247c-3.768.547-6.896 3.186-8.073 6.806-1.176 3.62-.195 7.594 2.53 10.251l21.147 20.614-4.992 29.107c-.644 3.751.899 7.543 3.979 9.781 1.742 1.266 3.806 1.91 5.879 1.91 1.592 0 3.189-.379 4.652-1.149l26.141-13.743 26.14 13.742c3.368 1.771 7.451 1.476 10.531-.761 3.079-2.237 4.622-6.029 3.979-9.781l-4.992-29.107 21.147-20.614c2.726-2.657 3.706-6.631 2.53-10.251-1.177-3.619-4.305-6.257-8.073-6.805zm-33.33 27.019c-2.356 2.297-3.432 5.607-2.876 8.851l2.456 14.318-12.858-6.76c-2.912-1.532-6.395-1.532-9.307 0l-12.859 6.76 2.456-14.318c.556-3.244-.52-6.554-2.876-8.851l-10.403-10.141 14.376-2.089c3.258-.473 6.073-2.519 7.529-5.47l6.431-13.028 6.429 13.028c1.457 2.951 4.272 4.997 7.53 5.47l14.376 2.089z"/><path d="m233.33 82.129c1.953 1.953 4.512 2.929 7.071 2.929s5.118-.977 7.071-2.929l8.509-8.509 8.509 8.509c1.953 1.953 4.512 2.929 7.071 2.929s5.118-.977 7.071-2.929c3.905-3.905 3.905-10.237 0-14.142l-8.509-8.509 8.509-8.509c3.905-3.905 3.905-10.237 0-14.142-3.904-3.905-10.234-3.905-14.143 0l-8.509 8.509-8.509-8.509c-3.906-3.905-10.236-3.905-14.143 0-3.905 3.905-3.905 10.237 0 14.142l8.509 8.509-8.509 8.509c-3.903 3.905-3.903 10.237.002 14.142z"/><path d="m299.709 376.998-8.509-8.509 8.509-8.509c3.905-3.905 3.905-10.237 0-14.143-3.906-3.905-10.236-3.905-14.143 0l-8.509 8.509-8.509-8.509c-3.906-3.905-10.236-3.905-14.143 0-3.905 3.905-3.905 10.237 0 14.143l8.509 8.509-8.509 8.509c-3.905 3.905-3.905 10.237 0 14.143 1.953 1.953 4.512 2.929 7.071 2.929s5.118-.976 7.071-2.929l8.509-8.509 8.509 8.509c1.953 1.953 4.512 2.929 7.071 2.929s5.118-.976 7.071-2.929c3.907-3.906 3.907-10.238.002-14.143z"/><path d="m113.381 233.239c-3.906-3.905-10.236-3.905-14.143 0l-8.509 8.509-8.509-8.509c-3.906-3.905-10.236-3.905-14.143 0-3.905 3.905-3.905 10.237 0 14.143l8.509 8.509-8.509 8.509c-3.905 3.905-3.905 10.237 0 14.143 1.953 1.953 4.512 2.929 7.071 2.929s5.118-.976 7.071-2.929l8.509-8.509 8.509 8.509c1.953 1.953 4.512 2.929 7.071 2.929s5.118-.976 7.071-2.929c3.905-3.905 3.905-10.237 0-14.143l-8.509-8.509 8.509-8.509c3.907-3.906 3.907-10.238.002-14.143z"/></g></svg>