<svg fill="none" height="48" viewBox="0 0 48 48" width="48" xmlns="http://www.w3.org/2000/svg"><g id="bdsm, handcuffs, bondage, Furry" stroke="#333" stroke-width="2"><g stroke-linejoin="round"><path id="Ellipse 107" d="m14 18c0 1.6569-.8954 3-2 3s-2-1.3431-2-3 .8954-3 2-3 2 1.3431 2 3z"/><path id="Ellipse 122" d="m21 8c-1.6569 0-3-.89543-3-2s1.3431-2 3-2 3 .89543 3 2-1.3431 2-3 2z"/><path id="Ellipse 119" d="m30.5271 9.45197c.8079 1.25313.5553 2.73823-.5642 3.31713-1.1195.5788-2.682.0321-3.49-1.2211-.8079-1.2531-.5553-2.73824.5642-3.31706 1.1195-.57881 2.682-.03214 3.49 1.22103z"/><path id="Ellipse 121" d="m10.4729 8.45197c-.8079 1.25316-.55532 2.73823.5642 3.31713 1.1195.5788 2.682.0321 3.49-1.2211.8079-1.25313.5553-2.73824-.5642-3.31706-1.1195-.57881-2.682-.03214-3.49 1.22103z"/><path id="Ellipse 113" d="m8.5 24.5c2.8708-.8 4.388-.7085 7 0"/><path id="Ellipse 120" d="m28.7673 17.4354c2.0861-2.1282 3.4459-2.8076 6.0622-3.5"/><path id="Vector 87" d="m12 23.5v-2.5" stroke-linecap="round"/><path id="Vector 88" d="m12 15v-3" stroke-linecap="round"/><path id="Vector 94" d="m31.5 15-1.5-2" stroke-linecap="round"/><path id="Vector" d="m6.63369 23.0356c-.17382.7325-.85316 1.2284-1.60029 1.1682-.99826-.0806-1.79989.8139-1.61582 1.803.13777.7403-.28209 1.4709-.98903 1.7212-.94457.3343-1.31477 1.4791-.74622 2.3075.42553.6199.33776 1.459-.20676 1.9765-.727545.6915-.602317 1.8886.25242 2.413.6397.3924.89919 1.1948.61125 1.8901-.38472.929.21429 1.9714 1.2074 2.1012.74328.0971 1.30516.7241 1.32358 1.4769.02462 1.006.99384 1.7135 1.95362 1.4261.71833-.215 1.48545.1282 1.80705.8084.42971.9089 1.60151 1.1592 2.36201.5044.5692-.49 1.4089-.49 1.9781 0 .7605.6548 1.9323.4045 2.362-.5044.3216-.6802 1.0887-1.0234 1.8071-.8084.9598.2874 1.929-.4201 1.9536-1.4261.0184-.7528.5803-1.3798 1.3236-1.4769.9931-.1298 1.5921-1.1722 1.2074-2.1012-.288-.6953-.0285-1.4977.6112-1.8901.8548-.5244.98-1.7215.2524-2.413-.5445-.5175-.6322-1.3566-.2067-1.9765.5685-.8284.1983-1.9732-.7462-2.3075-.707-.2503-1.1268-.9809-.9891-1.7212.1841-.9891-.6175-1.8836-1.6158-1.803-.7471.0602-1.4265-.4357-1.6003-1.1682-.1249-.5265-.4993-.9114-.9555-1.0799l-1.3747 4.0511c.1108.4874.9528.5288 1.4291.4887.6363-.0536 1.1472.5415 1.0299 1.1995-.0878.4925.1798.9786.6304 1.1451.6021.2224.8381.984.4757 1.5351-.2713.4124-.2153.9706.1318 1.3149.4637.46.3839 1.2564-.1609 1.6052-.4078.2611-.5732.7949-.3896 1.2575.2452.618-.1366 1.3115-.7697 1.3978-.4737.0646-.8319.4817-.8436.9826-.0157.6692-.6335 1.1399-1.2453.9487-.4578-.143-.9468.0853-1.1518.5378-.2739.6046-1.0208.7711-1.5056.3356-.3628-.326-.898-.326-1.2608 0-.4848.4355-1.2317.269-1.5056-.3356-.20499-.4525-.69396-.6808-1.15183-.5378-.61177.1912-1.22956-.2795-1.24525-.9487-.01175-.5009-.36989-.918-.84367-.9826-.63302-.0863-1.01483-.7798-.76961-1.3978.18354-.4626.01814-.9964-.38961-1.2575-.54482-.3488-.62464-1.1452-.1609-1.6052.34708-.3443.40303-.9025.1318-1.3149-.36241-.5511-.12643-1.3127.47564-1.5351.45061-.1665.71823-.6526.63042-1.1451-.11733-.658.39363-1.2531 1.02994-1.1995.47622.0401 1.31828-.0013 1.42907-.4887l-1.41083-4.0511c-.45618.1685-.83056.5534-.95548 1.0799z"/><path id="Vector_2" d="m26.6766 17.8167c.2168.72-.1253 1.4876-.8059 1.8084-.9093.4285-1.1575 1.6018-.5003 2.3649.4919.5711.4936 1.4122.0041 1.9813-.6541.7604-.401 1.9347.51 2.3669.6819.3235 1.0272 1.0926.8133 1.8117-.2858.9608.4248 1.933 1.4322 1.9597.754.02 1.3831.5841 1.4818 1.3288.132.995 1.1772 1.5971 2.1068 1.2137.6957-.287 1.4998-.0255 1.8941.6161.527.8572 1.7261.985 2.417.2577.5172-.5444 1.3573-.6306 1.979-.2031.8307.5712 1.9764.2027 2.3093-.7427.2492-.7076.9801-1.1267 1.7217-.9872.9909.1864 1.885-.6147 1.8023-1.6148-.0619-.7484.4333-1.4279 1.1666-1.6005.9797-.2306 1.4678-1.3259.9837-2.2077-.3622-.6599-.1883-1.4823.4099-1.9371.7991-.6078.7967-1.8078-.005-2.4188-.6-.4573-.7774-1.2804-.4178-1.9389.4804-.8798-.0121-1.977-.9928-2.2116-.734-.1756-1.232-.8571-1.1732-1.6053.0786-.9998-.8189-1.8045-1.809-1.6222-.7411.1365-1.4737-.2855-1.7257-.9941-.3368-.9468-1.484-1.32-2.3124-.7522-.62.425-1.4605.3354-1.9799-.2111-.3733-.3927-.8925-.5386-1.3742-.4565l.8391 4.1877c.3414.3659 1.0951-.0184 1.4894-.2908.5269-.3638 1.2707-.1044 1.4992.5229.1711.4695.6482.7561 1.1241.6751.6358-.1082 1.2239.4323 1.1854 1.0895-.0289.4919.3003.9465.7754 1.0708.6348.1662.9655.8945.6666 1.4679-.2237.4291-.0994.9731.2928 1.2813.524.4119.5402 1.2019.0326 1.5924-.3799.2923-.482.8315-.2406 1.2703.3227.5863.0215 1.3014-.607 1.4415-.4704.1049-.7813.5462-.7323 1.0397.0654.6593-.501 1.176-1.1418 1.0414-.4796-.1007-.9454.1664-1.0974.6292-.203.6184-.9368.8473-1.479.4613-.4058-.2888-.9461-.2422-1.2728.11-.4364.4705-1.2106.372-1.5605-.1986-.2619-.4271-.7832-.6089-1.2281-.4283-.5943.2413-1.2751-.1676-1.3722-.8242-.0727-.4914-.4849-.8703-.971-.8925-.6495-.0296-1.1192-.6782-.9467-1.3072.1291-.4708-.1027-.9812-.546-1.2024-.5924-.2955-.7697-1.0715-.3574-1.5643.3085-.3687.2972-.9225-.0267-1.3043-.4328-.5102-.2871-1.2796.2936-1.5508.4347-.203 1.1467-.6591.9983-1.1356l-3.2636-2.7976c-.3125.3732-.4449.8928-.289 1.4102z"/></g><path id="Vector 95" d="m14.5 8 3.5-2"/><path id="Vector 96" d="m24 7 2.5 1.5"/></g></svg>