<svg id="Layer_1" enable-background="new 0 0 511.364 511.364" height="512" viewBox="0 0 511.364 511.364" width="512" xmlns="http://www.w3.org/2000/svg"><g><path d="m401.682 235.682c-5.523 0-10 4.477-10 10 .49 13.251 19.512 13.247 20 0 0-5.522-4.477-10-10-10z"/><path d="m461.682 253.477v-47.795c0-5.523-4.478-10-10-10h-40v-30c0-16.542-13.458-30-30-30h-106c-5.514 0-10-4.486-10-10v-40c0-16.542-13.458-30-30-30h-106c-16.542 0-30 13.458-30 30v30h-40c-5.522 0-10 4.477-10 10v47.795c-90.858 59.691-48.985 201.718 60.002 202.205 108.989-.491 150.854-142.532 59.998-202.205v-47.795c0-5.523-4.478-10-10-10h-40v-30c0-5.514 4.486-10 10-10h106c5.514 0 10 4.486 10 10v40c0 16.542 13.458 30 30 30h106c5.514 0 10 4.486 10 10v30h-40c-5.522 0-10 4.477-10 10v47.795c-90.858 59.691-48.985 201.718 60.002 202.205 108.989-.491 150.854-142.532 59.998-202.205zm-307.008-65.757c66.801 38.297 56.197 138.633-15.417 162.965 1.22-6.808-.222-14.295-3.617-20.013 70.517-29.187 51.38-133.672-25.959-134.99-92.748 3.528-92.701 136.496.002 140 5.513 0 9.999 4.486 9.999 10s-4.486 10-10 10c-91.666-.576-123.957-121.703-44.992-167.962 3.09-1.787 4.992-5.086 4.992-8.656v-43.381h80v43.381c0 3.569 1.902 6.868 4.992 8.656zm-94.992 77.962c0-27.57 22.43-50 50-50 66.241 2.513 66.223 97.497-.001 100-27.57 0-49.999-22.429-49.999-50zm371.575 165.003c1.22-6.808-.222-14.295-3.617-20.013 70.517-29.187 51.38-133.672-25.959-134.99-92.748 3.528-92.701 136.496.002 140 5.513 0 9.999 4.486 9.999 10s-4.486 10-10 10c-91.665-.577-123.956-121.704-44.992-167.963 3.09-1.787 4.992-5.086 4.992-8.656v-43.381h80v43.381c0 3.569 1.902 6.869 4.992 8.656 66.801 38.298 56.197 138.633-15.417 162.966zm-79.575-85.003c0-27.57 22.43-50 50-50 66.241 2.513 66.223 97.497-.001 100-27.57 0-49.999-22.429-49.999-50z"/><path d="m109.682 155.682c-5.523 0-10 4.477-10 10 .49 13.251 19.512 13.247 20 0 0-5.522-4.477-10-10-10z"/><path d="m305.159 205.653c-7.364-6.627-19.303-6.627-26.667 0l-2.811 2.029-2.811-2.029c-7.364-6.627-19.303-6.627-26.666 0-7.364 6.627-7.364 17.373 0 24l29.477 26.029 29.477-26.029c7.365-6.627 7.365-17.373.001-24z"/></g></svg>