<svg id="Layer_1" enable-background="new 0 0 511.565 511.565" height="512" viewBox="0 0 511.565 511.565" width="512" xmlns="http://www.w3.org/2000/svg"><path d="m377.186 145.149c-45.672-.002-88.478 22.319-114.623 59.768-3.294 4.703-10.261 4.698-13.549-.01-26.149-37.447-68.942-59.758-114.615-59.758h-112.782c-11.938 0-21.617 9.679-21.617 21.619v48.318c3.284 148.818 159.349 177.595 252.088 128.96 2.317-1.215 5.084-1.262 7.426-.095 113.494 56.522 250.172 3.43 252.051-126.053v-51.13c0-11.94-9.679-21.619-21.619-21.619zm-195.518 142.876h-38.289c-35.368 0-64.04-28.672-64.04-64.04 0-5.574 4.519-10.093 10.093-10.093h38.289c35.368 0 64.04 28.672 64.04 64.04 0 5.574-4.518 10.093-10.093 10.093zm251.529-64.04c0 35.368-28.672 64.04-64.04 64.04h-38.289c-5.574 0-10.093-4.519-10.093-10.093 0-35.368 28.672-64.04 64.04-64.04h38.289c5.574 0 10.093 4.519 10.093 10.093z"/></svg>