<svg id="Layer_1" enable-background="new 0 0 511.739 511.739" height="512" viewBox="0 0 511.739 511.739" width="512" xmlns="http://www.w3.org/2000/svg"><g><path d="m495.941 142.928-140-140c-3.905-3.904-10.237-3.904-14.143 0l-200 200c-3.905 3.905-3.905 10.237 0 14.143l42.929 42.929-88.929 88.929c-3.905 3.905-3.905 10.237 0 14.143l2.929 2.928h-35.858c-27.57 0-50 22.43-50 50v56c2.018 53.006 78.001 52.966 80 0v-56c0-15.226 11.404-27.829 26.117-29.74l16.812 16.812c3.906 3.905 10.237 3.905 14.143 0l88.929-88.929 42.929 42.929c3.905 3.904 10.237 3.904 14.143 0l200-200c3.904-3.906 3.904-10.239-.001-14.144zm-423.072 273.072v56c-1.009 26.503-39.001 26.483-40 0v-56c0-16.542 13.458-30 30-30h20.023c-6.289 8.362-10.023 18.753-10.023 30zm216.001-80.143-42.929-42.929c-3.905-3.904-10.237-3.904-14.143 0l-88.929 88.929-25.857-25.857 88.929-88.929c3.905-3.905 3.905-10.237 0-14.143l-42.929-42.928 185.858-185.858 125.857 125.858z"/><path d="m218.869 200c-5.523 0-10 4.477-10 10 .49 13.251 19.512 13.247 20 0 0-5.523-4.477-10-10-10z"/><path d="m262.203 156.666c-5.523 0-10 4.477-10 10 .49 13.251 19.512 13.247 20 0 0-5.523-4.477-10-10-10z"/><path d="m305.536 113.333c-5.523 0-10 4.477-10 10 .49 13.25 19.511 13.247 20 0 0-5.523-4.477-10-10-10z"/><path d="m338.87 80c0 5.523 4.477 10 10 10 13.251-.49 13.247-19.512 0-20-5.523 0-10 4.477-10 10z"/><path d="m253.869 235c-5.523 0-10 4.477-10 10 .49 13.251 19.512 13.247 20 0 .001-5.523-4.477-10-10-10z"/><path d="m297.203 191.666c-5.523 0-10 4.477-10 10 .49 13.251 19.512 13.247 20 0 0-5.523-4.477-10-10-10z"/><path d="m340.536 148.333c-5.523 0-10 4.477-10 10 .49 13.25 19.511 13.247 20 0 0-5.523-4.477-10-10-10z"/><path d="m383.87 125c5.523 0 10-4.477 10-10-.49-13.251-19.512-13.247-20 0 0 5.522 4.477 10 10 10z"/><path d="m288.87 270c-5.523 0-10 4.477-10 10 .49 13.251 19.512 13.247 20 0 0-5.523-4.478-10-10-10z"/><path d="m332.203 226.666c-5.523 0-10 4.477-10 10 .49 13.251 19.512 13.247 20 0 0-5.523-4.477-10-10-10z"/><path d="m375.536 203.333c5.523 0 10-4.478 10-10-.49-13.251-19.512-13.247-20 0 0 5.522 4.477 10 10 10z"/><path d="m418.87 160c5.523 0 10-4.477 10-10-.49-13.251-19.512-13.247-20 0 0 5.522 4.477 10 10 10z"/></g></svg>