<svg id="Layer_1" enable-background="new 0 0 100 100" viewBox="0 0 100 100" xmlns="http://www.w3.org/2000/svg"><g><path d="m78.649 70.827c-1.35-12.071-13.172-17.927-13.684-18.176-1.579-.768.536-2.534 1.08-3.25 1.05-1.381 1.957-2.869 2.773-4.397 1.937-3.624 3.388-7.511 4.483-11.466 2.784-9.991-.234-20.078-1.474-23.537-2.853 2.329-10.666 9.412-13.45 19.389-1.198 4.352-2.02 8.864-2.112 13.386-.02.972-.003 1.945.064 2.914.054.769.485 2.043-.216 2.613-.623.507-1.72.031-2.424-.072-.988-.145-1.984-.227-2.982-.253-1.996-.052-4.006.113-5.958.539-.362.079-.769-.072-1.004-.353-.607-.726-.059-2.518-.02-3.375.231-5.168-.728-10.434-2.105-15.399-2.768-9.978-10.582-17.061-13.434-19.39-1.24 3.473-4.258 13.56-1.488 23.537.936 3.366 2.024 6.708 3.529 9.867.754 1.584 1.614 3.121 2.619 4.559.638.914 2.8 2.652 2.751 3.791-.037.853-1.266 1.254-1.905 1.634-1.048.623-2.055 1.315-3.019 2.062-2.87 2.226-5.381 4.978-7.088 8.199-1.182 2.23-1.952 4.667-2.233 7.177-.937 8.613 3.183 15.723 5.746 17.294 6.89 4.148 11.369.606 15.71-2.811 2.425-1.915 4.713-3.721 7.193-3.721s4.768 1.805 7.193 3.721c4.341 3.431 8.833 6.959 15.71 2.811 2.562-1.57 6.683-8.68 5.745-17.293zm-48.658-38.2c-1.199-4.286-1.35-9.095-.455-14.318.069-.4.345-.717.73-.827.386-.096.799.028 1.061.331 3.473 4.01 5.829 8.213 7.014 12.485 2.356 8.447 2.315 14.966 1.516 18.245-.096.358-.372.648-.73.744-.096.028-.193.041-.276.041-.276 0-.537-.11-.73-.303-2.384-2.355-5.774-7.895-8.13-16.398zm11.548 45.917c-.124.041-1.888.606-4.065.606-1.516 0-3.238-.276-4.727-1.213-3.638-2.288-4.327-7.455-4.355-7.676-.055-.482.234-.951.703-1.103.207-.069 5.168-1.681 8.792.606 3.624 2.288 4.327 7.441 4.355 7.662.055.498-.235.966-.703 1.118zm20.119-48.232c1.199-4.299 3.555-8.502 7.014-12.499.262-.303.675-.427 1.061-.331.386.11.675.427.744.827.896 5.223.73 10.032-.455 14.318-2.37 8.489-5.746 14.042-8.13 16.399-.193.193-.455.303-.73.303-.096 0-.193-.014-.276-.041-.358-.096-.634-.386-.73-.744-.813-3.28-.84-9.798 1.502-18.232zm5.402 47.625c-1.488.937-3.211 1.213-4.727 1.213-2.177 0-3.941-.565-4.065-.606-.469-.152-.758-.62-.703-1.116.028-.22.73-5.374 4.355-7.662 3.638-2.288 8.585-.675 8.792-.606.468.152.758.62.703 1.103-.028.219-.731 5.387-4.355 7.674z"/><path d="m36.357 30.864c-.937-3.362-2.646-6.67-5.112-9.894-.441 4.024-.193 7.758.73 11.107 1.819 6.518 4.203 11.148 6.215 13.849.317-3.363-.027-8.586-1.833-15.062z"/><path d="m68.025 32.076c.937-3.362 1.185-7.083.744-11.107-2.467 3.211-4.175 6.532-5.113 9.894-1.805 6.477-2.15 11.7-1.833 15.062 2.013-2.7 4.397-7.344 6.202-13.849z"/><path d="m36.785 71.516c-2.026-1.268-4.782-.923-6.16-.62.331 1.378 1.199 4.024 3.225 5.292 2.012 1.268 4.768.909 6.16.62-.332-1.379-1.2-4.024-3.225-5.292z"/><path d="m63.023 71.516c-2.04 1.282-2.908 3.914-3.225 5.292 1.392.303 4.148.648 6.16-.62 2.026-1.268 2.894-3.914 3.225-5.292-1.393-.303-4.135-.648-6.16.62z"/></g></svg>