<?xml version="1.0"?>
<svg xmlns="http://www.w3.org/2000/svg" data-name="&#x421;&#x43B;&#x43E;&#x439; 1" id="&#x421;&#x43B;&#x43E;&#x439;_1" viewBox="0 0 1926.91 2039"><defs><style>.cls-1{fill:none;}.cls-1,.cls-3{stroke:#000;stroke-linecap:round;stroke-linejoin:round;stroke-width:39px;}.cls-2{fill:#e2e2e2;}.cls-3,.cls-4{fill:#7a7a7a;}</style></defs><title/><path class="cls-1" d="M2593.66,1255.59s-65.74,85.86-31.42,196.28,155.9,568.64-29.34,669.63c-182.89,99.71-408,17.43-437.79-105.66-.8-3.3-1.63-6.58-2.51-9.86-11.06-40.88-72.64-314,252.21-328.2,166.08-7.28,230,129.58,198.24,235.2-35.4,117.72-182.2,199.12-284.5,50.27,0,0-65.72-166.35,98.58-173.54s53.4,174.57,0,113" transform="translate(-786.55 -730.5)"/><rect class="cls-2" height="1059.73" transform="translate(3142.08 526.3) rotate(90)" width="92.42" x="1289.7" y="2062.85"/><path class="cls-1" d="M1289.7,2062.85h92.42a0,0,0,0,1,0,0V3076.37a46.21,46.21,0,0,1-46.21,46.21h0a46.21,46.21,0,0,1-46.21-46.21V2062.85A0,0,0,0,1,1289.7,2062.85Z" transform="translate(3142.08 526.3) rotate(90)"/><path class="cls-1" d="M2694,2497.73s-152-3.08-270.07,21.56-557.68,73.42-557.68,73.42" transform="translate(-786.55 -730.5)"/><path class="cls-1" d="M2694,2332.4s-216.67-35.94-384.05,19.51S1866.29,2546,1866.29,2546" transform="translate(-786.55 -730.5)"/><path class="cls-1" d="M2694,2412.5s-301.9,22.59-391.24,47.24-436.93,99.93-436.93,99.93" transform="translate(-786.55 -730.5)"/><path class="cls-1" d="M1866.29,2638.41s377.89,102.69,476.47,108.85,351.19,0,351.19,0" transform="translate(-786.55 -730.5)"/><path class="cls-1" d="M2694,2651.76s-320.38,37-431.29,0-396.37-34-396.37-34" transform="translate(-786.55 -730.5)"/><path class="cls-1" d="M1871.69,2575.79s528.06-9.75,645.12,6.68,176.62-20.54,176.62-20.54" transform="translate(-786.55 -730.5)"/><path class="cls-3" d="M1064.74,2064.4A169.56,169.56,0,1,0,1234.29,2234,169.56,169.56,0,0,0,1064.74,2064.4Zm0,259.66a90.1,90.1,0,1,1,90.1-90.1A90.1,90.1,0,0,1,1064.74,2324.06Z" transform="translate(-786.55 -730.5)"/><line class="cls-1" x1="108.63" x2="86.88" y1="1515.49" y2="1687.66"/><path class="cls-3" d="M1745.18,2064.4A169.56,169.56,0,1,0,1914.73,2234,169.56,169.56,0,0,0,1745.18,2064.4Zm0,259.66a90.1,90.1,0,1,1,90.1-90.1A90.1,90.1,0,0,1,1745.18,2324.06Z" transform="translate(-786.55 -730.5)"/><line class="cls-1" x1="1128.18" x2="1149.93" y1="1515.49" y2="1687.66"/><ellipse class="cls-1" cx="456.37" cy="1630.84" rx="54.79" ry="38.62"/><ellipse class="cls-1" cx="563.43" cy="1631.29" rx="54.79" ry="38.62"/><ellipse class="cls-1" cx="670.85" cy="1631.29" rx="54.79" ry="38.62"/><ellipse class="cls-1" cx="778.23" cy="1631.29" rx="54.79" ry="38.62"/><path class="cls-4" d="M1696.76,1560.13c0-105-192.14-190.2-297.19-190.2s-297.19,85.16-297.19,190.2c0,0,253.8,92.13,297.78,88.56S1696.76,1560.13,1696.76,1560.13Z" transform="translate(-786.55 -730.5)"/><path class="cls-1" d="M1508.48,1390.62c-39.11-13.22-77.82-20.68-108.91-20.68-74.93,0-194.17,43.33-256.39,106.3-25,25.31-40.8,53.79-40.8,83.9" transform="translate(-786.55 -730.5)"/><path class="cls-1" d="M1696.76,1560.13c0-26.33-12.07-51.41-31.82-74.22" transform="translate(-786.55 -730.5)"/><path class="cls-2" d="M1537.88,1544.39c-60.66,42.68-127.47,68.91-138.31,73-10.84-4.12-77.66-30.34-138.31-73-66.24-46.62-242.89,3.68-242.89,95.68v213.45s14.72,130,143.53,141.07c127.66,10.94,180.61-70.89,237.68-78.31,57.06,7.43,110,89.26,237.68,78.31,128.81-11,143.53-141.07,143.53-141.07V1640.07C1780.77,1548.07,1604.13,1497.77,1537.88,1544.39Zm-239,291.94c-19.92,22.7-102.4,7.92-149-33s-39.75-92.5-19.83-115.2,85.76-31.7,132.39,9.23S1318.77,1813.63,1298.85,1836.32Zm352.68-33c-46.63,40.93-129.11,55.7-149,33s-10.16-98,36.47-139,112.47-31.93,132.39-9.23S1698.16,1762.39,1651.54,1803.32Z" transform="translate(-786.55 -730.5)"/><path class="cls-1" d="M1262.38,1697.35c-46.63-40.93-112.47-31.93-132.39-9.23s-26.8,74.28,19.83,115.2,129.11,55.7,149,33S1309,1738.27,1262.38,1697.35Z" transform="translate(-786.55 -730.5)"/><path class="cls-1" d="M1539,1697.35c-46.63,40.93-56.39,116.28-36.47,139s102.4,7.92,149-33,39.75-92.5,19.83-115.2S1585.6,1656.42,1539,1697.35Z" transform="translate(-786.55 -730.5)"/><path class="cls-1" d="M1537.88,1544.39c-60.66,42.68-127.47,68.91-138.31,73-10.84-4.12-77.66-30.34-138.31-73-66.24-46.62-242.89,3.68-242.89,95.68v213.45s14.72,130,143.53,141.07c127.66,10.94,180.61-70.89,237.68-78.31,57.06,7.43,110,89.26,237.68,78.31,128.81-11,143.53-141.07,143.53-141.07V1640.07C1780.77,1548.07,1604.13,1497.77,1537.88,1544.39Zm-239,291.94c-19.92,22.7-102.4,7.92-149-33s-39.75-92.5-19.83-115.2,85.76-31.7,132.39,9.23S1318.77,1813.63,1298.85,1836.32Zm352.68-33c-46.63,40.93-129.11,55.7-149,33s-10.16-98,36.47-139,112.47-31.93,132.39-9.23S1698.16,1762.39,1651.54,1803.32Z" transform="translate(-786.55 -730.5)"/><path class="cls-1" d="M1014.71,1729.53H983.63A122.19,122.19,0,0,1,861.88,1597l28-331.12" transform="translate(-786.55 -730.5)"/><path class="cls-1" d="M1780.77,1729.53h139.11a57.93,57.93,0,0,0,57.93-57.93h0a57.93,57.93,0,0,0-26.09-48.39l-179.76-158.77" transform="translate(-786.55 -730.5)"/><path class="cls-4" d="M1337.21,1356c34.35-94.46,6.13-285.83-44.16-380.28C1250.59,896,1167.92,790,1143.18,758.93c12.73,115.31,38.21,302.45,77,393.14,35.58,83.14,36.25,193.29,31.33,266.67C1284.58,1415.93,1320.69,1401.44,1337.21,1356Z" transform="translate(-786.55 -730.5)"/><path class="cls-2" d="M1220.22,1152.06c-38.82-90.69-64.3-277.82-77-393.14-4.56-5.74-7.16-8.93-7.16-8.93s-31.89,149.66-63.79,225.72-14.72,250.25,22.08,325.08,89.55,110.4,89.55,110.4,32,10.57,67.68,7.54C1256.46,1345.35,1255.8,1235.2,1220.22,1152.06Z" transform="translate(-786.55 -730.5)"/><path class="cls-4" d="M1587.84,1152.06c38.88-90.84,64.39-278.45,77.09-393.72-1.18-5.35-1.82-8.34-1.82-8.34s-106.72,131.26-157,225.72-78.51,285.82-44.16,380.28c18,49.59,59.39,62.32,94.61,63.23C1551.59,1345.84,1552.18,1235.38,1587.84,1152.06Z" transform="translate(-786.55 -730.5)"/><path class="cls-2" d="M1726.9,975.72c-27.39-65.31-54.77-184.88-62-217.37-12.71,115.27-38.21,302.88-77.09,393.72-35.66,83.32-36.25,193.78-31.3,267.16a193.32,193.32,0,0,0,58.73-8s52.75-35.57,89.55-110.4S1758.8,1051.77,1726.9,975.72Z" transform="translate(-786.55 -730.5)"/><path class="cls-1" d="M1136,750s-31.89,149.66-63.79,225.72-14.72,250.25,22.08,325.08,89.55,110.4,89.55,110.4,119,39.25,153.34-55.2,6.13-285.82-44.16-380.28S1136,750,1136,750Z" transform="translate(-786.55 -730.5)"/><path class="cls-1" d="M1663.12,750S1695,899.66,1726.9,975.72s14.72,250.25-22.08,325.08-89.55,110.4-89.55,110.4-119,39.25-153.34-55.2-6.13-285.82,44.16-380.28S1663.12,750,1663.12,750Z" transform="translate(-786.55 -730.5)"/><path class="cls-1" d="M1194.21,1066.21s92.53,276.21,55.78,338.41" transform="translate(-786.55 -730.5)"/><path class="cls-1" d="M1610.49,1066.21s-92.53,276.21-55.78,338.41" transform="translate(-786.55 -730.5)"/><path class="cls-1" d="M2159.78,1075c-119.12,22.59-190,175.6-190,175.6l66.75,46.21s22.55-92.42,77-128.87" transform="translate(-786.55 -730.5)"/><path class="cls-4" d="M2103.09,1283.94l531.85-8.47-2.59-24.57c-6.3-59.76-7.13-161.46-2.49-221.35l1.5-19.39-531.85,8.47.26,1.29c14.42,71.93,15.71,189,3.74,261.41Z" transform="translate(-786.55 -730.5)"/><path class="cls-2" d="M2103.09,1283.94l531.85-8.47-2.59-24.57c-6.3-59.76-7.13-161.46-2.49-221.35l1.5-19.39-531.85,8.47.26,1.29c14.42,71.93,15.71,189,3.74,261.41Z" transform="translate(-786.55 -730.5)"/><path class="cls-1" d="M2103.09,1283.94l531.85-8.47-2.59-24.57c-6.3-59.76-7.13-161.46-2.49-221.35l1.5-19.39-531.85,8.47.26,1.29c14.42,71.93,15.71,189,3.74,261.41Z" transform="translate(-786.55 -730.5)"/><rect class="cls-4" height="66.73" transform="translate(3963.07 1534.85) rotate(179.26)" width="557.59" x="2088.7" y="1114.63"/><rect class="cls-3" height="66.73" transform="translate(3963.07 1534.85) rotate(179.26)" width="557.59" x="2088.7" y="1114.63"/><line class="cls-1" x1="1685.63" x2="1687.83" y1="382.78" y2="449.43"/></svg>
