<svg id="Layer_1" viewBox="0 0 64 64" xmlns="http://www.w3.org/2000/svg" data-name="Layer 1"><path d="m40 51h-16a1 1 0 0 1 -1-1v-7a1 1 0 0 1 1-1 2 2 0 0 0 0-4 1 1 0 0 1 -1-1v-10a1 1 0 0 1 1-1 2 2 0 0 0 0-4 1 1 0 0 1 -1-1v-6a12 12 0 0 1 12-12h6a3 3 0 0 1 2.78 4.11 39.86 39.86 0 0 0 -2.78 13.89 1 1 0 0 1 -1 1 2 2 0 1 0 0 4 1 1 0 0 1 1 1v10a1 1 0 0 1 -1 1 2 2 0 0 0 0 4 1 1 0 0 1 1 1v7a1 1 0 0 1 -1 1zm-15-2h14v-5.13a4 4 0 0 1 0-7.74v-8.26a4 4 0 0 1 0-7.75 41.72 41.72 0 0 1 3-13.75 1 1 0 0 0 -.95-1.37h-6.05a10 10 0 0 0 -10 10v5.13a4 4 0 0 1 0 7.74v8.26a4 4 0 0 1 0 7.74z"/><path d="m40 61h-16a6 6 0 0 1 0-12h16a6 6 0 0 1 0 12zm-16-10a4 4 0 0 0 0 8h16a4 4 0 0 0 0-8z"/><path d="m24 28a4 4 0 1 1 4-4 4 4 0 0 1 -4 4zm0-6a2 2 0 1 0 2 2 2 2 0 0 0 -2-2z"/><path d="m40 28a4 4 0 1 1 4-4 4 4 0 0 1 -4 4zm0-6a2 2 0 1 0 2 2 2 2 0 0 0 -2-2z"/><path d="m40 44a4 4 0 1 1 4-4 4 4 0 0 1 -4 4zm0-6a2 2 0 1 0 2 2 2 2 0 0 0 -2-2z"/><path d="m24 44a4 4 0 1 1 4-4 4 4 0 0 1 -4 4zm0-6a2 2 0 1 0 2 2 2 2 0 0 0 -2-2z"/><path d="m32 36a4 4 0 1 1 4-4 4 4 0 0 1 -4 4zm0-6a2 2 0 1 0 2 2 2 2 0 0 0 -2-2z"/><path d="m32 18a4 4 0 1 1 4-4 4 4 0 0 1 -4 4zm0-6a2 2 0 1 0 2 2 2 2 0 0 0 -2-2z"/></svg>