<svg fill="none" height="48" viewBox="0 0 48 48" width="48" xmlns="http://www.w3.org/2000/svg"><g id="sex, swing, bdsm"><g stroke="#333" stroke-linecap="round" stroke-linejoin="round" stroke-width="2"><path id="Vector" d="m13 47c-1-3.5-2.5-4.5-3-7.5 4.9698 2.1388 10.0954 1.6043 14-.5 3.9046 2.1043 9.0302 2.6388 14 .5-.5 3-2 4-3 7.5"/><path id="Vector 74" d="m13 41c.5-5-1.5-8.5-4-12m0 0c-1.40741 1.9069-1.99357 2.6177-2 5.5m2-5.5c3-8.5 4-13.5 4-25"/><path id="Vector 78" d="m35.0771 41c-.5-5 1.5-8.5 4-12m0 0c1.4075 1.9069 1.9936 2.6177 2 5.5m-2-5.5c-3-8.5-4.0771-13.5-4.0771-25"/><path id="Vector 76" d="m7 14.5c2.7933 1.6434 2.55211 5.1645.5 6.5-1.5 0-2.5-1.5-2.5-3 .00631-1.2464.61977-2.6754 2-3.5zm0 0c3-2 6-5.52703 6-10.5"/><path id="Vector 77" d="m41 14.5c-2.7933 1.6434-2.5521 5.1645-.5 6.5 1.5 0 2.5-1.5 2.5-3-.0063-1.2464-.6198-2.6754-2-3.5zm0 0c-3-2-6-5.52703-6-10.5"/></g><path id="Vector_2" d="m17 33-.0152.9999.6206.0094.2839-.5519zm-11.26297 2.9216-.59321-.8051zm-.72224 1.5149.99947-.0326zm2.7631 10.2553c.38207.3988 1.01509.4124 1.41389.0303s.41236-1.0151.03029-1.4139zm23.22211-14.6918-.8893.4574.2839.5519.6205-.0094zm11.2629 2.9216.5932-.8051zm.7223 1.5149-.9995-.0326zm-4.2073 8.8717c-.3821.3988-.3685 1.0318.0303 1.4139s1.0318.3685 1.4139-.0303zm-21.7387-33.1225c-.4497-.3206-1.0742-.2159-1.3948.2338-.3205.4498-.2159 1.0742.2339 1.3948zm-.2583 2.3487.6717.7409zm.377 7.6722-.5862.8101zm6.8421-3.8361.9999-.0124c-.0068-.5474-.4525-.9876-.9999-.9876-.5475 0-.9931.4402-.9999.9876zm8.1217-4.5562c.4497-.3206.5544-.945.2338-1.3948-.3206-.4497-.945-.5544-1.3947-.2338zm-.9026.7201-.6717.7409zm-.3771 7.6722.5863.8101zm-13.8269 8.7935c-5.234-.0792-8.80465.8568-11.87128 3.1164l1.18641 1.6101c2.60356-1.9184 5.69627-2.8018 10.65457-2.7267zm-12.99978 5.469c.10961 3.3616.85491 7.1877 3.76257 10.2227l1.44418-1.3836c-2.41339-2.5191-3.10519-5.757-3.20781-8.9043zm13.87398-4.0117c.9771-1.9 1.6826-3.5646 1.8337-5.2547.1553-1.7373-.2814-3.391-1.3548-5.2694l-1.7365.9923c.9267 1.6216 1.2093 2.8684 1.0992 4.099-.1142 1.2779-.6588 2.6486-1.6202 4.518zm-12.74548 1.6591c-.75463.5561-1.15809 1.445-1.1285 2.3526l1.99894-.0652c-.0091-.279.11489-.5291.31597-.6773zm25.87128-1.1166c4.9583-.0751 8.0511.8083 10.6546 2.7267l1.1864-1.6101c-3.0666-2.2596-6.6372-3.1956-11.8713-3.1164zm10.9706 3.404c-.1026 3.1473-.7944 6.3852-3.2078 8.9043l1.4442 1.3836c2.9076-3.035 3.6529-6.8611 3.7625-10.2227zm-10.0964-4.8613c-.9615-1.8694-1.506-3.2401-1.6203-4.518-.11-1.2306.1726-2.4774 1.0992-4.099l-1.7365-.9923c-1.0733 1.8784-1.5101 3.5321-1.3547 5.2694.1511 1.6901.8565 3.3547 1.8337 5.2547zm9.7804 4.184c.2011.1482.3251.3983.316.6773l1.9989.0652c.0296-.9076-.3738-1.7965-1.1285-2.3526zm-25.7914-21.9123c.1225.0873.2189.1606.2944.2224.0763.0626.1225.1065.1487.1343.0272.0289.0197.0266.0019-.0051-.0199-.0354-.0538-.1099-.0648-.2163-.0114-.1106.0065-.2096.0337-.2844.0126-.0344.0255-.0596.0344-.0751.0045-.0078.0081-.0135.0105-.0172.0012-.0018.0022-.0031.0028-.004s.001-.0014.001-.0014-.0003.0004-.001.0013c-.0006.0008-.0016.0019-.0028.0035-.0027.0031-.0064.0076-.0116.0134-.0106.0119-.0254.0276-.0458.0479-.0422.0423-.0964.0928-.1705.16l1.3434 1.4817c.1439-.1306.3387-.3087.4873-.5065.16-.213.3556-.565.308-1.0252-.0444-.4286-.2809-.7426-.4708-.944-.197-.2091-.4541-.4115-.7379-.6139zm.2309-.0207c-1.7098 1.5502-2.2983 3.3965-2.0579 5.13.234 1.687 1.2377 3.1648 2.5204 4.0931l1.1725-1.6202c-.8958-.6484-1.5615-1.6641-1.7118-2.7477-.1439-1.037.1683-2.2385 1.4202-3.3735zm.4625 9.2231c.1379.0998.2794.1919.4241.2764l1.0084-1.7272c-.0885-.0517-.1753-.1081-.26-.1694zm.4241.2764c3.2468 1.8955 7.9446-.1233 8.0041-4.9102l-1.9998-.0248c-.0396 3.1814-3.0096 4.3674-4.9959 3.2078zm13.965-11.1074c-.2839.2024-.541.4048-.738.6139-.1898.2014-.4263.5154-.4707.944-.0476.4602.1479.8122.308 1.0252.1486.1978.3433.3759.4873.5065l1.3434-1.4817c-.0741-.0672-.1283-.1177-.1705-.16-.0204-.0203-.0352-.036-.0458-.0479-.0052-.0058-.009-.0103-.0116-.0134-.0013-.0016-.0022-.0027-.0029-.0035-.0006-.0009-.0009-.0013-.0009-.0013s.0003.0005.001.0014c.0006.0009.0015.0022.0027.004.0024.0036.0061.0094.0106.0172.0088.0155.0218.0407.0343.0751.0272.0748.0452.1738.0338.2844-.011.1064-.0449.1809-.0649.2163-.0178.0317-.0252.034.0019.0051.0262-.0278.0724-.0717.1488-.1343.0754-.0618.1719-.1351.2944-.2224zm-.4134 3.0896c1.2518 1.135 1.564 2.3365 1.4202 3.3735-.1503 1.0836-.816 2.0993-1.7119 2.7477l1.1726 1.6202c1.2827-.9283 2.2863-2.4061 2.5203-4.0931.2405-1.7335-.3481-3.5798-2.0578-5.13zm-.2917 6.1212c-.0847.0613-.1714.1177-.2599.1694l1.0084 1.7272c.1446-.0845.2862-.1766.4241-.2764zm-.2599.1694c-1.9864 1.1596-4.9563-.0264-4.9959-3.2078l-1.9998.0248c.0595 4.7869 4.7572 6.8057 8.0041 4.9102z" fill="#333"/><circle id="Ellipse 16" cx="18.5" cy="20.5" fill="#333" r=".5"/><circle id="Ellipse 17" cx="29.5" cy="20.5" fill="#333" r=".5"/><path id="Rectangle 22" d="m10 2.5c0-.82843.6716-1.5 1.5-1.5h25c.8284 0 1.5.67157 1.5 1.5s-.6716 1.5-1.5 1.5h-25c-.8284 0-1.5-.67157-1.5-1.5z" stroke="#333" stroke-linecap="round" stroke-linejoin="round" stroke-width="2"/></g></svg>