<svg id="Your_Icon" enable-background="new 0 0 100 100" height="100" viewBox="0 0 100 100" width="100" xmlns="http://www.w3.org/2000/svg"><g><g><g/></g><g/></g><g><g style="fill:none;stroke:#000;stroke-linecap:round;stroke-linejoin:round;stroke-miterlimit:10;stroke-width:3"><g><path d="m21.768 65.261c-4.679 4.682-4.679 12.295 0 16.973 4.684 4.682 12.297 4.682 16.977.002 4.681-4.68 4.681-12.293 0-16.977-4.681-4.678-12.296-4.678-16.977.002z"/><path d="m30.256 85.804c2.124 0 3.845 1.72 3.845 3.843 0 2.124-1.721 3.845-3.845 3.845"/><path d="m16.286 59.782c.144-.145.301-.267.448-.405 2.115-2.179 3.421-5.147 3.421-8.423v-1.1-3.596h20.202v3.596 1.1c0 3.275 1.305 6.244 3.42 8.422.146.139.304.261.447.404 7.7 7.701 7.701 20.232 0 27.934-7.702 7.705-20.236 7.701-27.938 0-7.697-7.701-7.697-20.233 0-27.932z"/><path d="m43.618 59.678c0 1.146-.928 2.073-2.072 2.073h-3.958-6.776"/></g><path d="m78.231 65.261c4.679 4.682 4.679 12.295 0 16.973-4.684 4.682-12.297 4.682-16.977.002-4.681-4.68-4.681-12.293 0-16.977 4.681-4.678 12.296-4.678 16.977.002z"/><path d="m69.743 85.804c-2.124 0-3.845 1.72-3.845 3.843 0 2.124 1.721 3.845 3.845 3.845"/><path d="m83.713 59.782c-.144-.145-.301-.267-.448-.405-2.115-2.179-3.421-5.147-3.421-8.423v-1.1-3.596h-20.202v3.596 1.1c0 3.275-1.305 6.244-3.42 8.422-.146.139-.304.261-.447.404-.697.698-1.332 1.436-1.903 2.205-2.577 3.474-3.868 7.608-3.871 11.744-.004 4.147 1.286 8.296 3.871 11.78.571.77 1.206 1.507 1.903 2.204 7.702 7.705 20.236 7.701 27.938 0 7.697-7.7 7.697-20.232 0-27.931z"/><path d="m56.381 59.678c0 1.146.928 2.073 2.072 2.073h3.958 6.776"/><path d="m26.437 42.181c.123-2.012 1.777-3.609 3.821-3.609 2.043 0 3.696 1.598 3.819 3.609h.013l.011-7.454c0-2.123-1.72-3.843-3.843-3.843-2.124 0-3.845 1.72-3.845 3.843l.008 7.454z"/><circle cx="30.257" cy="42.414" r="3.844"/><path d="m65.922 42.181c.123-2.012 1.777-3.609 3.821-3.609 2.043 0 3.696 1.598 3.819 3.609h.013l.011-7.454c0-2.123-1.72-3.843-3.843-3.843-2.124 0-3.845 1.72-3.845 3.843l.008 7.454z"/><circle cx="69.742" cy="42.414" r="3.844"/></g><g><g><g><path d="m50.621 10.742c1.311-2.516 3.944-4.236 6.979-4.236 4.341 0 7.861 3.518 7.861 7.863 0 0 1.157 11.994-15.714 21.1v.003h-.008-.005v-.003c-16.874-9.105-15.715-21.1-15.715-21.1 0-4.346 3.519-7.863 7.86-7.863 3.171 0 5.903 1.879 7.146 4.582l.044.098.349.782.324.732" style="fill:none;stroke:#000;stroke-linecap:round;stroke-linejoin:round;stroke-miterlimit:10;stroke-width:3"/></g></g><g><g style="fill:none;stroke:#000;stroke-linecap:round;stroke-linejoin:round;stroke-miterlimit:10;stroke-width:3"><path d="m48.86 10.742c-1.311-2.516-3.942-4.236-6.977-4.236-4.343 0-7.862 3.518-7.862 7.863 0 0-1.157 11.994 15.713 21.1v.003h.008.005v-.003c16.874-9.105 15.716-21.1 15.716-21.1 0-4.346-3.52-7.863-7.86-7.863-3.172 0-5.903 1.879-7.146 4.582l-.044.098-.672 1.511"/><path d="m60.479 14.805-.041-.299.024-.137c0-1.579-1.283-2.863-2.86-2.863-.487 0-.956.125-1.369.351"/></g></g></g><g style="fill:none;stroke:#000;stroke-linecap:round;stroke-linejoin:round;stroke-miterlimit:10;stroke-width:3"><path d="m30.627 30.901c.716-3.645 2.435-6.93 4.856-9.556"/><path d="m64.158 20.967c2.576 2.65 4.415 6.021 5.185 9.781"/></g></g></svg>