<svg id="Image" enable-background="new 0 0 64 64" height="64" viewBox="0 0 64 64" width="64" xmlns="http://www.w3.org/2000/svg"><g><g style="fill:none;stroke:#424242;stroke-width:2;stroke-linecap:round;stroke-linejoin:round;stroke-miterlimit:10"><circle cx="32" cy="44" r="9"/><path d="m46 41.36c.73-.83 1.8-1.36 3-1.36 1.15 0 2.18.48 2.91 1.26"/><path d="m18 41.36c-.73-.83-1.8-1.36-3-1.36-1.15 0-2.18.48-2.91 1.26"/><path d="m46 46.64c.73.83 1.8 1.36 3 1.36 1.15 0 2.18-.48 2.91-1.26"/><path d="m18 46.64c-.73.83-1.8 1.36-3 1.36-1.15 0-2.18-.48-2.91-1.26"/><path d="m28.594 40.344c.507-.472 1.111-.841 1.779-1.072"/><path d="m28.82 47.856c-1.111-.918-1.82-2.306-1.82-3.856"/><path d="m40.48 47h5.52v-.36-5.28-.36h-5.52"/><path d="m23.52 47h-5.52v-.36-5.28-.36h5.52"/><path d="m51.906 41v6"/><path d="m12.094 41v6"/><path d="m12.094 41s-7.094-1.583-7.094-11.667 9.5-17.333 27-17.333 27 7.25 27 17.333-7.094 11.667-7.094 11.667"/><path d="m5.26 32.5c1.64-8.58 10.92-14.5 26.74-14.5s25.1 5.92 26.74 14.5"/><path d="m59 29.333v6-.003c0 10.09-7.09 11.67-7.09 11.67"/><path d="m5 29.333v6-.003c0 10.09 7.09 11.67 7.09 11.67"/><path d="m32 12h23.48c.34 0 .659.11.93.31l1.939 1.45c.391.29.62.75.62 1.24s-.229.95-.62 1.24l-1.939 1.45c-.27.2-.59.31-.93.31h-1.92"/><path d="m37 12v.22 5.99"/><path d="m20.14 19.35c.43.41 1.03.65 1.86.65 1.42 0 5.91-1.86 5.91-1.86v-5.99-.01s-4.66-1.14-5.91-1.14c-1.07 0-2.52.24-2.9 2.64"/><path d="m27.91 15.105-4.91.395"/></g><circle cx="17" cy="17" fill="#424242" r="1"/><circle cx="12.501" cy="19.667" fill="#424242" r="1"/></g></svg>