<svg xmlns="http://www.w3.org/2000/svg" style="display:none">
  <!-- Canonical BDSM Theme Sprite (24x24, currentColor, strokes only) -->
  <symbol id="handcuffs" viewBox="0 0 24 24">
    <g fill="none" stroke="currentColor" stroke-width="1.6" stroke-linecap="round" stroke-linejoin="round" vector-effect="non-scaling-stroke">
      <circle cx="7" cy="14" r="3.5"/>
      <circle cx="17" cy="10" r="3.5"/>
      <path d="M9.5 12.5 L14 11 M8 16 L10 19 M15 7 L14 5 M12 19 L12 22"/>
    </g>
  </symbol>

  <symbol id="mask" viewBox="0 0 24 24">
    <g fill="none" stroke="currentColor" stroke-width="1.6" stroke-linecap="round" stroke-linejoin="round" vector-effect="non-scaling-stroke">
      <path d="M3 10c2-2 6-3 9-3s7 1 9 3c0 2-1.2 3.7-3 4.6-2 .9-3.6-.2-5-1.1-1.4.9-3 2-5 1.1C4.2 13.7 3 12 3 10Z"/>
      <path d="M8.2 10.2c.6-.5 2-.8 2.8-.8s2.2.3 2.8.8"/>
    </g>
  </symbol>

  <symbol id="paddle" viewBox="0 0 24 24">
    <g fill="none" stroke="currentColor" stroke-width="1.6" stroke-linecap="round" stroke-linejoin="round" vector-effect="non-scaling-stroke">
      <rect x="9" y="3" width="6" height="11" rx="2"/>
      <rect x="8" y="14" width="8" height="6" rx="3"/>
      <circle cx="12" cy="18" r="0.9" fill="currentColor" stroke="none"/>
    </g>
  </symbol>

  <symbol id="whip" viewBox="0 0 24 24">
    <g fill="none" stroke="currentColor" stroke-width="1.6" stroke-linecap="round" stroke-linejoin="round" vector-effect="non-scaling-stroke">
      <rect x="10.6" y="3" width="2.8" height="6.8" rx="1.4"/>
      <path d="M12 10 q-2 4.5 3 8 M12 10 q1 4 -2 7 M12 10 q3.2 3.8 1 8"/>
    </g>
  </symbol>

  <symbol id="chain" viewBox="0 0 24 24">
    <g fill="none" stroke="currentColor" stroke-width="1.6" stroke-linecap="round" stroke-linejoin="round" vector-effect="non-scaling-stroke">
      <path d="M8.5 8.5 l3-3 a3 3 0 0 1 4.2 0 a3 3 0 0 1 0 4.2 l-2 2"/>
      <path d="M15.5 15.5 l-3 3 a3 3 0 0 1-4.2 0 a3 3 0 0 1 0-4.2 l2-2"/>
    </g>
  </symbol>

  <symbol id="choker" viewBox="0 0 24 24">
    <g fill="none" stroke="currentColor" stroke-width="1.6" stroke-linecap="round" stroke-linejoin="round" vector-effect="non-scaling-stroke">
      <path d="M3 9 q0-2 2-2 h14 q2 0 2 2 v2 q0 2-2 2 H5 q-2 0-2-2z"/>
      <rect x="10" y="10" width="4" height="3" rx="1"/>
      <circle cx="12" cy="17" r="1.7"/>
    </g>
  </symbol>

  <symbol id="flogger" viewBox="0 0 24 24">
    <g fill="none" stroke="currentColor" stroke-width="1.6" stroke-linecap="round" stroke-linejoin="round" vector-effect="non-scaling-stroke">
      <path d="M6 19 c3-1 5-1 8 0"/>
      <path d="M14 4 l5 5 M12.5 5 L17 9.5 M11 6 L15.5 10 M9.5 7 L14 11"/>
      <rect x="5" y="18" width="10" height="3" rx="1.5"/>
    </g>
  </symbol>

  <symbol id="heart" viewBox="0 0 24 24">
    <g fill="none" stroke="currentColor" stroke-width="1.6" stroke-linecap="round" stroke-linejoin="round" vector-effect="non-scaling-stroke">
      <path d="M12 20s-6-4.2-8-7.2C2 10 3.2 7.5 6 7.5c1.6 0 2.7.8 3.6 1.8C10.4 8.3 11.5 7.5 13 7.5c2.8 0 4 2.5 2 5.3C18 15.8 12 20 12 20z"/>
    </g>
  </symbol>

  <symbol id="bdsm-mark" viewBox="0 0 24 24">
    <g fill="none" stroke="currentColor" stroke-width="1.6" stroke-linecap="round" stroke-linejoin="round" vector-effect="non-scaling-stroke">
      <circle cx="12" cy="12" r="8"/>
      <path d="M12 4 a4 4 0 0 1 0 8 M12 12 a4 4 0 0 1 -4 4 M12 12 a4 4 0 0 1 4 4"/>
      <circle cx="12" cy="8" r="0.9"/>
      <circle cx="9" cy="15.5" r="0.9"/>
      <circle cx="15" cy="15.5" r="0.9"/>
    </g>
  </symbol>

  <symbol id="bondage" viewBox="0 0 24 24">
    <g fill="none" stroke="currentColor" stroke-width="1.6" stroke-linecap="round" stroke-linejoin="round" vector-effect="non-scaling-stroke">
      <rect x="5" y="10" width="14" height="4" rx="2"/>
      <circle cx="9" cy="12" r="1.2"/>
      <circle cx="15" cy="12" r="1.2"/>
    </g>
  </symbol>

  <symbol id="candle" viewBox="0 0 24 24">
    <g fill="none" stroke="currentColor" stroke-width="1.6" stroke-linecap="round" stroke-linejoin="round" vector-effect="non-scaling-stroke">
      <path d="M12 6c0-1.3 1-2.3 1.5-3 .6-.9-1.5-.9-1.5 0 0 .7-1.5 1.7-1.5 3s.7 2 1.5 2 1.5-.7 1.5-2z"/>
      <rect x="9" y="8" width="6" height="10" rx="1.2"/>
    </g>
  </symbol>

  <symbol id="key" viewBox="0 0 24 24">
    <g fill="none" stroke="currentColor" stroke-width="1.6" stroke-linecap="round" stroke-linejoin="round" vector-effect="non-scaling-stroke">
      <circle cx="7" cy="12" r="3.2"/>
      <path d="M10 12 h7 l2 2 v2 h-2 v2 h-2 v-2 h-2 v-2"/>
    </g>
  </symbol>

  <symbol id="phone" viewBox="0 0 24 24">
    <g fill="none" stroke="currentColor" stroke-width="1.6" stroke-linecap="round" stroke-linejoin="round" vector-effect="non-scaling-stroke">
      <path d="M6 4 l3 2 -2 3 a14 14 0 0 0 7 7 l3-2 2 3 -2 3 a3 3 0 0 1-3 .8C8 22 2 16 2 10a3 3 0 0 1 .8-3z"/>
    </g>
  </symbol>

  <symbol id="mail" viewBox="0 0 24 24">
    <g fill="none" stroke="currentColor" stroke-width="1.6" stroke-linecap="round" stroke-linejoin="round" vector-effect="non-scaling-stroke">
      <rect x="3" y="6" width="18" height="12" rx="2"/>
      <path d="M4 7.5l8 6 8-6"/>
    </g>
  </symbol>
</svg>

