<svg fill="none" height="48" viewBox="0 0 48 48" width="48" xmlns="http://www.w3.org/2000/svg"><g id="bdsm, dominant, lesbian, sex, strapon, toy" stroke="#333" stroke-linecap="round" stroke-width="2"><path id="Vector" d="m8.05169 31.0436c-2.5332.3018-7.367718 2.8514-7.02208 5.7517.25375 2.1294 2.75918 3.4691 5.76965 3.1104 1.303-.1553 2.16465-1.0462 2.66364-2.208m-1.41121-6.6541c6.79801-2.1547 10.99281-3.1703 17.53381-6.6637 4.4869-1.9929 5.7771 4.9362 2.9145 6.6201-5.5335 3.255-9.0325 4.2017-16.1937 6.6528-1.0229.4435-1.8438.5048-2.8434.0449m-1.41121-6.6541c1.77128-.2111 2.57121 3.9534 1.41121 6.6541"/><path id="Rectangle 9" d="m24.6204 33.6389c.2743.9169.3688 1.1846.6032 2.0682.3558 1.3407 1.5569 2.2929 2.944 2.2929h1.6648c1.3871 0 2.5876-.9498 2.9433-2.2905 2.1532-8.1153 5.9641-18.1702 11.8513-20.3546 1.2554-.4658 2.373-1.5168 2.373-2.8558 0-.576-.1963-1.0913-.5185-1.4991m-34.9264 0c.6341-.7572 1.7177-1.11305 2.7513-.7447 10.6302 3.7884 18.0073 3.7826 29.3943-.0745.5502-.1864 1.1113-.1712 1.611-.0025m-33.7566.8217c-.3436.4103-.5551.9384-.5551 1.533 0 1.3202 1.1011 2.3567 2.341 2.8102 3.3166 1.2129 6.3388 5.891 8.4542 10.4558m-10.2401-14.799c2.2641-3.70422 27.3013-3.97813 33.7566-.8217m0 0c.4611.1557.87.4421 1.1698.8217m-1.1698-.8217c.5154.252.9124.5259 1.1698.8217"/><path id="Vector 4" d="m24 17c2.0969.707 6.0845.782 8 0"/></g></svg>