<svg fill="none" height="49" viewBox="0 0 48 49" width="48" xmlns="http://www.w3.org/2000/svg"><g id="bdsm, dominant, lesbian, sex, strapon, toy" stroke="#333" stroke-linecap="round" stroke-width="2"><path id="Vector" d="m6.30072 26c-.55078 1.3813-.3164 2.9549.73194 4.0032 1.03927 1.0393 2.59477 1.2786 3.96734.7461m-4.69928-4.7493c.20665-.5182.52383-1.0094.95001-1.4356l.9288-.9288m-1.87881 2.3644c-1.45759 0-2.7539.3466-3.8289 1.4216-1.962428 1.9624-1.962428 5.1441 0 7.1066 1.96244 1.9624 5.14417 1.9624 7.1066 0 1.05708-1.0571 1.42158-2.341 1.42158-3.7789m0 0c.5314-.2062 1.0354-.5282 1.4714-.9642l2.9094-2.9093m-7.20127-3.2402c1.39889 2.8961 3.48427 3.6468 7.20127 3.2402m-7.20127-3.2402 4.01877-4.0187m3.1825 7.2589 3.8293-3.8293m-7.0118-3.4296c1.1625 2.7834 2.6606 3.5709 7.0118 3.4296m-7.0118-3.4296 3.8909-3.8909m3.1209 7.3205 4.0728-4.0728m-7.1937-3.2477c1.3729 2.6224 3.2673 3.3931 7.1937 3.2477m-7.1937-3.2477 3.9144-3.9174m3.2793 7.1651 1.9791-1.9805m-.2387-9.99315c-1.2874-.00596-2.5766.48218-3.5588 1.46442-.9277.92762-1.4146 2.12903-1.4609 3.34413m9.6921-1.5296c.6479 1.7711.2612 3.8352-1.1602 5.2565-.9096.9097-2.0826 1.3956-3.2735 1.4577m0 0c-1.3655.0712-2.7546-.4147-3.7975-1.4577-1.025-1.025-1.512-2.3843-1.4609-3.7269"/><path id="Vector 14" d="m24 10c1.4032-3.93743 5.0005-7.92999 10-7.99997 10.1701-.14236 21.2197 7.31685 4 45.99997"/><path id="Vector 15" d="m26 13.0093c1.5695-3.92955 8.8495-4.90762 9 2.9907.2764 14.5045-13 30.5-29 25"/><path id="Vector 16" d="m37 26c-3.5 13-11 20-22 20"/><path id="Vector 17" d="m27 48c4.3657-1.5338 9.5-7.5 11-12"/><path id="Vector 18" d="m31 6.00001c6-3 12 2.00001 12 9.49999"/></g></svg>