<svg id="Layer_1" enable-background="new 0 0 513.98 513.98" height="512" viewBox="0 0 513.98 513.98" width="512" xmlns="http://www.w3.org/2000/svg"><path d="m510.092 83.932c-3.378-4.37-9.658-5.174-14.028-1.798l-220.892 170.704 233.77-235.749c8.983-9.757-4.529-23.142-14.201-14.082l-233.771 235.749 168.836-222.323c3.34-4.398 2.482-10.672-1.916-14.012-4.396-3.34-10.672-2.482-14.012 1.916l-152.038 200.205 88.758-148.693c2.83-4.743 1.281-10.882-3.462-13.713-4.74-2.829-10.881-1.28-13.712 3.462l-174.174 291.787-21.049-20.873c-1.883-1.867-4.44-2.865-7.083-2.899-2.652.012-5.191 1.075-7.059 2.959l-29.873 30.126c-3.889 3.922-3.862 10.253.06 14.142l2.941 2.917-84.288 85.001c-7.2 7.261-11.143 16.892-11.099 27.117.043 10.227 4.065 19.823 11.327 27.023 14.985 14.862 39.274 14.765 54.141-.228l16.644-16.785c.001-.001.002-.002.003-.003l49.784-50.205c.003-.002.005-.005.007-.007l17.85-18.001 2.941 2.917c1.873 1.857 4.404 2.899 7.041 2.899h.042c2.652-.012 5.191-1.075 7.059-2.959l29.873-30.126c3.889-3.922 3.862-10.253-.06-14.142l-17.333-17.188 286.722-180.392c10.956-7.471.818-23.571-10.65-16.928l-169.17 106.434 220.274-170.223c4.369-3.378 5.174-9.659 1.797-14.029zm-383.55 330.56-4.95-4.908c-3.921-3.888-10.252-3.862-14.142.06-3.889 3.922-3.862 10.253.06 14.142l4.95 4.908-10.812 10.903-4.95-4.908c-3.921-3.887-10.252-3.862-14.142.06-3.889 3.922-3.862 10.253.06 14.142l4.95 4.908-10.813 10.904-4.95-4.908c-3.921-3.888-10.251-3.862-14.142.06-3.889 3.922-3.862 10.253.06 14.142l4.95 4.908-9.604 9.686c-3.438 3.468-8.022 5.389-12.906 5.409h-.079c-4.854 0-9.423-1.881-12.872-5.301-3.468-3.439-5.389-8.022-5.409-12.906-.021-4.884 1.861-9.483 5.3-12.951l84.288-85.001 25.967 25.749zm34.937-15.148-2.939-2.915c-.001-.002-.003-.004-.005-.004l-43.107-42.746 15.791-15.925 22.93 22.738c.007.006.013.013.02.02l23.101 22.908z"/></svg>