<svg id="Layer_1" enable-background="new 0 0 511.982 511.982" height="512" viewBox="0 0 511.982 511.982" width="512" xmlns="http://www.w3.org/2000/svg"><path d="m509.053 102.928-100-100c-3.905-3.904-10.237-3.904-14.143 0l-86 86c-1.875 1.875-2.929 4.419-2.929 7.071v70c0 .276.019.546.041.816l-18.112 18.113c-3.905 3.905-3.905 10.237 0 14.143l5.429 5.429-133.357 133.357-22.929-22.929c-3.905-3.905-10.237-3.905-14.143 0l-30 30c-3.905 3.905-3.905 10.237 0 14.143l2.929 2.929-84.645 84.645c-14.926 14.927-14.927 39.215 0 54.143 14.927 14.927 39.216 14.926 54.142 0l84.645-84.645 2.929 2.929c3.905 3.905 10.237 3.905 14.143 0l30-30c3.905-3.905 3.905-10.237 0-14.143l-22.928-22.929 133.357-133.357 5.429 5.429c3.905 3.905 10.237 3.905 14.143 0l18.112-18.113c.27.022.541.041.816.041h70c2.652 0 5.196-1.054 7.071-2.929l86-86c3.905-3.905 3.905-10.237 0-14.143zm-384.071 309.929-4.929-4.929c-3.905-3.905-10.237-3.905-14.143 0-3.905 3.905-3.905 10.237 0 14.143l4.929 4.929-10.857 10.857-4.929-4.929c-3.905-3.905-10.237-3.905-14.143 0-3.905 3.905-3.905 10.237 0 14.143l4.929 4.929-10.857 10.857-4.929-4.929c-3.905-3.905-10.237-3.905-14.143 0-3.905 3.905-3.905 10.237 0 14.143l4.929 4.929-9.645 9.645c-7.128 7.129-18.729 7.129-25.857 0-7.129-7.129-7.129-18.729 0-25.858l84.645-84.645 25.857 25.858zm35-14.999-2.924-2.924c-.003-.004-.006-.007-.01-.01l-39.99-39.99c-.003-.004-.006-.007-.01-.01l-2.924-2.924 15.858-15.858 22.924 22.924c.003.004.006.007.01.01l22.924 22.924zm160-195-10.858-10.858 36.858-36.858 10.858 10.858zm91.858-16.858h-46.715l12.929-12.929c3.905-3.905 3.905-10.237 0-14.143l-25-25c-3.905-3.905-10.237-3.905-14.143 0l-12.929 12.929v-46.715l76-76 85.858 85.858z"/></svg>