<svg id="Layer_1" enable-background="new 0 0 510.664 510.664" height="512" viewBox="0 0 510.664 510.664" width="512" xmlns="http://www.w3.org/2000/svg"><path d="m430.688 356.138-16.568-16.568c-5.667-5.666-8.787-13.2-8.787-21.213v-154.432c-8.321-218.65-321.757-218.483-330 0v65.953c0 3.863.303 7.759.899 11.578l7.729 49.469h-8.628c-5.523 0-10 4.477-10 10v40c0 5.523 4.477 10 10 10h10v120c2.017 53.006 78.002 52.966 80 0v-120h10c5.523 0 10-4.477 10-10v-40c0-5.523-4.477-10-10-10h-8.628l6.111-39.112c1.67-10.692 2.517-21.6 2.517-32.419v-55.469c3.278-86.135 126.753-86.069 130 0v194.432c0 13.355 5.201 25.912 14.645 35.355l16.568 16.568c5.666 5.667 8.787 13.2 8.787 21.213v23.432c.492 13.254 19.513 13.244 20 0v-23.432c0-13.355-5.201-25.912-14.645-35.355l-16.568-16.568c-5.666-5.667-8.787-13.2-8.787-21.213v-194.432c-4.287-112.638-165.754-112.552-170 0v55.469c0 9.789-.766 19.658-2.277 29.332l-6.594 42.199h-11.128v-127c5.296-139.141 204.754-139.035 210 0v174.432c0 13.355 5.201 25.912 14.645 35.355l16.568 16.568c5.666 5.667 8.787 13.2 8.787 21.213v23.432c.492 13.254 19.513 13.244 20 0v-23.432c0-13.355-5.201-25.912-14.645-35.355l-16.568-16.568c-5.666-5.667-8.787-13.2-8.787-21.213v-174.432c-6.304-165.644-243.755-165.518-250 0v127h-11.128l-8.212-52.557c-.438-2.801-.66-5.658-.66-8.491v-65.953c7.313-192.147 282.756-192.001 290 0v154.432c0 13.355 5.201 25.912 14.645 35.355l16.568 16.568c5.667 5.666 8.787 13.2 8.787 21.213v23.432c.492 13.254 19.513 13.244 20 0v-23.432c-.002-13.354-5.202-25.91-14.646-35.354zm-285.356 14.787h-10c-13.254.492-13.244 19.513 0 20h10v20h-10c-13.254.492-13.244 19.513 0 20h10v20h-10c-13.254.492-13.244 19.513 0 20h10c-1.009 26.503-39.001 26.483-40 0v-120h40zm20-40h-80v-20h80z"/></svg>