<svg id="Layer_1" enable-background="new 0 0 450 450" viewBox="0 0 450 450" xmlns="http://www.w3.org/2000/svg"><g><g><path d="m42.2 446.8c-9.7 0-19.5-3.7-26.9-11.1-7.1-7.2-11-16.7-11-26.9s3.9-19.7 11.1-26.9l141.2-141.2c10.1-10.1 26.5-10.1 36.5 0l17.2 17.2c4.9 4.9 7.5 11.4 7.5 18.3s-2.7 13.4-7.5 18.3l-141.2 141.2c-7.4 7.4-17.2 11.1-26.9 11.1zm132.6-203.6c-4.1 0-8.1 1.5-11.2 4.6l-141.2 141.2c-10.9 10.9-10.9 28.7 0 39.6s28.7 10.9 39.6 0l141.2-141.2c3-3 4.6-7 4.6-11.2s-1.6-8.2-4.6-11.2l-17.2-17.2c-3.1-3.1-7.1-4.6-11.2-4.6z"/></g><g><g><path d="m160.1 287.3c-1.3 0-2.6-.5-3.5-1.5l-19-19c-1.9-2-1.9-5.1 0-7.1s5.1-2 7.1 0l19 19c1.9 2 1.9 5.1 0 7.1-1.1 1-2.3 1.5-3.6 1.5z"/></g><g><path d="m121.4 326c-1.3 0-2.6-.5-3.5-1.5l-19-19c-1.9-2-1.9-5.1 0-7.1s5.1-2 7.1 0l19 19c1.9 2 1.9 5.1 0 7.1-1 1-2.3 1.5-3.6 1.5z"/></g><g><path d="m82.7 364.7c-1.3 0-2.6-.5-3.5-1.5l-19-19c-1.9-2-1.9-5.1 0-7.1s5.1-2 7.1 0l19 19c1.9 2 1.9 5.1 0 7.1-1 1-2.3 1.5-3.6 1.5z"/></g><g><path d="m44.1 403.4c-1.3 0-2.6-.5-3.5-1.5l-19-19c-2-2-2-5.1 0-7.1s5.1-2 7.1 0l19 19c1.9 2 1.9 5.1 0 7.1-1.1 1-2.4 1.5-3.6 1.5z"/></g></g><g><path d="m198.1 257.9c-1.3 0-2.6-.5-3.5-1.5-1.9-2-1.9-5.1 0-7.1l175-175c2-1.9 5.1-1.9 7.1 0s2 5.1 0 7.1l-175 175c-1 1-2.3 1.5-3.6 1.5z"/></g><g><path d="m354.1 154.8c-15.5 0-30.1-6-41-16.9s-16.9-25.5-16.9-41 6-30.1 16.9-41l49.7-49.7c.9-.9 2.2-1.5 3.5-1.5s2.6.5 3.5 1.5l74.9 74.9c2 1.9 2 5.1 0 7.1l-49.7 49.7c-10.8 10.9-25.4 16.9-40.9 16.9zm12.3-138-46.2 46.2c-9 9-14 21.1-14 33.9s5 24.9 14 33.9 21.1 14 33.9 14 24.9-5 33.9-14l46.2-46.2z"/></g></g></svg>