<svg xmlns="http://www.w3.org/2000/svg" style="display: none;">
  <!-- BDSM Icon Sprite Collection -->
  
  <!-- Handcuffs -->
  <symbol id="handcuffs" viewBox="0 0 511.364 511.364" stroke="currentColor" stroke-width="8" fill="currentColor">
    <path d="m401.682 235.682c-5.523 0-10 4.477-10 10 .49 13.251 19.512 13.247 20 0 0-5.522-4.477-10-10-10z"/>
    <path d="m461.682 253.477v-47.795c0-5.523-4.478-10-10-10h-40v-30c0-16.542-13.458-30-30-30h-106c-5.514 0-10-4.486-10-10v-40c0-16.542-13.458-30-30-30h-106c-16.542 0-30 13.458-30 30v30h-40c-5.522 0-10 4.477-10 10v47.795c-90.858 59.691-48.985 201.718 60.002 202.205 108.989-.491 150.854-142.532 59.998-202.205v-47.795c0-5.523-4.478-10-10-10h-40v-30c0-5.514 4.486-10 10-10h106c5.514 0 10 4.486 10 10v40c0 16.542 13.458 30 30 30h106c5.514 0 10 4.486 10 10v30h-40c-5.522 0-10 4.477-10 10v47.795c-90.858 59.691-48.985 201.718 60.002 202.205 108.989-.491 150.854-142.532 59.998-202.205zm-307.008-65.757c66.801 38.297 56.197 138.633-15.417 162.965 1.22-6.808-.222-14.295-3.617-20.013 70.517-29.187 51.38-133.672-25.959-134.99-92.748 3.528-92.701 136.496.002 140 5.513 0 9.999 4.486 9.999 10s-4.486 10-10 10c-91.666-.576-123.957-121.703-44.992-167.962 3.09-1.787 4.992-5.086 4.992-8.656v-43.381h80v43.381c0 3.569 1.902 6.868 4.992 8.656zm-94.992 77.962c0-27.57 22.43-50 50-50 66.241 2.513 66.223 97.497-.001 100-27.57 0-49.999-22.429-49.999-50zm371.575 165.003c1.22-6.808-.222-14.295-3.617-20.013 70.517-29.187 51.38-133.672-25.959-134.99-92.748 3.528-92.701 136.496.002 140 5.513 0 9.999 4.486 9.999 10s-4.486 10-10 10c-91.665-.577-123.956-121.704-44.992-167.963 3.09-1.787 4.992-5.086 4.992-8.656v-43.381h80v43.381c0 3.569 1.902 6.869 4.992 8.656 66.801 38.298 56.197 138.633-15.417 162.966zm-79.575-85.003c0-27.57 22.43-50 50-50 66.241 2.513 66.223 97.497-.001 100-27.57 0-49.999-22.429-49.999-50z"/>
    <path d="m109.682 155.682c-5.523 0-10 4.477-10 10 .49 13.251 19.512 13.247 20 0 0-5.522-4.477-10-10-10z"/>
    <path d="m305.159 205.653c-7.364-6.627-19.303-6.627-26.667 0l-2.811 2.029-2.811-2.029c-7.364-6.627-19.303-6.627-26.666 0-7.364 6.627-7.364 17.373 0 24l29.477 26.029 29.477-26.029c7.365-6.627 7.365-17.373.001-24z"/>
  </symbol>
  
  <!-- Whip -->
  <symbol id="whip" viewBox="0 0 511.982 511.982">
    <path d="m509.053 102.928-100-100c-3.905-3.904-10.237-3.904-14.143 0l-86 86c-1.875 1.875-2.929 4.419-2.929 7.071v70c0 .276.019.546.041.816l-18.112 18.113c-3.905 3.905-3.905 10.237 0 14.143l5.429 5.429-133.357 133.357-22.929-22.929c-3.905-3.905-10.237-3.905-14.143 0l-30 30c-3.905 3.905-3.905 10.237 0 14.143l2.929 2.929-84.645 84.645c-14.926 14.927-14.927 39.215 0 54.143 14.927 14.927 39.216 14.926 54.142 0l84.645-84.645 2.929 2.929c3.905 3.905 10.237 3.905 14.143 0l30-30c3.905-3.905 3.905-10.237 0-14.143l-22.928-22.929 133.357-133.357 5.429 5.429c3.905 3.905 10.237 3.905 14.143 0l18.112-18.113c.27.022.541.041.816.041h70c2.652 0 5.196-1.054 7.071-2.929l86-86c3.905-3.905 3.905-10.237 0-14.143zm-384.071 309.929-4.929-4.929c-3.905-3.905-10.237-3.905-14.143 0-3.905 3.905-3.905 10.237 0 14.143l4.929 4.929-10.857 10.857-4.929-4.929c-3.905-3.905-10.237-3.905-14.143 0-3.905 3.905-3.905 10.237 0 14.143l4.929 4.929-10.857 10.857-4.929-4.929c-3.905-3.905-10.237-3.905-14.143 0-3.905 3.905-3.905 10.237 0 14.143l4.929 4.929-9.645 9.645c-7.128 7.129-18.729 7.129-25.857 0-7.129-7.129-7.129-18.729 0-25.858l84.645-84.645 25.857 25.858zm35-14.999-2.924-2.924c-.003-.004-.006-.007-.01-.01l-39.99-39.99c-.003-.004-.006-.007-.01-.01l-2.924-2.924 15.858-15.858 22.924 22.924c.003.004.006.007.01.01l22.924 22.924zm160-195-10.858-10.858 36.858-36.858 10.858 10.858zm91.858-16.858h-46.715l12.929-12.929c3.905-3.905 3.905-10.237 0-14.143l-25-25c-3.905-3.905-10.237-3.905-14.143 0l-12.929 12.929v-46.715l76-76 85.858 85.858z"/>
  </symbol>
  
  <!-- Paddle -->
  <symbol id="paddle" viewBox="0 0 511.739 511.739">
    <path d="m495.941 142.928-140-140c-3.905-3.904-10.237-3.904-14.143 0l-200 200c-3.905 3.905-3.905 10.237 0 14.143l42.929 42.929-88.929 88.929c-3.905 3.905-3.905 10.237 0 14.143l2.929 2.928h-35.858c-27.57 0-50 22.43-50 50v56c2.018 53.006 78.001 52.966 80 0v-56c0-15.226 11.404-27.829 26.117-29.74l16.812 16.812c3.906 3.905 10.237 3.905 14.143 0l88.929-88.929 42.929 42.929c3.905 3.904 10.237 3.904 14.143 0l200-200c3.904-3.906 3.904-10.239-.001-14.144zm-423.072 273.072v56c-1.009 26.503-39.001 26.483-40 0v-56c0-16.542 13.458-30 30-30h20.023c-6.289 8.362-10.023 18.753-10.023 30zm216.001-80.143-42.929-42.929c-3.905-3.904-10.237-3.904-14.143 0l-88.929 88.929-25.857-25.857 88.929-88.929c3.905-3.905 3.905-10.237 0-14.143l-42.929-42.928 185.858-185.858 125.857 125.858z"/>
    <path d="m218.869 200c-5.523 0-10 4.477-10 10 .49 13.251 19.512 13.247 20 0 0-5.523-4.477-10-10-10z"/>
    <path d="m262.203 156.666c-5.523 0-10 4.477-10 10 .49 13.251 19.512 13.247 20 0 0-5.523-4.477-10-10-10z"/>
    <path d="m305.536 113.333c-5.523 0-10 4.477-10 10 .49 13.25 19.511 13.247 20 0 0-5.523-4.477-10-10-10z"/>
    <path d="m338.87 80c0 5.523 4.477 10 10 10 13.251-.49 13.247-19.512 0-20-5.523 0-10 4.477-10 10z"/>
    <path d="m253.869 235c-5.523 0-10 4.477-10 10 .49 13.251 19.512 13.247 20 0 .001-5.523-4.477-10-10-10z"/>
    <path d="m297.203 191.666c-5.523 0-10 4.477-10 10 .49 13.251 19.512 13.247 20 0 0-5.523-4.477-10-10-10z"/>
    <path d="m340.536 148.333c-5.523 0-10 4.477-10 10 .49 13.25 19.511 13.247 20 0 0-5.523-4.477-10-10-10z"/>
    <path d="m383.87 125c5.523 0 10-4.477 10-10-.49-13.251-19.512-13.247-20 0 0 5.522 4.477 10 10 10z"/>
    <path d="m288.87 270c-5.523 0-10 4.477-10 10 .49 13.251 19.512 13.247 20 0 0-5.523-4.478-10-10-10z"/>
    <path d="m332.203 226.666c-5.523 0-10 4.477-10 10 .49 13.251 19.512 13.247 20 0 0-5.523-4.477-10-10-10z"/>
    <path d="m375.536 203.333c5.523 0 10-4.478 10-10-.49-13.251-19.512-13.247-20 0 0 5.522 4.477 10 10 10z"/>
    <path d="m418.87 160c5.523 0 10-4.477 10-10-.49-13.251-19.512-13.247-20 0 0 5.522 4.477 10 10 10z"/>
  </symbol>
  
  <!-- Chain -->
  <symbol id="chain" viewBox="0 0 512 512">
    <path d="M502.6 169.4L342.6 9.4c-12.5-12.5-32.8-12.5-45.3 0L233 73.7c-12.5 12.5-12.5 32.8 0 45.3l160 160c12.5 12.5 32.8 12.5 45.3 0l64.3-64.3c12.5-12.5 12.5-32.8 0-45.3zM438.3 233L374 297.3c-6.2 6.2-16.4 6.2-22.6 0L191.4 137.3c-6.2-6.2-6.2-16.4 0-22.6L255.7 50.4c6.2-6.2 16.4-6.2 22.6 0l160 160c6.3 6.2 6.3 16.4 0 22.6z"/>
    <path d="M342.6 342.6L182.6 502.6c-12.5 12.5-32.8 12.5-45.3 0L73 438.3c-12.5-12.5-12.5-32.8 0-45.3l160-160c12.5-12.5 32.8-12.5 45.3 0l64.3 64.3c12.5 12.5 12.5 32.8 0 45.3zM278.3 297.3c-6.2-6.2-16.4-6.2-22.6 0l-160 160c-6.2 6.2-6.2 16.4 0 22.6l64.3 64.3c6.2 6.2 16.4 6.2 22.6 0l160-160c6.2-6.2 6.2-16.4 0-22.6L278.3 297.3z"/>
  </symbol>
  
  <!-- Mask -->
  <symbol id="mask" viewBox="0 0 512 512">
    <path d="M256 32C132.3 32 32 132.3 32 256s100.3 224 224 224 224-100.3 224-224S379.7 32 256 32zm-96 192c-35.3 0-64-28.7-64-64s28.7-64 64-64 64 28.7 64 64-28.7 64-64 64zm192 0c-35.3 0-64-28.7-64-64s28.7-64 64-64 64 28.7 64 64-28.7 64-64 64z"/>
  </symbol>
  
  <!-- Ball Gag -->
  <symbol id="ball_gag" viewBox="0 0 512 512">
    <circle cx="256" cy="256" r="80" fill="currentColor"/>
    <path d="M256 96c-88.4 0-160 71.6-160 160s71.6 160 160 160 160-71.6 160-160S344.4 96 256 96zm0 224c-35.3 0-64-28.7-64-64s28.7-64 64-64 64 28.7 64 64-28.7 64-64 64z" fill="currentColor"/>
    <path d="M50 256c0-5.5 4.5-10 10-10h50c5.5 0 10 4.5 10 10s-4.5 10-10 10H60c-5.5 0-10-4.5-10-10z" stroke="currentColor" stroke-width="8" fill="none"/>
    <path d="M392 256c0-5.5 4.5-10 10-10h50c5.5 0 10 4.5 10 10s-4.5 10-10 10h-50c-5.5 0-10-4.5-10-10z" stroke="currentColor" stroke-width="8" fill="none"/>
  </symbol>
  
  <!-- Collar -->
  <symbol id="collar" viewBox="0 0 512 512">
    <path d="M256 32C132.3 32 32 132.3 32 256c0 53.4 18.7 102.4 50 141l-50 50c-7.8 7.8-7.8 20.5 0 28.3s20.5 7.8 28.3 0l50-50c38.6 31.3 87.6 50 141 50s102.4-18.7 141-50l50 50c7.8 7.8 20.5 7.8 28.3 0s7.8-20.5 0-28.3l-50-50c31.3-38.6 50-87.6 50-141 0-123.7-100.3-224-224-224zm0 352c-70.7 0-128-57.3-128-128s57.3-128 128-128 128 57.3 128 128-57.3 128-128 128z"/>
    <rect x="236" y="196" width="40" height="80" rx="8" fill="currentColor"/>
    <circle cx="256" cy="316" r="16" fill="currentColor"/>
  </symbol>
  
  <!-- Flogger -->
  <symbol id="flogger" viewBox="0 0 512 512">
    <rect x="240" y="32" width="32" height="200" rx="8" fill="currentColor"/>
    <path d="M220 232h72v40h-72z" fill="currentColor"/>
    <path d="M224 272v180M240 272v190M256 272v195M272 272v190M288 272v180" stroke="currentColor" stroke-width="4"/>
  </symbol>
  
  <!-- Bondage Rope -->
  <symbol id="rope" viewBox="0 0 512 512">
    <circle cx="128" cy="128" r="24" stroke="currentColor" stroke-width="8" fill="none"/>
    <circle cx="256" cy="128" r="24" stroke="currentColor" stroke-width="8" fill="none"/>
    <circle cx="384" cy="128" r="24" stroke="currentColor" stroke-width="8" fill="none"/>
    <circle cx="128" cy="256" r="24" stroke="currentColor" stroke-width="8" fill="none"/>
    <circle cx="256" cy="256" r="24" stroke="currentColor" stroke-width="8" fill="none"/>
    <circle cx="384" cy="256" r="24" stroke="currentColor" stroke-width="8" fill="none"/>
    <circle cx="128" cy="384" r="24" stroke="currentColor" stroke-width="8" fill="none"/>
    <circle cx="256" cy="384" r="24" stroke="currentColor" stroke-width="8" fill="none"/>
    <circle cx="384" cy="384" r="24" stroke="currentColor" stroke-width="8" fill="none"/>
  </symbol>
  
  <!-- Chains -->
  <symbol id="chains" viewBox="0 0 512 512">
    <circle cx="128" cy="80" r="32" stroke="currentColor" stroke-width="6" fill="none"/>
    <circle cx="128" cy="160" r="32" stroke="currentColor" stroke-width="6" fill="none"/>
    <circle cx="128" cy="240" r="32" stroke="currentColor" stroke-width="6" fill="none"/>
    <circle cx="128" cy="320" r="32" stroke="currentColor" stroke-width="6" fill="none"/>
    <circle cx="128" cy="400" r="32" stroke="currentColor" stroke-width="6" fill="none"/>
  </symbol>
  
  <!-- Candle -->
  <symbol id="candle" viewBox="0 0 512 512">
    <rect x="216" y="128" width="80" height="352" rx="8" fill="currentColor"/>
    <ellipse cx="256" cy="128" rx="40" ry="20" fill="currentColor"/>
    <path d="M256 108c-10 0-18-8-18-18v-20c0-10 8-18 18-18s18 8 18 18v20c0 10-8 18-18 18z" fill="currentColor"/>
    <ellipse cx="256" cy="88" rx="6" ry="12" fill="#ff6b35"/>
  </symbol>
</svg>