<svg xmlns="http://www.w3.org/2000/svg" style="display: none;">
  <!-- Simplified Royal Icons for UI Display -->
  
  <symbol id="crown" viewBox="0 0 24 24">
    <path d="M5 16L3 7l3 3 6-4 6 4 3-3-2 9H5zm2-2h10l.5-3.5L16 12l-4-2.5L8 12l-1.5-1.5L7 14z" fill="currentColor"/>
    <rect x="4" y="16" width="16" height="2" rx="1" fill="currentColor"/>
  </symbol>
  
  <symbol id="crown-royal" viewBox="0 0 24 24">
    <path d="M12 2l2 4 4-2-1 4h-2l-3-2-3 2h-2l-1-4 4 2z" fill="currentColor"/>
    <path d="M5 8l2 8h10l2-8-2 2-3-1-2 3-2-3-3 1z" fill="currentColor"/>
    <rect x="4" y="16" width="16" height="2" rx="1" fill="currentColor"/>
  </symbol>
  
  <symbol id="diamond" viewBox="0 0 24 24">
    <path d="M12 2l4 6H8l4-6zm-8 6h4l4 10 4-10h4l-8 14-8-14z" fill="currentColor"/>
  </symbol>
  
  <symbol id="ruby" viewBox="0 0 24 24">
    <path d="M12 2l3 4h-6l3-4zm-5 4h10l-5 12-5-12z" fill="currentColor"/>
    <ellipse cx="12" cy="12" rx="3" ry="6" fill="currentColor" opacity="0.3"/>
  </symbol>
  
  <symbol id="sapphire" viewBox="0 0 24 24">
    <path d="M12 2l4 3-2 3-2-2-2 2-2-3 4-3zm-6 6h12l-6 14-6-14z" fill="currentColor"/>
    <path d="M8 10h8l-4 8-4-8z" fill="currentColor" opacity="0.4"/>
  </symbol>
  
  <symbol id="gem" viewBox="0 0 24 24">
    <path d="M12 2l5 4H7l5-4zm-7 4h14l-7 16L5 6z" fill="currentColor"/>
    <path d="M8 8h8l-4 10-4-10z" fill="currentColor" opacity="0.3"/>
  </symbol>
  
  <symbol id="gem-alt" viewBox="0 0 24 24">
    <path d="M12 2l4 5H8l4-5zm-6 5h12l-6 15-6-15z" fill="currentColor"/>
    <polygon points="9,9 15,9 12,16" fill="currentColor" opacity="0.5"/>
  </symbol>
  
  <symbol id="jewelry" viewBox="0 0 24 24">
    <circle cx="12" cy="12" r="8" fill="none" stroke="currentColor" stroke-width="2"/>
    <circle cx="12" cy="12" r="4" fill="currentColor"/>
    <path d="M12 4v4M12 16v4M4 12h4M16 12h4" stroke="currentColor" stroke-width="1.5"/>
  </symbol>
  
  <symbol id="scepter" viewBox="0 0 24 24">
    <line x1="4" y1="20" x2="20" y2="4" stroke="currentColor" stroke-width="2"/>
    <circle cx="19" cy="5" r="3" fill="currentColor"/>
    <path d="M16 8l1-1 1 1-1 1z" fill="currentColor"/>
    <circle cx="5" cy="19" r="2" fill="currentColor"/>
  </symbol>
  
  <symbol id="insignia" viewBox="0 0 24 24">
    <circle cx="12" cy="12" r="10" fill="none" stroke="currentColor" stroke-width="2"/>
    <path d="M12 6l2 4h4l-3 3 1 4-4-2-4 2 1-4-3-3h4z" fill="currentColor"/>
  </symbol>
  
  <symbol id="royal" viewBox="0 0 24 24">
    <rect x="4" y="8" width="16" height="10" rx="2" fill="currentColor"/>
    <path d="M6 8V6c0-2 2-4 6-4s6 2 6 4v2" fill="none" stroke="currentColor" stroke-width="2"/>
    <circle cx="12" cy="13" r="2" fill="white"/>
    <rect x="11" y="13" width="2" height="3" fill="white"/>
  </symbol>
  <symbol id="crown-alt" viewBox="0 0 64 64"><path d="m71.648438 159.929688 48.136718-53.351563 69.226563 40.539063 133.964843-.007813 69.238282-40.53125 48.125 53.351563v66.25l-78.136719 106.574218-72.09375-133.21875-117.546875 25.078125-81.5 17.238281" fill="#e8a328"/><path d="m495.398438 441.75c0 19.519531-15.820313 35.339844-35.339844 35.339844h-408.128906c-9.757813 0-18.597657-3.960938-24.992188-10.355469s-10.34375-15.226563-10.34375-24.984375c0-19.507812 15.820312-35.339844 35.335938-35.339844h408.128906c9.757812 0 18.589844 3.960938 24.984375 10.355469s10.355469 15.234375 10.355469 24.984375zm0 0" fill="#cacadb"/><path d="m495.398438 441.75c0 19.519531-15.820313 35.339844-35.339844 35.339844h-303.636719c-9.761719 0-18.601563-3.960938-24.996094-10.355469s-10.34375-15.226563-10.34375-24.984375c0-19.507812 15.820313-35.339844 35.339844-35.339844h303.636719c9.757812 0 18.589844 3.960938 24.984375 10.355469s10.355469 15.234375 10.355469 24.984375zm0 0" fill="#e4e4ef"/><path d="m446.503906 278.003906c0 19.144532 11.777344 35.546875 28.484375 42.339844l-14.929687 86.066406h-408.128906l-14.929688-86.066406c16.707031-6.792969 28.484375-23.195312 28.484375-42.339844 0-24.585937-19.414063-44.636718-43.75-45.660156l-21.734375-125.277344 94.898438 70.011719 43.183593 31.855469 117.917969-143.140625 117.90625 143.140625 138.09375-101.867188-21.734375 125.273438c-24.34375 1.015625-43.761719 21.066406-43.761719 45.664062zm0 0" fill="#ffbf3e"/><path d="m127.476562 406.410156h-75.546874l-14.929688-86.066406c16.707031-6.792969 28.484375-23.199219 28.484375-42.339844 0-24.585937-19.414063-44.640625-43.75-45.664062l-21.734375-125.273438 94.898438 70.011719zm0 0" fill="#e8a328"/><path d="m301.703125 278c0 25.242188-20.464844 45.707031-45.707031 45.707031-25.242188 0-45.707032-20.464843-45.707032-45.707031s20.464844-45.703125 45.707032-45.703125c25.242187 0 45.707031 20.460937 45.707031 45.703125zm0 0" fill="#e8a328"/><path d="m296.488281 40.980469c0 18.074219-11.847656 33.394531-28.210937 38.585937-3.867188 1.234375-7.992188 1.902344-12.277344 1.902344-22.359375 0-40.488281-18.128906-40.488281-40.488281 0-22.363281 18.128906-40.480469 40.488281-40.480469 4.285156 0 8.410156.667969 12.277344 1.902344 16.363281 5.195312 28.210937 20.5 28.210937 38.578125zm0 0" fill="#e22b2b"/><path d="m296.488281 40.980469c0 18.074219-11.847656 33.394531-28.210937 38.585937-16.363282-5.191406-28.210938-20.511718-28.210938-38.585937 0-18.078125 11.847656-33.386719 28.210938-38.578125 16.363281 5.195312 28.210937 20.5 28.210937 38.578125zm0 0" fill="#f94141"/></symbol>
  <symbol id="crown-royal" viewBox="0 0 64 64"><g><g><path d="m108 87 5.075-38.062-4.292-2.273-14.331 12.815a13 13 0 0 1 -20.43-4.161l-7.045-14.987h-5.954l-7.045 14.987a13 13 0 0 1 -20.43 4.161l-14.331-12.815-4.292 2.273 5.075 38.062z" fill="#ffd92e"/><path d="m20 87h88v14h-88z" fill="#fcbe00"/><g fill="#fa465f"><circle cx="14" cy="42" r="7"/><circle cx="64" cy="34" r="7"/><circle cx="114" cy="42" r="7"/></g><path d="m70 74.901-6 5-6-5 6-11z" fill="#57beff"/></g><g><path d="m86.93 99.25h-4.971a1.75 1.75 0 0 0 0 3.5h4.971a1.75 1.75 0 0 0 0-3.5z"/><path d="m32.381 60.784a14.606 14.606 0 0 0 9.781 3.762 14.978 14.978 0 0 0 2.994-.3 14.617 14.617 0 0 0 10.406-8.178 1.75 1.75 0 0 0 -3.168-1.489 11.249 11.249 0 0 1 -17.68 3.6l-13.165-11.779a8.792 8.792 0 1 0 -2.335 2.607zm-18.381-13.534a5.25 5.25 0 1 1 5.25-5.25 5.256 5.256 0 0 1 -5.25 5.25z"/><path d="m122.75 42a8.75 8.75 0 1 0 -16.3 4.4l-13.165 11.775a11.25 11.25 0 0 1 -17.68-3.6l-6.38-13.575a8.75 8.75 0 1 0 -10.451 0l-2.514 5.351a1.75 1.75 0 1 0 3.168 1.489l2.513-5.34a8.44 8.44 0 0 0 4.118 0l6.378 13.569a14.621 14.621 0 0 0 10.407 8.178 14.978 14.978 0 0 0 2.994.3 14.6 14.6 0 0 0 9.78-3.762l13.168-11.775a8.689 8.689 0 0 0 2.348 1.248l-4.666 34.992h-84.936l-3.66-27.45a1.75 1.75 0 1 0 -3.469.463l3.847 28.851v13.886a1.75 1.75 0 0 0 1.75 1.75h52.843a1.75 1.75 0 1 0 0-3.5h-51.093v-10.5h84.5v10.5h-10.2a1.75 1.75 0 1 0 0 3.5h11.95a1.75 1.75 0 0 0 1.75-1.75v-13.886l4.853-36.4a8.754 8.754 0 0 0 8.147-8.714zm-64-8a5.25 5.25 0 1 1 5.25 5.25 5.256 5.256 0 0 1 -5.25-5.25zm50 8a5.25 5.25 0 1 1 5.25 5.25 5.256 5.256 0 0 1 -5.25-5.25z"/><path d="m64 81.65a1.748 1.748 0 0 0 1.12-.405l6-5a1.75 1.75 0 0 0 .416-2.182l-6-11a1.749 1.749 0 0 0 -3.072 0l-6 11a1.748 1.748 0 0 0 .416 2.182l6 5a1.746 1.746 0 0 0 1.12.405zm0-14.095 3.775 6.922-3.775 3.146-3.775-3.146z"/><path d="m45 73.15a1.75 1.75 0 0 0 0 3.5h4a1.75 1.75 0 0 0 0-3.5z"/><path d="m83 76.65a1.75 1.75 0 0 0 0-3.5h-4a1.75 1.75 0 0 0 0 3.5z"/></g></g></symbol>
  <symbol id="scepter" viewBox="0 0 64 64"><g><g><path d="m321.497 239.867-7.58-41.801-41.801-7.58-254.39 254.39c-13.636 13.636-13.636 35.745 0 49.381 13.636 13.636 35.745 13.636 49.381 0z" fill="#ffe177"/><path d="m31.724 502.804c-5.118-1.634-9.939-4.486-14.001-8.548-13.64-13.64-13.631-35.746 0-49.377l254.395-254.395 41.795 7.582 3.466 19.083-22.712-4.116-254.394 254.395c-9.569 9.569-12.43 23.316-8.549 35.376z" fill="#ffd15b"/><path d="m357.142 207.072-52.231-52.231c-9.45-9.45-24.771-9.45-34.22 0-9.45 9.45-9.45 24.771 0 34.22l52.231 52.231c9.45 9.45 24.771 9.45 34.22 0 9.45-9.449 9.45-24.77 0-34.22z" fill="#fff0ad"/><path d="m294.864 203.207c0 6.193 2.365 12.385 7.086 17.106l-31.251-31.251c-4.721-4.721-7.086-10.914-7.095-17.115 0-6.192 2.356-12.376 7.086-17.106 9.451-9.451 24.779-9.451 34.23 0l31.251 31.251c-9.451-9.451-24.77-9.442-34.221.009-4.73 4.73-7.086 10.914-7.086 17.106z" fill="#ffe177"/><path d="m357.142 207.072c66.678 0 117.108-19.774 132.717-59.398s-54.37-71.18-54.37-71.18-31.557-69.98-71.18-54.37-59.398 66.04-59.398 132.717" fill="#fe646f"/><path d="m330.395 180.319-25.483-25.483c0-66.672 19.778-117.105 59.397-132.713 23.091-9.099 43.437 10.868 56.4 29.121-9.325-5.66-19.805-8.016-30.917-3.638-39.619 15.608-59.397 66.041-59.397 132.713z" fill="#fd4755"/><path d="m113.997 450.218-52.231-52.231c-9.45-9.45-24.771-9.45-34.22 0-9.45 9.45-9.45 24.771 0 34.22l52.231 52.231c9.45 9.45 24.771 9.45 34.22 0 9.449-9.449 9.449-24.77 0-34.22z" fill="#fff0ad"/><path d="m51.717 446.354c0 6.193 2.365 12.385 7.086 17.106l-31.251-31.251c-4.721-4.721-7.086-10.913-7.095-17.115 0-6.193 2.365-12.385 7.086-17.106 9.451-9.451 24.779-9.451 34.23 0l31.251 31.251c-9.451-9.451-24.77-9.442-34.221.009-4.721 4.722-7.086 10.914-7.086 17.106z" fill="#ffe177"/><path d="m148.217 415.998-52.231-52.231c-9.45-9.45-24.771-9.45-34.22 0-9.45 9.45-9.45 24.771 0 34.22l52.231 52.231c9.45 9.45 24.771 9.45 34.22 0 9.45-9.45 9.45-24.771 0-34.22z" fill="#fff0ad"/><path d="m85.937 412.134c0 6.193 2.365 12.385 7.086 17.106l-31.251-31.251c-4.721-4.721-7.086-10.913-7.095-17.115 0-6.193 2.365-12.385 7.086-17.106 9.451-9.451 24.779-9.451 34.23 0l31.251 31.251c-9.451-9.451-24.77-9.442-34.221.009-4.72 4.721-7.085 10.913-7.086 17.106z" fill="#ffe177"/><path d="m466.36 45.623c-9.616-9.616-25.205-9.616-34.821 0l-117.923 117.923 34.821 34.821 117.923-117.923c9.616-9.615 9.616-25.205 0-34.821z" fill="#ffe177"/><path d="m472.124 54.686c-8.693-3.133-18.803-1.218-25.771 5.75l-117.918 117.918-14.813-14.813 117.917-117.918c9.614-9.614 25.212-9.614 34.826 0 2.645 2.645 4.568 5.759 5.759 9.063z" fill="#ffd15b"/><circle cx="482.157" cy="29.826" fill="#fe646f" r="22.34"/></g><path d="m503.258 50.926c11.634-11.635 11.634-30.565 0-42.2-11.637-11.635-30.567-11.635-42.202 0-6.144 6.144-9.04 14.323-8.695 22.388-9.322-.988-18.996 2.077-26.125 9.206l-2.462 2.462c-19.8-25.918-41.673-35.728-62.213-27.635-21.235 8.366-37.617 25.595-48.69 51.209-8.96 20.726-14.06 46.065-15.207 75.464-3.143-1.025-6.46-1.567-9.863-1.567-8.467 0-16.427 3.297-22.413 9.284-5.987 5.987-9.285 13.947-9.285 22.414 0 6.608 2.017 12.903 5.746 18.197l-104.396 104.404c-2.929 2.929-2.929 7.678.001 10.607 2.928 2.929 7.677 2.928 10.606 0l5.531-5.532 63.277 14.256-35.407 35.405-63.275-14.256 5.134-5.134c2.929-2.929 2.929-7.678 0-10.606-2.93-2.929-7.678-2.929-10.607 0l-35.635 35.636c-5.295-3.731-11.592-5.749-18.202-5.749-8.467 0-16.427 3.297-22.414 9.284-6.85 6.85-9.896 16.081-9.153 25.054-.878-.073-1.762-.117-2.653-.117-8.467 0-16.427 3.297-22.413 9.284-5.987 5.987-9.285 13.947-9.285 22.413 0 6.609 2.018 12.904 5.746 18.197l-6.283 6.282c-8.01 8.009-12.421 18.66-12.421 29.992s4.411 21.983 12.42 29.992c8.013 8.012 18.664 12.424 29.992 12.424s21.979-4.412 29.992-12.424l6.281-6.281c5.294 3.73 11.59 5.748 18.2 5.748 8.467 0 16.427-3.297 22.413-9.284 5.987-5.987 9.285-13.947 9.285-22.414 0-.891-.045-1.775-.117-2.654.878.073 1.759.116 2.64.116 8.117 0 16.234-3.09 22.413-9.27 5.987-5.987 9.285-13.947 9.285-22.414 0-6.611-2.019-12.908-5.75-18.203l164.78-164.77c5.294 3.729 11.589 5.746 18.197 5.746 8.467 0 16.427-3.297 22.413-9.284 5.987-5.987 9.285-13.947 9.285-22.414 0-3.403-.542-6.721-1.568-9.866 29.328-1.14 54.621-6.218 75.319-15.138 25.582-11.025 42.819-27.339 51.235-48.491 1.531-3.849-.348-8.21-4.196-9.741-3.847-1.531-8.211.348-9.741 4.196-13.551 34.058-58.142 53.795-122.565 54.394l-1.17-1.17 99.447-99.448c8.396 6.215 15.071 12.684 19.471 18.913 1.461 2.069 3.778 3.173 6.133 3.173 1.495 0 3.006-.446 4.32-1.375 3.383-2.39 4.188-7.07 1.799-10.453-5.052-7.153-12.104-14.185-21.007-20.975l2.456-2.456c6.067-6.067 9.409-14.134 9.409-22.714 0-1.148-.064-2.286-.183-3.412.423.018.846.03 1.269.03 7.641.003 15.283-2.905 21.101-8.723zm-136.199-21.823c10.127-3.991 26.124-2.704 46.011 24.383l-99.453 99.454-1.174-1.174c.611-64.561 20.431-109.195 54.616-122.663zm-56.17 210.764-13.515 13.514-63.284-14.258 38.026-38.03zm-124.749 47.211 35.403-35.406 63.283 14.258-35.407 35.405zm2.772 74.759-42.125 42.124-38.764-38.764 17.615-17.615zm-146.5 135.147c-7.322 0-14.206-2.852-19.386-8.031-5.175-5.176-8.026-12.06-8.026-19.385s2.851-14.209 8.026-19.385l5.944-5.943 38.77 38.77-5.943 5.944c-5.178 5.178-12.062 8.03-19.385 8.03zm71.172-29.656c0 4.46-1.737 8.653-4.892 11.807-3.153 3.154-7.346 4.891-11.807 4.891-4.46 0-8.653-1.737-11.807-4.891l-52.231-52.231c-3.153-3.154-4.891-7.347-4.891-11.807 0-4.459 1.737-8.653 4.892-11.807 3.153-3.154 7.346-4.891 11.807-4.891 4.46 0 8.652 1.737 11.806 4.891l52.231 52.231h.001c3.154 3.154 4.891 7.348 4.891 11.807zm29.33-22.413c-6.511 6.51-17.105 6.51-23.614 0l-52.231-52.231c-6.511-6.51-6.511-17.104-.001-23.614 3.154-3.154 7.348-4.891 11.808-4.891 4.461 0 8.653 1.737 11.807 4.891l52.231 52.231h.001c3.153 3.154 4.891 7.347 4.891 11.807s-1.738 8.653-4.892 11.807zm208.924-208.925c-3.153 3.154-7.346 4.891-11.807 4.891-4.46 0-8.652-1.737-11.806-4.891l-52.232-52.231c-3.153-3.154-4.891-7.347-4.891-11.807s1.737-8.653 4.892-11.807c3.153-3.154 7.346-4.891 11.807-4.891 4.46 0 8.653 1.737 11.807 4.891l52.23 52.231h.001c3.153 3.154 4.891 7.347 4.891 11.807s-1.737 8.653-4.892 11.807zm114.234-172.956c0 4.573-1.781 8.873-5.016 12.107l-112.619 112.619-24.214-24.214 112.62-112.62c6.676-6.676 17.537-6.676 24.213 0 .002.002.005.004.007.007 3.229 3.234 5.009 7.53 5.009 12.101zm5.591-22.714c-5.786-5.786-5.786-15.201 0-20.987 2.894-2.894 6.692-4.34 10.494-4.34 3.8 0 7.601 1.447 10.493 4.34 5.786 5.786 5.786 15.201 0 20.987-5.785 5.785-15.2 5.786-20.987 0z"/></g></symbol>
  <symbol id="diamond" viewBox="0 0 64 64"><g><path d="m256 35 28.955 90.211-28.955 54.789-30.028 44.062-70.972-44.062 13.023-91.1z" fill="#3ff"/><path d="m256 180 37.102 66.439-37.102 230.561-109.944-207.119 8.944-89.881z" fill="#2ee6e6"/><path d="m357 180-50.5 36.07-50.5-36.07v-145l103.123 64.098z" fill="#2ee6e6"/><path d="m357 180 22.945 93.61-123.945 203.39v-297z" fill="#29b1cc"/><path d="m256 35-101 145-42.401 36.07-112.599-36.07c0-3.87 1.49-7.73 4.43-10.65l131-130c2.81-2.79 6.61-4.35 10.57-4.35z" fill="#2ee6e6"/><path d="m512 180-86.369 33.492-68.631-33.492-101-145h120c4.17 0 8.14 1.73 10.98 4.78l121 130c2.67 2.87 4.02 6.55 4.02 10.22z" fill="#29b1cc"/><path d="m512 180c0 3.47-1.19 6.94-3.6 9.75l-241 282c-2.83 3.29-7.05 5.26-11.4 5.25l101-297z" fill="#2483b3"/><path d="m256 477c-4.34.01-8.57-1.96-11.4-5.25l-241-282c-2.41-2.82-3.6-6.29-3.6-9.75h155z" fill="#29b1cc"/></g></symbol>
  <symbol id="sapphire" viewBox="0 0 64 64"><g><path d="m256 132 64 124-64 124-37.236 33.33-34.154-33.33-78.005-42.675 6.515-81.325.88-98.622 70.61-25.378 40.316-40.357z" fill="#b9f"/><g fill="#b366ff"><path d="m398.88 256v79.681l-71.49 44.319-28.513 33.33-42.877-33.33v-248l35.071-38.713 36.319 38.713 69.677 42.633z"/><path d="m256 380 31.642 38.578-31.642 61.422h-120.5c-2.68 0-5.27-.72-7.51-2.01l13.991-83.356 42.629-14.634z"/><path d="m184.61 132-71.49 124-37.484 51.338-75.636-51.338c0-2.58.66-5.17 2-7.49l120.5-209c1.34-2.33 3.25-4.2 5.5-5.5l78.83 16.925z"/></g><path d="m256 32 42.117 47.868-42.117 52.132h-71.39l-56.61-97.99c2.24-1.29 4.82-2.01 7.5-2.01z" fill="#93f"/><path d="m512 256-68.721 32.881-44.399-32.881-71.49-124-4.331-75.578 60.941-22.412c2.25 1.3 4.16 3.17 5.5 5.5l120.5 209c1.34 2.32 2 4.91 2 7.49z" fill="#93f"/><path d="m384 34.01-56.61 97.99h-71.39v-100h120.5c2.68 0 5.26.72 7.5 2.01z" fill="#7a29cc"/><path d="m384.01 477.99c-2.24 1.29-4.83 2.01-7.51 2.01h-120.5v-100h71.39l53.534 10.643z" fill="#93f"/><path d="m184.61 380-56.62 97.99c-2.25-1.31-4.15-3.17-5.49-5.5l-120.5-209c-1.34-2.32-2-4.91-2-7.49h113.12z" fill="#93f"/><path d="m512 256c0 2.58-.66 5.17-2 7.49l-120.5 209c-1.34 2.33-3.24 4.19-5.49 5.5l-56.62-97.99 71.49-124z" fill="#7a29cc"/></g></symbol>
  <symbol id="ruby" viewBox="0 0 64 64"><g fill="#ff0059"><path d="m284.996094 179.261719 67.5-12.007813 35.886718-37.683594c-1.148437-2.390624-2.792968-4.527343-5.066406-6.046874l-180-120.996094c-2.519531-1.683594-5.417968-2.527344-8.320312-2.527344l-15 91.003906 15 40.253906 31.25 34.746094zm0 0"/><path d="m105 179.261719-41.25-42.007813-62.136719-7.683594c-.957031 1.996094-1.613281 4.15625-1.613281 6.433594v239.996094c0 2.28125.65625 4.441406 1.613281 6.4375l69.636719-8.9375 33.75-40.753906 20-81.742188zm0 0"/><path d="m284.996094 332.746094-52.5 9.507812-37.5 38.492188-15 62.503906 15 68.75c2.902344 0 5.800781-.835938 8.320312-2.519531l180-121c2.273438-1.515625 3.917969-3.652344 5.066406-6.042969l-43.386718-41.433594zm0 0"/></g><path d="m194.996094 131.257812v-131.257812c-2.898438 0-5.800782.84375-8.316406 2.527344l-180 120.996094c-2.273438 1.519531-3.917969 3.65625-5.066407 6.046874l103.386719 49.691407zm0 0" fill="#ff5e95"/><path d="m284.996094 332.746094 103.386718 49.691406c.957032-1.996094 1.613282-4.15625 1.613282-6.4375v-239.996094c0-2.277344-.65625-4.4375-1.613282-6.433594l-103.386718 49.691407zm0 0" fill="#e50048"/><path d="m105 332.746094-103.386719 49.691406c1.148438 2.390625 2.792969 4.527344 5.066407 6.046875l180 120.996094c2.519531 1.683593 5.417968 2.519531 8.316406 2.519531v-131.253906zm0 0" fill="#ff5e95"/><path d="m284.996094 179.203125v153.597656l-90 48-89.996094-48v-153.597656l89.996094-48zm0 0" fill="#ffa2c3"/><path d="m284.996094 179.203125v153.597656l-90 48v-249.597656zm0 0" fill="#ff5e95"/></symbol>
  <symbol id="gem" viewBox="0 0 64 64"><g><path d="m512 174.176-256 294.581-256-294.581 256-35.197z" fill="#ce0045"/><path d="m512 174.176-256 294.581v-329.778z" fill="#a00031"/><path d="m384.502 108.71-30.308 65.466-98.194-58.559-98.194 58.559-29.806-65.466v-65.465h256z" fill="#ce0045"/><path d="m384.502 108.71-30.308 65.466-98.194-58.559v-72.372h128z" fill="#a00031"/><path d="m354.194 174.176h-196.388l98.194-130.931z" fill="#fe7e52"/><path d="m354.194 174.176h-98.194v-130.931z" fill="#f53241"/><path d="m128 43.243-128 130.929h157.804z" fill="#fe7e52"/><path d="m354.196 174.172h157.804l-128-130.929z" fill="#f53241"/><path d="m354.194 174.176-98.194 294.581-98.194-294.581z" fill="#f53241"/><path d="m354.194 174.176-98.194 294.581v-294.581z" fill="#ce0045"/></g></symbol>
  <symbol id="gem-alt" viewBox="0 0 64 64"><g><path clip-rule="evenodd" d="m249.883 135.442-97.824 116.261c-1.28 1.48-1.935 3.357-1.935 5.236h-111.538c0-1.821.626-3.642 1.878-5.15l209.362-248.855c.284-.37.654-.712 1.024-1.053 1.508-1.252 3.329-1.878 5.15-1.878v132.594c-2.276 0-4.524.967-6.117 2.845z" fill="#b366ff" fill-rule="evenodd"/><path clip-rule="evenodd" d="m152.002 262.089 97.824 116.261c.313.398.654.74 1.024 1.081 1.508 1.252 3.329 1.878 5.15 1.85v130.716h-5.15c-.342-.285-.655-.626-.967-.968l-209.362-248.855c-1.28-1.479-1.935-3.357-1.935-5.235h111.538c0 1.821.598 3.642 1.878 5.15z" fill="#93f" fill-rule="evenodd"/><path d="m152.002 251.789 97.824-116.261c.284-.37.654-.74 1.024-1.053 3.386-2.845 8.422-2.418 11.268.968l97.823 116.261c2.532 2.93 2.646 7.341.085 10.385l-97.823 116.261c-.313.398-.654.74-1.053 1.081-3.386 2.817-8.422 2.39-11.268-.996l-97.824-116.261c-2.531-2.93-2.616-7.341-.056-10.385z" fill="#b9f"/><g clip-rule="evenodd" fill-rule="evenodd"><path d="m262.118 135.442 97.823 116.261c1.28 1.48 1.963 3.357 1.963 5.236h111.509c0-1.821-.597-3.642-1.878-5.15l-209.332-248.855c-.313-.37-.654-.712-1.053-1.053-1.508-1.252-3.329-1.878-5.15-1.878v132.594c2.277 0 4.553.967 6.118 2.845z" fill="#93f"/><path d="m360.026 262.089-97.823 116.261c-.313.398-.654.74-1.053 1.081-1.508 1.252-3.329 1.878-5.15 1.85v130.716h5.15c.342-.285.683-.626.968-.968l209.361-248.855c1.28-1.479 1.935-3.357 1.935-5.235h-111.509c0 1.821-.627 3.642-1.879 5.15z" fill="#7a29cc"/><path d="m262.203 378.35 97.823-116.261c1.252-1.508 1.878-3.329 1.878-5.15 0-1.878-.683-3.756-1.963-5.236l-97.823-116.261c-1.565-1.878-3.841-2.845-6.118-2.845v248.684c1.821.028 3.642-.597 5.15-1.85.399-.341.74-.682 1.053-1.081z" fill="#b366ff"/></g></g></symbol>
  <symbol id="jewelry" viewBox="0 0 64 64"><g><path d="m256 498.13-256-306.56 85.913-43.536 43.757 43.536 106.763 84.51z" fill="#66c0ee"/><path d="m512 191.57-256 306.56 32.62-216.524 93.71-90.036 53.946-39.442z" fill="#3aaaff"/><path d="m129.67 13.87 39.582 69.13-39.582 108.57h-129.67z" fill="#96fff6"/><path d="m512 191.57h-129.67l-36.192-106.869 36.192-70.831z" fill="#76e2f8"/><g><path d="m129.67 191.57 75.865 50.454 50.465-50.454 46.764-52.161-46.764-125.539-91.85 60.91z" fill="#96fff6"/><path d="m256 13.87v177.7l46.764 41.95 79.566-41.95-24.291-107.153z" fill="#76e2f8"/></g><path d="m382.33 13.87v177.7l-126.33-177.7z" fill="#66c0ee"/><path d="m256 13.87-126.33 177.7v-177.7z" fill="#76e2f8"/><g><path d="m129.67 191.57 126.33 306.56 51.583-203.41-51.583-103.15z" fill="#76e2f8"/><path d="m256 191.57v306.56l126.33-306.56z" fill="#66c0ee"/></g></g></symbol>
  <symbol id="royal" viewBox="0 0 64 64"><g><g><g><path d="m6 4c2.21 0 4 2.24 4 5s-1.79 5-4 5c-2.07 0-3.77-1.96-3.98-4.47-.01-.17-.02-.35-.02-.53s.01-.36.02-.53c.21-2.51 1.91-4.47 3.98-4.47z" fill="#fcd770"/></g><g><path d="m51.67 11h2.33c.55 0 1.05-.22 1.41-.59.37-.36.59-.86.59-1.41 0-1.1-.9-2-2-2h-2.33-.01c-.2-.58-.48-1.1-.84-1.55 1.06-2.06 2.97-3.45 5.18-3.45 3.31 0 6 3.13 6 7s-2.69 7-6 7c-2.21 0-4.12-1.39-5.18-3.45.36-.45.64-.97.84-1.55z" fill="#ffeaa7"/></g><g><path d="m8 16c-3.16 0-5.75-2.85-5.98-6.47.21 2.51 1.91 4.47 3.98 4.47 2.21 0 4-2.24 4-5s-1.79-5-4-5c-2.07 0-3.77 1.96-3.98 4.47.23-3.62 2.82-6.47 5.98-6.47 2.72 0 5.01 2.11 5.75 5 .16.63.25 1.31.25 2s-.09 1.37-.25 2c-.74 2.89-3.03 5-5.75 5z" fill="#ffeaa7"/></g><g><path d="m54 7c1.1 0 2 .9 2 2 0 .55-.22 1.05-.59 1.41-.36.37-.86.59-1.41.59h-2.33-.01c.22-.61.34-1.29.34-2s-.12-1.39-.34-2h.01z" fill="#fcd770"/></g><g><path d="m14.33 7h1.67c1.1 0 2 .9 2 2 0 .55-.22 1.05-.59 1.41-.36.37-.86.59-1.41.59h-1.67-.33-.25c.16-.63.25-1.31.25-2s-.09-1.37-.25-2z" fill="#fcd770"/></g><g><path d="m18 4c2.21 0 4 2.24 4 5s-1.79 5-4 5c-1.64 0-3.05-1.23-3.67-3h1.67c.55 0 1.05-.22 1.41-.59.37-.36.59-.86.59-1.41 0-1.1-.9-2-2-2h-1.67c.62-1.77 2.03-3 3.67-3z" fill="#d3a06c"/></g><g><path d="m49 52c2.76 0 5 2.24 5 5s-2.24 5-5 5h-30c2.76 0 5-2.24 5-5s-2.24-5-5-5h29z" fill="#b27946"/></g><g><path d="m50.82 12.55c-.73.89-1.72 1.45-2.82 1.45h-30c2.21 0 4-2.24 4-5s-1.79-5-4-5h30c1.1 0 2.09.56 2.82 1.45.36.45.64.97.84 1.55.22.61.34 1.29.34 2s-.12 1.39-.34 2c-.2.58-.48 1.1-.84 1.55z" fill="#b27946"/></g><g><path d="m18 14c-1.64 0-3.05-1.23-3.67-3h-.33v23 2l4 2-4 2v17c0 2.76 2.24 5 5 5s5-2.24 5-5-2.24-5-5-5h29v-18-20z" fill="#dfb28b"/></g><g><path d="m31 21-1 5h-10l-1-5 3 1 3-4 3 4z" fill="#fcd770"/></g></g><g><path d="m56 1c-2.096 0-4.062 1.091-5.379 2.9-.763-.567-1.659-.9-2.621-.9h-30c-1.522 0-2.923.817-3.856 2.172-1.189-2.484-3.497-4.172-6.144-4.172-3.674 0-6.69 3.254-6.972 7.372-.018.207-.028.416-.028.628s.01.421.028.628c.282 4.118 3.298 7.372 6.972 7.372 1.958 0 3.728-.926 5-2.412v22.03l2.764 1.382-2.764 1.382v17.618c0 3.309 2.691 6 6 6h30c3.309 0 6-2.691 6-6s-2.691-6-6-6v-36.121c.585-.143 1.13-.414 1.621-.779 1.317 1.809 3.283 2.9 5.379 2.9 3.859 0 7-3.589 7-8s-3.141-8-7-8zm-3.075 7h1.075c.552 0 1 .449 1 1s-.448 1-1 1h-1.075c.046-.326.075-.659.075-1s-.029-.674-.075-1zm-34.925-3c1.654 0 3 1.794 3 4s-1.346 4-3 4c-.736 0-1.435-.371-1.974-1.003 1.642-.014 2.974-1.352 2.974-2.997s-1.332-2.983-2.974-2.997c.539-.632 1.238-1.003 1.974-1.003zm-3.061 5c.036-.328.061-.661.061-1s-.025-.672-.061-1h1.061c.552 0 1 .449 1 1s-.448 1-1 1zm-11.939-1c0-2.206 1.346-4 3-4s3 1.794 3 4-1.346 4-3 4-3-1.794-3-4zm5 6c-.342 0-.677-.042-1-.121 2.279-.558 4-2.981 4-5.879s-1.721-5.321-4-5.879c.323-.079.658-.121 1-.121 2.757 0 5 2.691 5 6s-2.243 6-5 6zm45 42c0 2.206-1.794 4-4 4h-25.531c.951-1.062 1.531-2.465 1.531-4s-.58-2.938-1.531-4h25.531c2.206 0 4 1.794 4 4zm-34-6v2c2.206 0 4 1.794 4 4s-1.794 4-4 4-4-1.794-4-4v-16.382l5.236-2.618-5.236-2.618v-21.593c.848.763 1.888 1.211 3 1.211h29v36zm29-38h-26.284c.795-1.063 1.284-2.462 1.284-4s-.489-2.937-1.284-4h26.284c1.654 0 3 1.794 3 4s-1.346 4-3 4zm8 2c-1.572 0-3.058-.917-3.999-2.418.116-.186.224-.38.322-.582h1.677c1.654 0 3-1.346 3-3s-1.346-3-3-3h-1.677c-.098-.202-.206-.396-.322-.582.941-1.501 2.427-2.418 3.999-2.418 2.757 0 5 2.691 5 6s-2.243 6-5 6z"/><path d="m30.819 27 1.499-7.494-3.951 1.317-3.367-4.49-3.367 4.49-3.951-1.317 1.499 7.494zm-8.452-3.823 2.633-3.51 2.633 3.51 2.049-.683-.501 2.506h-8.361l-.501-2.506z"/><path d="m33 25h12v2h-12z"/><path d="m35 21h2v2h-2z"/><path d="m39 21h6v2h-6z"/><path d="m17 29h28v2h-28z"/><path d="m17 33h28v2h-28z"/><path d="m23 37h22v2h-22z"/><path d="m21 41h24v2h-24z"/><path d="m23 45h2v2h-2z"/><path d="m27 45h2v2h-2z"/><path d="m31 45h2v2h-2z"/><path d="m35 45h2v2h-2z"/><path d="m19 45h2v2h-2z"/></g></g></symbol>
  <symbol id="insignia" viewBox="0 0 64 64"><linearGradient id="b0be09ac-00e8-41ab-bce5-d1a372e4c042" gradientUnits="userSpaceOnUse" x1="9.163" x2="54.851" y1="32.001" y2="32.001"><stop offset="0" stop-color="#ffde00"/><stop offset="1" stop-color="#fd5900"/></linearGradient><path d="m26.01623 26.79634a17.96514 17.96514 0 0 1 2.52069 8.89254l.00008 2.28812h6.9205a19.101 19.101 0 0 1 1.507-9.13434 19.8011 19.8011 0 0 0 2.7066-9.74828 17.64337 17.64337 0 0 0 -2.12075-8.446 26.30152 26.30152 0 0 0 -4.92993-6.41819.95859.95859 0 0 0 -1.24641 0c-5.53701 5.06702-9.4786 13.80894-5.35778 22.56615zm4.95786-14.734a.92318.92318 0 0 1 .372 1.265 12.078 12.078 0 0 0 -1.38595 7.01357.9275.9275 0 0 1 -.92088 1.02316.94433.94433 0 0 1 -.93017-.84642 13.9657 13.9657 0 0 1 1.60919-8.08325.92276.92276 0 0 1 1.25581-.37209zm15.627 28.975a.9364.9364 0 0 1 -.50245-1.71152 2.28446 2.28446 0 0 0 -.60444-3.97182c-1.7304-.616-2.84086.81033-3.40453 2.63232-1.46184-.02488-3.42429-.00217-4.89269-.00929.093-2.84634.87437-9.34827 5.674-12.09214 4.66785-2.85142 11.73.174 11.94356 5.86925.07939.01148.67405 8.23379-8.21343 9.2832zm-29.5983-3.423a2.40838 2.40838 0 0 0 .90221 1.72076.93624.93624 0 0 1 -.651 1.693c-8.92974-1.27434-8.074-9.23666-8.06462-9.32023.20876-5.64878 7.297-8.67174 11.93413-5.82309 4.79969 2.744 5.58107 9.246 5.67406 12.09229-1.464.008-3.43385-.016-4.89268.00933a8.57646 8.57646 0 0 0 -.85581-1.81386 2.22559 2.22559 0 0 0 -4.04627 1.44177zm22.23129 13.38518c-.31629 1.34877-1.5162 3.72071-3.9161 4.10215-.01828 1.1736-1.01025 4.18717-3.29891 4.89833a.99463.99463 0 0 1 -.71012-.28471 6.04313 6.04313 0 0 1 -2.63242-4.61364c-2.39988-.38141-3.59979-2.75335-3.91606-4.10211a.9408.9408 0 0 1 .74418-1.1348 3.00034 3.00034 0 0 0 2.54866-2.39055c2.14472-.00317 5.75721.00437 7.8879 0a3.00037 3.00037 0 0 0 2.54868 2.39056.94084.94084 0 0 1 .74419 1.13477zm4.55783-9.19015v1.84179a1.96306 1.96306 0 0 1 -1.96266 1.96266h-19.664a1.96306 1.96306 0 0 1 -1.96267-1.96266v-1.84179a1.96507 1.96507 0 0 1 1.96267-1.972h19.664a1.96507 1.96507 0 0 1 1.96266 1.972z" fill="url(#b0be09ac-00e8-41ab-bce5-d1a372e4c042)"/></symbol>
</svg>